<?xml version="1.0" encoding="UTF-8"?>
<svg viewBox="0 0 374 62" xmlns="http://www.w3.org/2000/svg">
<path d="m128.15 0.91428c0.31 0.27965 0.466 0.63404 0.466 1.0609v31.589c0 0.4278-0.165 0.7817-0.493 1.0609-0.329 0.2801-0.731 0.4195-1.206 0.4195-0.512 0-0.932-0.1394-1.26-0.4195-0.329-0.2792-0.494-0.6331-0.494-1.0609v-27.146l-12.879 17.571c-0.366 0.4282-0.786 0.6253-1.261 0.5919h-0.11c-0.438 0-0.841-0.1972-1.205-0.5919l-12.88-17.67v27.245c0 0.4278-0.1557 0.7817-0.4658 1.0609-0.311 0.2801-0.704 0.4195-1.1785 0.4195-0.4749 0-0.8588-0.1394-1.151-0.4195-0.2927-0.2792-0.4383-0.6331-0.4383-1.0609v-31.589c0-0.39473 0.1548-0.73995 0.4658-1.0361 0.31-0.29616 0.703-0.44424 1.1785-0.44424 0.255 0 0.5289 0.057762 0.8222 0.17284 0.2917 0.11553 0.5111 0.2714 0.6572 0.46854l14.36 19.398 14.469-19.398c0.401-0.4933 0.895-0.70739 1.48-0.64138 0.438 0 0.813 0.14028 1.123 0.41948z"/>
<path d="m144.83 22.163h15.237l-7.674-16.88-7.563 16.88zm23.896 11.5c0 0.4282-0.164 0.7734-0.493 1.0365-0.329 0.2636-0.712 0.3948-1.151 0.3948-0.366 0-0.685-0.0899-0.959-0.2715-0.275-0.1801-0.484-0.4194-0.631-0.7156l-4.11-9.032h-17.812l-4.056 9.032c-0.293 0.6583-0.786 0.9871-1.479 0.9871-0.513 0-0.896-0.1147-1.151-0.3453-0.257-0.2301-0.403-0.5428-0.439-0.938v-0.148c0-0.1976 0.018-0.3457 0.055-0.4443l14.469-31.884c0.292-0.65742 0.84-0.98705 1.644-0.98705 0.365 0 0.685 0.090775 0.959 0.2714 0.274 0.18109 0.484 0.41994 0.63 0.71564l14.415 31.736c0.072 0.2637 0.109 0.4612 0.109 0.5924z"/>
<path d="m193.17 17.572c1.279-0.099 2.467-0.4768 3.563-1.1356 1.096-0.6574 1.973-1.5459 2.631-2.6649 0.658-1.1182 0.986-2.4014 0.986-3.8497 0-1.8755-0.704-3.4306-2.11-4.6643-1.407-1.2342-3.242-1.8508-5.507-1.8508h-12.716v14.165h13.153zm12.223 16.041c0 0.1655-0.074 0.3787-0.22 0.6418-0.146 0.2306-0.347 0.4117-0.602 0.5428-0.256 0.1316-0.53 0.1976-0.823 0.1976-0.365 0-0.676-0.066-0.932-0.1976-1.023-0.5258-1.845-1.3817-2.466-2.5664-0.621-1.1846-0.932-3.0762-0.932-5.6761 0-2.3028-0.712-3.9239-2.137-4.8618-1.425-0.9376-3.124-1.4066-5.097-1.4066h-12.167v13.277c0 0.4278-0.146 0.7817-0.438 1.0609-0.293 0.2801-0.677 0.4195-1.151 0.4195-0.512 0-0.951-0.1394-1.316-0.4195-0.365-0.2792-0.547-0.6331-0.547-1.0609v-31.589c0-0.42682 0.155-0.7812 0.465-1.0609 0.31-0.2792 0.703-0.41948 1.178-0.41948h14.799c2.082 0 3.945 0.40344 5.59 1.2094 1.644 0.80641 2.932 1.9168 3.864 3.3311 0.931 1.4152 1.397 3.0111 1.397 4.7881 0 2.1056-0.612 3.9569-1.836 5.5523-1.225 1.5963-2.823 2.6897-4.796 3.282 1.608 0.5603 2.923 1.5056 3.947 2.8383 1.022 1.3327 1.552 2.9538 1.589 4.8614 0.036 2.0406 0.192 3.4719 0.466 4.2939 0.274 0.8229 0.721 1.3992 1.343 1.7279 0.547 0.3292 0.822 0.7404 0.822 1.2337z"/>
<path d="m217.29 34.601c-0.329 0.2962-0.732 0.4443-1.206 0.4443-0.512 0-0.924-0.1399-1.233-0.4195-0.311-0.2797-0.466-0.6492-0.466-1.1108v-31.49c0-0.46028 0.165-0.83026 0.493-1.1104 0.329-0.2792 0.749-0.41948 1.261-0.41948 0.474 0 0.877 0.14854 1.205 0.44424 0.329 0.29662 0.494 0.6588 0.494 1.0856v31.49c-0.037 0.4277-0.219 0.7899-0.548 1.086z"/>
<path d="m258.36 18.04c0.31 0.2802 0.466 0.6341 0.466 1.0609v11.896c0 0.5597-0.274 1.004-0.822 1.3327-1.645 1.0205-3.473 1.8095-5.481 2.3688-2.01 0.5593-4.056 0.839-6.138 0.839-3.727 0-7.089-0.773-10.085-2.3198-2.996-1.5464-5.353-3.6681-7.07-6.3665-1.718-2.698-2.575-5.7256-2.575-9.082 0-3.3563 0.857-6.3834 2.575-9.0814 1.717-2.6975 4.074-4.8202 7.07-6.367 2.996-1.5464 6.358-2.3202 10.085-2.3202 1.936 0 3.809 0.21456 5.617 0.64229 1.809 0.42774 3.425 1.0366 4.851 1.826 0.511 0.29616 0.767 0.70785 0.767 1.2342 0 0.42773-0.156 0.78945-0.466 1.0856-0.311 0.29571-0.667 0.44424-1.069 0.44424-0.365 0-0.694-0.0816-0.986-0.2471-2.74-1.3488-5.645-2.0236-8.714-2.0236-3.107 0-5.892 0.64183-8.358 1.925-2.467 1.2832-4.394 3.0524-5.783 5.3061-1.388 2.2542-2.082 4.7798-2.082 7.5759 0 2.7975 0.694 5.3231 2.082 7.5764 1.389 2.2542 3.316 4.0225 5.783 5.3057 2.466 1.2836 5.251 1.925 8.358 1.925 1.57 0 3.151-0.1976 4.74-0.5923 1.59-0.3947 3.005-0.938 4.248-1.6289v-9.7723h-8.659c-0.476 0-0.877-0.1399-1.206-0.4195-0.329-0.2792-0.494-0.6331-0.494-1.0618 0-0.4268 0.165-0.7807 0.494-1.0609 0.329-0.2787 0.73-0.4194 1.206-0.4194h10.468c0.474 0 0.867 0.1407 1.178 0.4194z"/>
<path d="m297.17 10.094c-1.261-2.2533-3.015-4.0055-5.262-5.2566-2.247-1.2497-4.814-1.8755-7.7-1.8755-2.887 0-5.454 0.62579-7.701 1.8755-2.247 1.2511-4 3.0033-5.261 5.2566-1.26 2.2542-1.891 4.8124-1.891 7.6749 0 2.8626 0.631 5.4212 1.891 7.675 1.261 2.2542 3.014 4.0064 5.261 5.2566 2.247 1.2511 4.814 1.8755 7.701 1.8755 2.886 0 5.453-0.6244 7.7-1.8755 2.247-1.2502 4.001-3.0024 5.262-5.2566 1.26-2.2538 1.89-4.8124 1.89-7.675 0-2.8625-0.63-5.4207-1.89-7.6749zm3.041 16.806c-1.571 2.6985-3.745 4.8124-6.522 6.3423-2.777 1.5303-5.938 2.295-9.481 2.295-3.545 0-6.705-0.7647-9.482-2.295-2.777-1.5299-4.951-3.6438-6.522-6.3423-1.571-2.698-2.356-5.7412-2.356-9.131 0-3.4218 0.785-6.4816 2.356-9.18 1.571-2.698 3.745-4.8041 6.522-6.3175 2.777-1.5133 5.937-2.2712 9.482-2.2712 3.543 0 6.704 0.75782 9.481 2.2712 2.777 1.5134 4.951 3.6195 6.522 6.3175 1.571 2.6984 2.357 5.7582 2.357 9.18 0 3.3898-0.786 6.433-2.357 9.131z"/>
<path d="m333.83 32.527c0.31 0.2636 0.465 0.6088 0.465 1.0365 0 0.4278-0.155 0.7817-0.465 1.0609-0.311 0.2801-0.704 0.4195-1.178 0.4195h-19.567c-0.475 0-0.868-0.1394-1.178-0.4195-0.311-0.2792-0.466-0.6331-0.466-1.0609v-31.589c0-0.42682 0.165-0.7812 0.493-1.0609 0.329-0.2792 0.749-0.41948 1.261-0.41948 0.474 0 0.877 0.14029 1.206 0.41948 0.328 0.27966 0.493 0.63404 0.493 1.0609v30.157h17.758c0.474 0 0.867 0.1315 1.178 0.3947z"/>
<path d="m366.58 28.16c2.155-2.648 3.234-6.1116 3.234-10.39 0-2.6654-0.458-5.075-1.371-7.2311-0.913-2.1543-2.348-3.8817-4.302-5.1819-1.955-1.2997-4.412-1.9498-7.371-1.9498h-11.619v28.726h11.619c4.384 0 7.654-1.3245 9.81-3.9734zm-0.411-25.32c2.393 1.5633 4.183 3.652 5.371 6.268 1.187 2.6159 1.781 5.5032 1.781 8.6624 0 3.2573-0.594 6.1864-1.781 8.7854-1.188 2.5998-2.978 4.6642-5.371 6.1946-2.394 1.5298-5.344 2.295-8.851 2.295h-13.976c-0.475 0-0.869-0.1399-1.178-0.4195-0.311-0.2797-0.466-0.6331-0.466-1.0613v-31.588c0-0.42728 0.155-0.78121 0.466-1.0613 0.309-0.2792 0.703-0.41948 1.178-0.41948h13.976c3.507 0 6.457 0.78212 8.851 2.3445z"/>
<path d="m94.369 60.388c0.7305 0.5671 1.5043 0.9815 2.3051 1.2327 0.8012 0.2517 1.7385 0.3796 2.7841 0.3796 0.9552 0 1.8442-0.1549 2.6402-0.4607 0.789-0.3021 1.42-0.7308 1.875-1.2731 0.45-0.535 0.677-1.1558 0.677-1.8476 0-0.7949-0.188-1.4441-0.561-1.9301-0.374-0.4887-0.915-0.8765-1.607-1.1534-0.71-0.2843-1.644-0.5355-2.7773-0.7473-1.1694-0.2324-2.0648-0.5222-2.6625-0.8605-0.6414-0.3627-0.9662-0.8931-0.9662-1.5766 0-0.6304 0.3243-1.1443 0.9622-1.5267 0.6134-0.3658 1.4417-0.5515 2.4639-0.5515 0.6409 0 1.3189 0.1183 2.0139 0.3525 0.699 0.2348 1.257 0.5286 1.659 0.8739 0.088 0.0669 0.212 0.1027 0.372 0.1027 0.227 0 0.415-0.0697 0.577-0.2141 0.161-0.1435 0.239-0.2999 0.239-0.4796 0-0.2375-0.142-0.4589-0.437-0.679-0.484-0.4048-1.123-0.7303-1.904-0.9755-0.786-0.2453-1.634-0.37-2.5199-0.37-0.9851 0-1.881 0.1485-2.6635 0.4419-0.7728 0.2898-1.3837 0.7083-1.8159 1.2415-0.4291 0.5305-0.647 1.1562-0.647 1.8604 0 1.0292 0.3777 1.8095 1.1546 2.3876 0.788 0.5855 1.9365 1.0137 3.4128 1.2727 1.3209 0.2485 2.2789 0.5511 2.9319 0.9261 0.682 0.3942 1.036 0.9581 1.052 1.6775 0 0.6244-0.354 1.142-1.053 1.5413-0.67 0.3842-1.498 0.579-2.4605 0.579-0.8166 0-1.5588-0.1155-2.2058-0.3452-0.6445-0.2283-1.2778-0.5873-1.8815-1.0668-0.2979-0.2343-0.7789-0.2251-1.0981 0.0596-0.1675 0.1485-0.2495 0.3085-0.2495 0.4891 0 0.237 0.1278 0.4461 0.39 0.6396z"/>
<path d="m122.68 57.998c-0.456 0.7903-1.1 1.4212-1.918 1.875-0.817 0.4521-1.755 0.6813-2.789 0.6813s-1.972-0.2292-2.789-0.6813c-0.816-0.452-1.461-1.0833-1.918-1.875-0.454-0.7872-0.685-1.6812-0.685-2.6563 0-0.988 0.231-1.8884 0.685-2.676 0.458-0.7922 1.103-1.4198 1.919-1.865 0.816-0.446 1.754-0.6716 2.788-0.6716 1.035 0 1.974 0.2292 2.789 0.6813 0.817 0.4534 1.462 1.0837 1.918 1.875 0.456 0.7881 0.686 1.6816 0.686 2.6563s-0.23 1.8677-0.686 2.6563zm-0.963-8.4369c-1.097-0.5832-2.357-0.878-3.744-0.878-1.386 0-2.646 0.2948-3.744 0.878-1.097 0.5808-1.969 1.3859-2.589 2.3913-0.622 1.0058-0.936 2.146-0.936 3.3893 0 1.2424 0.314 2.3826 0.936 3.3889 0.62 1.0054 1.492 1.8104 2.589 2.3917 1.099 0.5823 2.358 0.8775 3.744 0.8775 1.387 0 2.646-0.2952 3.744-0.8775 1.098-0.5818 1.969-1.3868 2.589-2.3917 0.622-1.0077 0.937-2.147 0.937-3.3889s-0.315-2.3821-0.937-3.3893c-0.62-1.0045-1.491-1.8095-2.589-2.3913z"/>
<path d="m133.72 49.091c-0.177-0.1458-0.383-0.2178-0.627-0.2178-0.273 0-0.489 0.071-0.659 0.2159-0.167 0.144-0.248 0.3131-0.248 0.5162v11.472c0 0.2045 0.079 0.3732 0.24 0.5176 0.162 0.144 0.365 0.2141 0.623 0.2141h7.469c0.26 0 0.466-0.0651 0.628-0.1989 0.157-0.1316 0.234-0.2935 0.234-0.4952 0-0.2145-0.077-0.3828-0.234-0.5134-0.162-0.1339-0.368-0.199-0.628-0.199h-6.541v-10.798c0-0.2017-0.085-0.3704-0.257-0.5143z"/>
<path d="m150.22 57.098 2.866-5.948 2.892 5.948h-5.758zm9.374 3.773-5.608-11.574c-0.063-0.1637-0.16-0.2765-0.299-0.3558-0.145-0.0839-0.306-0.1237-0.49-0.1237-0.216-0.0211-0.375 0.01-0.521 0.0944-0.153 0.0894-0.271 0.2173-0.358 0.3888l-5.633 11.736c-0.014 0.0953-0.028 0.1861-0.028 0.231 0 0.1917 0.059 0.3361 0.181 0.4415 0.122 0.105 0.314 0.1582 0.57 0.1582 0.168 0 0.316-0.0404 0.454-0.122 0.132-0.0793 0.226-0.1921 0.286-0.3466l1.405-2.9308h7.089l1.422 2.8997c0.084 0.1545 0.201 0.2815 0.342 0.3713 0.314 0.1985 0.724 0.1655 1.01-0.0706 0.157-0.1297 0.233-0.292 0.233-0.4951 0-0.1068-0.018-0.2077-0.055-0.3017z"/>
<path d="m174.24 54.991c-0.363 0.2489-0.751 0.3892-1.155 0.4158l-5.052 9e-4h-0.2v-5.1452h5.171c0.674 0 1.254 0.2329 1.726 0.6936 0.468 0.4566 0.705 1.0192 0.705 1.6706 0 0.5052-0.111 0.9687-0.328 1.3786-0.22 0.4098-0.512 0.7418-0.867 0.9857zm3.67 6.2198c0-0.1059-0.034-0.2091-0.105-0.3154-0.073-0.111-0.17-0.2008-0.293-0.2765-0.282-0.127-0.481-0.3539-0.568-0.6647-0.078-0.2701-0.145-0.7624-0.205-1.5028-0.028-0.5401-0.193-1.0137-0.487-1.4148-0.297-0.4021-0.706-0.7193-1.214-0.944l-0.366-0.1614 0.367-0.1613c0.654-0.2879 1.201-0.7299 1.621-1.313 0.418-0.5818 0.63-1.2168 0.63-1.8879 0-0.6978-0.191-1.3341-0.567-1.8916-0.377-0.5593-0.889-1.0045-1.518-1.3236-0.631-0.3181-1.334-0.4795-2.091-0.4795h-6.209c-0.244 0-0.445 0.0706-0.614 0.2159-0.167 0.1435-0.248 0.3132-0.248 0.5162v11.472c0 0.1976 0.095 0.3631 0.291 0.5061 0.209 0.1522 0.453 0.226 0.747 0.226 0.225 0 0.402-0.0655 0.54-0.1994 0.142-0.1371 0.212-0.3117 0.212-0.5327v-4.453h4.662c0.75 0 1.37 0.166 1.845 0.4933 0.492 0.3365 0.741 0.8569 0.741 1.5478 0 0.9017 0.134 1.5899 0.397 2.0437 0.261 0.4475 0.598 0.7735 1.002 0.9706 0.329 0.1724 0.883 0.1847 1.215-0.0275 0.145-0.0917 0.215-0.2361 0.215-0.4424z"/>
<path d="m205.44 49.632c-1.22-0.5919-2.541-0.8912-3.93-0.8912-1.448 0-2.773 0.2897-3.938 0.8614-1.163 0.5698-2.089 1.3657-2.752 2.3651-0.663 0.9981-0.999 2.1337-0.999 3.3747 0 1.3534 0.35 2.5485 1.042 3.5521 0.69 1.0054 1.631 1.782 2.791 2.3078 1.167 0.5295 2.464 0.7982 3.856 0.7982 0.671 0 1.363-0.0816 2.061-0.2416 0.693-0.1591 1.328-0.3778 1.887-0.6492 0.134-0.0619 0.238-0.1462 0.315-0.253 0.075-0.1032 0.112-0.2114 0.112-0.3292 0-0.1742-0.072-0.3351-0.218-0.4919-0.157-0.1761-0.359-0.2595-0.621-0.2595-0.175 0-0.338 0.0321-0.49 0.0967-0.897 0.4631-1.926 0.701-3.046 0.701-1.086 0-2.085-0.2081-2.965-0.6189-0.885-0.4122-1.589-1.0201-2.092-1.8072-0.502-0.7831-0.756-1.7275-0.756-2.8053 0-1.0026 0.248-1.9044 0.734-2.6815 0.487-0.7789 1.178-1.3932 2.055-1.826 0.873-0.43 1.891-0.6487 3.024-0.6487 1.089 0 2.116 0.2311 3.054 0.6868 0.16 0.0733 0.331 0.1114 0.504 0.1114 0.247 0 0.433-0.0775 0.573-0.2361 0.15-0.1623 0.222-0.3297 0.222-0.5153 0-0.2751-0.134-0.4658-0.423-0.6006z"/>
<path d="m223.65 57.998c-0.456 0.7908-1.1 1.4212-1.917 1.875-0.818 0.4521-1.756 0.6813-2.789 0.6813-1.034 0-1.973-0.2292-2.79-0.6813-0.816-0.4529-1.461-1.0842-1.918-1.875-0.455-0.7872-0.685-1.6812-0.685-2.6563 0-0.988 0.23-1.8884 0.685-2.676 0.457-0.7913 1.103-1.4194 1.919-1.865 0.816-0.446 1.754-0.6716 2.789-0.6716 1.034 0 1.972 0.2292 2.789 0.6813 0.816 0.4525 1.461 1.0837 1.917 1.875 0.456 0.7881 0.686 1.6816 0.686 2.6563s-0.23 1.8677-0.686 2.6563zm-0.963-8.4369c-1.097-0.5832-2.357-0.878-3.743-0.878-1.387 0-2.646 0.2948-3.744 0.878-1.097 0.5808-1.969 1.3859-2.59 2.3913-0.621 1.0058-0.936 2.146-0.936 3.3893 0 1.2424 0.315 2.3826 0.936 3.3889 0.621 1.0054 1.493 1.8104 2.59 2.3917 1.098 0.5823 2.357 0.8775 3.744 0.8775 1.386 0 2.645-0.2952 3.743-0.8775 1.099-0.5827 1.97-1.3877 2.59-2.3917 0.622-1.0077 0.936-2.1479 0.936-3.3889 0-1.2419-0.314-2.3821-0.936-3.3893-0.62-1.004-1.491-1.8091-2.59-2.3913z"/>
<path d="m245.71 61.601c0.17 0.1403 0.385 0.2081 0.661 0.2081 0.272 0 0.483-0.0701 0.643-0.2141 0.162-0.143 0.24-0.3126 0.24-0.518v-11.492c0-0.2017-0.08-0.3667-0.245-0.5043-0.173-0.1426-0.377-0.2168-0.626-0.2278-0.281 0-0.518 0.1137-0.715 0.347l-5.464 7.024-5.401-7.0299c-0.081-0.0991-0.194-0.183-0.334-0.2458-0.389-0.1765-0.796-0.11-1.063 0.1289-0.169 0.1499-0.25 0.3158-0.25 0.5079v11.492c0 0.2196 0.071 0.3933 0.22 0.5309 0.146 0.1352 0.334 0.2012 0.575 0.2012 0.255 0 0.451-0.066 0.598-0.2017 0.147-0.1371 0.22-0.3108 0.22-0.5304v-9.5523l4.672 6.2418c0.077 0.0825 0.187 0.1632 0.317 0.2274 0.12 0.0587 0.23 0.0839 0.34 0.0743 0.169 0.011 0.28-0.0147 0.398-0.0739 0.131-0.0646 0.241-0.1453 0.329-0.2411l4.64-6.0451v9.3689c0 0.2159 0.081 0.3869 0.245 0.524z"/>
<path d="m263.15 54.014c-0.213 0.3924-0.506 0.7124-0.87 0.9499-0.371 0.2439-0.783 0.3668-1.222 0.3668h-4.353v-5.0696h4.353c0.661 0 1.237 0.2476 1.708 0.7363 0.465 0.4805 0.701 1.0723 0.701 1.76 0 0.4447-0.106 0.8674-0.317 1.2566zm-0.029-4.6258c-0.628-0.3415-1.321-0.5148-2.063-0.5148h-5.126c-0.244 0-0.445 0.0706-0.615 0.2159-0.166 0.1435-0.247 0.3127-0.247 0.5162v11.472c0 0.2196 0.072 0.3929 0.221 0.5304 0.146 0.1353 0.341 0.2017 0.596 0.2017 0.242 0 0.433-0.0692 0.587-0.2113 0.155-0.144 0.231-0.315 0.231-0.5208v-4.3773h4.353c0.741 0 1.435-0.1761 2.062-0.524 0.63-0.3489 1.137-0.8312 1.51-1.4341 0.372-0.6028 0.561-1.2703 0.561-1.9846 0-0.7124-0.189-1.3722-0.56-1.9622-0.372-0.5905-0.88-1.0645-1.51-1.407z"/>
<path d="m283.18 57.998c-0.455 0.7903-1.1 1.4207-1.918 1.875-0.817 0.4521-1.755 0.6813-2.789 0.6813s-1.973-0.2292-2.789-0.6813c-0.816-0.4529-1.462-1.0842-1.918-1.875-0.455-0.7886-0.685-1.6825-0.685-2.6563 0-0.9866 0.23-1.887 0.685-2.676 0.457-0.7922 1.103-1.4194 1.919-1.865 0.815-0.446 1.754-0.6716 2.788-0.6716s1.973 0.2292 2.789 0.6813c0.818 0.4534 1.463 1.0842 1.918 1.875 0.455 0.789 0.687 1.683 0.687 2.6563 0 0.9738-0.232 1.8673-0.687 2.6563zm-0.963-8.4369c-1.098-0.5832-2.357-0.878-3.744-0.878-1.386 0-2.645 0.2948-3.743 0.878-1.097 0.5808-1.969 1.3859-2.59 2.3913-0.621 1.0058-0.937 2.146-0.937 3.3893 0 1.2424 0.316 2.3826 0.937 3.3889 0.621 1.0054 1.493 1.8104 2.59 2.3917 1.099 0.5823 2.357 0.8775 3.743 0.8775 1.387 0 2.646-0.2952 3.744-0.8775 1.098-0.5818 1.97-1.3868 2.59-2.3917 0.621-1.0077 0.936-2.147 0.936-3.3889s-0.315-2.3821-0.936-3.3893c-0.62-1.0045-1.492-1.8095-2.59-2.3913z"/>
<path d="m292.08 60.388c0.731 0.5671 1.504 0.9816 2.305 1.2328 0.801 0.2517 1.739 0.3796 2.784 0.3796 0.956 0 1.844-0.155 2.641-0.4607 0.788-0.3022 1.42-0.7308 1.875-1.2732 0.449-0.535 0.677-1.1557 0.677-1.8475 0-0.795-0.189-1.4442-0.561-1.9301-0.374-0.4887-0.915-0.8766-1.607-1.1535-0.71-0.2842-1.645-0.5354-2.778-0.7473-1.169-0.2324-2.065-0.5221-2.662-0.8605-0.642-0.3626-0.966-0.893-0.966-1.5766 0-0.6304 0.324-1.1443 0.961-1.5266 0.614-0.3659 1.442-0.5515 2.465-0.5515 0.641 0 1.318 0.1182 2.014 0.3525 0.698 0.2356 1.257 0.5295 1.659 0.8738 0.088 0.0669 0.211 0.1027 0.371 0.1027 0.228 0 0.416-0.0697 0.578-0.2141 0.161-0.1435 0.239-0.2998 0.239-0.4795 0-0.2375-0.142-0.4589-0.437-0.679-0.484-0.4048-1.123-0.7303-1.904-0.9756-0.786-0.2453-1.634-0.37-2.52-0.37-0.985 0-1.881 0.1486-2.664 0.442-0.772 0.2897-1.384 0.7083-1.816 1.2415-0.429 0.5304-0.646 1.1562-0.646 1.8604 0 1.0292 0.377 1.8095 1.154 2.3876 0.788 0.5854 1.936 1.0136 3.413 1.2727 1.32 0.2484 2.279 0.551 2.931 0.926 0.683 0.3943 1.037 0.9582 1.053 1.6775 0 0.6244-0.354 1.142-1.054 1.5413-0.669 0.3842-1.497 0.579-2.46 0.579-0.817 0-1.559-0.1155-2.206-0.3452-0.644-0.2283-1.278-0.5872-1.881-1.0668-0.298-0.2343-0.78-0.2251-1.098 0.0596-0.168 0.1486-0.25 0.3086-0.25 0.4892 0 0.237 0.128 0.4461 0.39 0.6395z"/>
<path d="m313.4 61.591c0.175 0.1462 0.395 0.2182 0.671 0.2182 0.275 0 0.495-0.072 0.671-0.2182 0.173-0.1435 0.257-0.3122 0.257-0.5139v-10.836h4.132c0.263 0 0.471-0.0601 0.634-0.1848 0.153-0.1174 0.227-0.2774 0.227-0.4896 0-0.2146-0.075-0.3787-0.231-0.502-0.162-0.1298-0.369-0.1921-0.63-0.1921h-10.099c-0.262 0-0.468 0.0623-0.63 0.1921-0.156 0.1238-0.231 0.2819-0.231 0.4823 0 0.2136 0.075 0.3782 0.231 0.5015 0.161 0.1293 0.368 0.1926 0.63 0.1926h4.111v10.836c0 0.2022 0.084 0.3709 0.257 0.5139z"/>
<path d="m335.87 49.073c-0.161-0.1339-0.366-0.1994-0.626-0.1994h-7.691c-0.244 0-0.445 0.0706-0.613 0.2155-0.168 0.1439-0.249 0.3126-0.249 0.5166v11.472c0 0.2036 0.081 0.3728 0.248 0.5158 0.169 0.1453 0.37 0.2159 0.614 0.2159h7.691c0.261 0 0.467-0.0623 0.629-0.1921 0.156-0.1242 0.232-0.2819 0.232-0.4832 0-0.1921-0.079-0.3557-0.24-0.4983-0.162-0.1449-0.365-0.2146-0.621-0.2146h-6.763v-4.557h5.767c0.263 0 0.472-0.0596 0.635-0.1847 0.152-0.1179 0.228-0.2774 0.228-0.4901 0-0.2031-0.077-0.364-0.234-0.4951-0.163-0.1339-0.369-0.1995-0.629-0.1995h-5.767v-4.2333h6.763c0.26 0 0.467-0.0633 0.63-0.1926 0.155-0.1242 0.231-0.2815 0.231-0.4832 0-0.2155-0.076-0.3828-0.235-0.513z"/>
<path d="m352.11 54.005c-0.221 0.4103-0.512 0.7417-0.867 0.9856-0.363 0.249-0.751 0.3893-1.155 0.4163l-5.052 9e-4h-0.2v-5.1456h5.171c0.673 0 1.254 0.2333 1.726 0.6941 0.468 0.4566 0.705 1.0186 0.705 1.6701 0 0.5057-0.111 0.9687-0.328 1.3786zm0.098-4.6515c-0.631-0.3182-1.334-0.4791-2.09-0.4791h-6.21c-0.244 0-0.444 0.0706-0.614 0.2155-0.167 0.144-0.248 0.3131-0.248 0.5162v11.472c0 0.1972 0.095 0.3631 0.291 0.5057 0.209 0.1522 0.453 0.226 0.747 0.226 0.225 0 0.401-0.0651 0.54-0.199 0.142-0.1375 0.212-0.3122 0.212-0.5327v-4.4529h4.662c0.75 0 1.37 0.1655 1.845 0.4928 0.492 0.3365 0.741 0.8569 0.741 1.5477 0 0.9018 0.134 1.5895 0.398 2.0438 0.259 0.4479 0.596 0.7734 1.001 0.9706 0.328 0.1723 0.883 0.1852 1.215-0.0271 0.145-0.0921 0.215-0.2365 0.215-0.4424 0-0.1063-0.034-0.209-0.105-0.3159-0.074-0.1109-0.17-0.2003-0.293-0.2759-0.282-0.1275-0.481-0.3544-0.569-0.6648-0.077-0.27-0.144-0.7629-0.204-1.5033-0.028-0.5396-0.193-1.0136-0.487-1.4148-0.297-0.402-0.706-0.7193-1.215-0.9434l-0.365-0.1619 0.366-0.1609c0.655-0.2879 1.201-0.7298 1.622-1.3135 0.418-0.5813 0.63-1.2167 0.63-1.8879 0-0.6973-0.191-1.3341-0.568-1.8915-0.376-0.5593-0.887-1.004-1.517-1.3236z"/>
<path d="m361.23 60.388c0.73 0.5671 1.504 0.9816 2.304 1.2328 0.802 0.2517 1.739 0.3796 2.785 0.3796 0.954 0 1.843-0.155 2.639-0.4607 0.789-0.3022 1.42-0.7308 1.875-1.2732 0.449-0.535 0.677-1.1557 0.677-1.8475 0-0.795-0.188-1.4442-0.561-1.9301-0.373-0.4878-0.914-0.8766-1.607-1.1535-0.709-0.2842-1.644-0.5354-2.777-0.7473-1.17-0.2324-2.065-0.5221-2.662-0.8605-0.641-0.3626-0.966-0.893-0.966-1.5766 0-0.6304 0.324-1.1443 0.962-1.5266 0.612-0.3659 1.441-0.5515 2.463-0.5515 0.641 0 1.32 0.1182 2.015 0.3525 0.698 0.2347 1.256 0.5286 1.659 0.8729 0.088 0.0678 0.212 0.1036 0.37 0.1036 0.228 0 0.417-0.0697 0.578-0.2141 0.162-0.1435 0.24-0.3003 0.24-0.4795 0-0.2375-0.142-0.4589-0.437-0.679-0.484-0.4048-1.123-0.7303-1.905-0.9756-0.785-0.2453-1.633-0.37-2.52-0.37-0.985 0-1.881 0.1486-2.663 0.442-0.772 0.2897-1.383 0.7083-1.816 1.2415-0.429 0.5295-0.646 1.1557-0.646 1.8604 0 1.0292 0.377 1.8095 1.153 2.3876 0.789 0.5854 1.938 1.0136 3.414 1.2727 1.321 0.2484 2.279 0.551 2.931 0.926 0.682 0.3943 1.037 0.9582 1.053 1.6775 0 0.6244-0.354 1.142-1.053 1.5413-0.671 0.3842-1.499 0.579-2.461 0.579-0.817 0-1.558-0.1155-2.206-0.3452-0.643-0.2278-1.277-0.5863-1.881-1.0668-0.297-0.2343-0.779-0.2251-1.098 0.0596-0.168 0.149-0.25 0.309-0.25 0.4892 0 0.2365 0.127 0.4456 0.391 0.6395z"/>
<path d="m34.489 20.908c-0.0306-6e-3 -0.0379-0.0077-0.0082-2e-3 0.0028 6e-4 0.0051 0.0013 0.0082 2e-3zm-1.1118-0.203c0.0571 0.0108 0.0625 0.0122-0.0264-0.0028l0.0264 0.0028zm0.0229-0.1448c-0.0077-0.0406-0.0164-0.0831-0.0294-0.132 0.0204 0.0504 0.039 0.0965 0.0578 0.1432-0.0095-0.0038-0.0187-0.0074-0.0284-0.0112zm0.0721 0.119c-0.0174-0.0051-0.0358-0.0107-0.0561-0.0165-0.0013-0.0106-0.0029-0.0216-0.0045-0.0328 0.0153 0.0039 0.0307 0.0078 0.0452 0.0115 0.0054 0.0133 0.01 0.0249 0.0154 0.0378zm0.0406-0.0699c-0.0309-0.0128-0.0585-0.0242-0.0827-0.0342 2e-4 3e-4 3e-4 6e-4 3e-4 9e-4 -0.0068-3e-3 -0.0158-0.0064-0.0222-0.0094 0.0076 0.0028 0.0116 0.0045 0.0187 0.0073-0.0062-0.0026-0.0103-0.0043-0.0161-0.0067 0.0058 0.0021 0.0129 5e-3 0.019 0.0072 0 3e-4 2e-4 4e-4 3e-4 7e-4 0.0363 0.0139 0.0682 0.0262 0.0929 0.0359 0.0292 0.0117 0.0601 0.0242 0.0944 0.0387-0.0381-0.0143-0.0726-0.0276-0.1002-0.0386-4e-4 -1e-4 -7e-4 -3e-4 -0.0011-4e-4 -0.0802-0.0317-0.1034-0.0424-0.0033-0.0014zm1.4638 5.5326c-0.6597 0.0086-1.5391 0.0284-4.5567 0.3876 1.3464-0.4248 2.3548-0.3129 3.4614-0.514 0.4641-0.1234-3.5698 0.1785-0.8008-0.2664 0.9601-0.0916 0.9143 0.0329 1.4911-0.0896 1.7681-0.2337-1.7873 0.0872 0.1877-0.1608-1.8547 0.1977-4.0251 0.1587-4.3881-0.0417-0.0777 0.0355-0.0779 0.0355-0.2975 0.0569-1.4166 0.0761-1.123-0.0964-1.3456-0.1865 0 0 0.359 0.0203 0.5222 0.0296-2.5459-0.9432-2.9293-3.5002-0.8794-3.043l0.7292 0.58c-0.3073-0.272 0.1965-0.0308 0.4023 0.1613l0.1038 0.0972c0.1493 0.1256 0.2578 0.2199 0.3154 0.2703 0.0127 0.0148 0.0235 0.0274 0.0364 0.0429-0.0166 0.1115-0.0717 0.5956-0.3299 0.7999-0.2844 0.1148 0.3205 0.2511 0.3324 0.3072l0.517 0.2611c0.0668 0.0338 0.2777 0.1403 0.4505 0.2275 0.0745-0.0925 0.3411-0.4172 0.3903-0.8844-0.4486-1.1193-0.9283-2.5694-1.4719-4.0167 1.078 0.0546 1.0786-0.0107 2.6596 0.3068-1.1048-0.1837-0.0505 0.0593 0.5514 0.1798 0.1734 0.1618 0.3537 0.378 0.5049 0.5891l-0.039-0.0669c-0.1238-0.1613-0.0816-0.2407-0.101-0.4579 0.0246 0.0034 0.047 0.0065 0.0662 9e-3 0.3658 0.907 0.4341 1.0762 0.6063 1.5031 0.187 0.3099-0.0868-0.3644-0.3926-1.5197 0.1992 0.0503 0.2278 0.0559 0.1795 0.0389-0.0144-0.0045-0.0274-0.0088-0.0389-0.0125l0.0092 0.0024c-0.0051-0.0017-0.0105-0.0036-0.0163-0.0055-0.0232-0.0077-0.0501-0.0169-0.0798-0.0269-0.0061-0.0021-0.0125-0.0043-0.0187-0.0064-6e-4 -3e-4 -0.0013-5e-4 -0.0019-8e-4 -1e-3 -4e-4 -0.0021-8e-4 -0.0029-1e-3 8e-4 4e-4 0.0016 6e-4 0.0026 1e-3 -0.0091-0.0033-0.0183-0.0063-0.0276-0.0097-4e-3 -0.0013-0.0076-0.0027-0.0116-0.0041-1e-4 -2e-4 -2e-4 -2e-4 -4e-4 -2e-4 -0.0239-0.0088-0.0471-0.0173-0.0691-0.0257 0.0172 0.0058 0.0297 0.0101 0.0458 0.0154 0.0056 0.0021 0.0135 0.0051 0.0235 0.0089-2e-4 -1e-4 -2e-4 -3e-4 -2e-4 -4e-4 -0.0038-0.0014-0.0077-3e-3 -0.0114-0.0046 0.0037 0.0013 0.0072 0.0025 0.0111 0.0038-0.1-0.3795-0.2029-0.809-0.294-1.2726-0.6419-1.5565-0.6378-1.4167-1.2206-2.4327-0.8021-3.2158 0.9627 1.7985 0.788 0.1696 0.5525 2.0518 0.4441 1.932 0.9436 3.6078l0.0537 0.0142c-0.1721-1.0367 0.0304-0.9252-0.077-2.1239 0.18 0.8038 0.3265 1.5666 0.4362 2.2192l0.246 0.0652c-0.039-8e-3 -0.0928-0.0192-0.1708-0.0354 0.0202 0.0049 0.0443 0.0103 0.0677 0.0155-0.0433-0.0087-0.09-0.0194-0.1406-0.032 0.1854 1.1036 0.2659 1.8875 0.2265 2.0067-0.5211-1.3642-0.0769-0.0077-0.0261 0.1953-0.0142-0.0343-0.0286-0.0682-0.0434-0.1017l0.0183 0.0486c0.0093 0.0214 0.0185 0.0428 0.0272 0.0632 0.0018 0.0081 0.0024 0.0127 0.0015 0.0129l0.1667 0.4425c-0.0022-0.0083-0.0042-0.0153-0.0064-0.0238-0.0314-0.0937-0.0625-0.1824-0.0936-0.2646 0.0652 0.1667 0.1106 0.306 0.1497 0.4452 0.029 0.0923 0.0422 0.1355 0.0726 0.274 4e-3 0.0147 0.0073 0.0282 0.0112 0.0433 0.0033 0.0111 0.0126 0.0556 0.0219 0.1006-0.0038-0.0143-7e-3 -0.0259-0.0099-0.0373 0.0112 0.0532 0.0243 0.1154 0.0403 0.1925-0.025 0.0684 0.2073 0.5995 0.3058 1.056 0.0588 0.256 0.0072 0.0104-0.0177-0.1462-0.0104-0.1016-0.0174-0.1678-0.0238-0.2298 0.0068-0.0453 0.047 0.1136 0.0883 0.4094 0.0088 0.0692 0.0215 0.1688 0.039 0.3073l-0.2988 0.4767zm-5.0832-2.7527c-0.0377-0.0384-0.0942-0.0972-0.1863-0.1935-0.4223-0.4303-0.6992-0.8514 0.1863 0.1935zm2.9661-3.0096 0.0028 0.0015-0.0054-0.0028-0.0232-0.0124 0.0255 0.0136c4e-3 0.0019 0.0144 7e-3 0.0372 0.0187l-0.0369-0.0186zm0.0719 0.0345c0.0051 0.0022 0.0105 0.0045 0.0157 0.0069-3e-3 -0.0014-0.0059-0.0024-9e-3 -0.0038-0.0019-9e-4 -0.0046-0.0022-0.0067-0.0031zm0.0298 0.0962 8e-4 0.0012c-0.0423-0.0443-0.0696-0.073-0.092-0.0965 0.0104 0.0094 0.0198 0.0181 0.0264 0.0241 0.0184 0.0191 0.0391 0.042 0.0648 0.0712zm-0.1668-0.1679c0.0077 0.0043 0.0134 0.0076 0.0192 0.011l-0.0038-0.0016-0.0154-0.0094zm0.1707 0.1738 0.0121 0.0185c-0.1-0.0296-0.2075-0.0619-0.3221-0.0974 0.1135 0.0289 0.2147 0.0546 0.31 0.0789zm-7.2733-7.4857c0.0352 0.2197 0.0573 0.4005 0.068 0.5497-0.4861-0.5147-0.8575-1.006-0.8464-1.3001-0.2526-0.8814 1.1419 0.5423 1.5351 0.5769 0.0896 0.4046 1.2798 1.9002 0.2669 1.1145l1.6566 1.7209c1.6885 2.3784 3.5629 3.851 4.1412 4.4384l0.2385 0.1835c-0.0087-0.0064-0.0176-0.0125-0.0265-0.0188 0.0011 8e-4 0.0021 0.0016 0.0036 0.0027l-0.0435-0.0293c0.018 0.0127 0.0396 0.0282 0.0638 0.0458l-0.0583-0.0355c0.0178 0.0119 0.0364 0.0239 0.0549 0.0357l2e-4 1e-4c0.0064 0.0035 0.01 0.0056 0.0156 0.0087l0.0018 0.0012-0.0174-0.0099c0.0087 0.0056 0.0178 0.0113 0.0261 0.0164 0.0027 2e-3 0.0053 0.0038 0.0081 0.0059 0.0014 0.0011 0.0033 0.0025 0.0046 0.0035l-0.2174-0.0947-1.2054-0.5007c-0.6782-0.2757-1.3476-0.5334-1.9859-0.7879-0.4379-1.0687-0.9169-2.0834-1.4518-2.9013-0.1024 0.3022-0.3048 0.0164-0.5538-0.482 0.2028 0.025 0.3885 0.025 0.5432-0.0222-0.1061-0.0946-0.4796-0.4036-0.9284-0.8019-0.4478-0.9824-0.9497-2.0537-1.2934-1.7196zm9.1661 11.104c0.0161 0.0795 0.0281 0.1418 0 0zm-15.687-10.42 0.2856 0.443c-0.1372-0.2037-0.3443-0.3575-0.2856-0.443zm-0.3573-0.3941c0.0531 0.0061 0.0964 0.0097 0.1248 0.0089l0.0237 0.0391c-0.0473-0.0126-0.097-0.029-0.1485-0.048zm46.096 16.804c2.3754 0.3502-0.3982 1.4761 3.2891 2.3733 0.5983-0.6425 1.6526-0.0782 2.5755 0.4192-0.0865-0.9301-2.5597-0.9171-3.9934-1.5966 0.9478 0.2065 0.5664-1.2537 2.5136-0.4112 0.2853-0.6835-2.1138-1.186-1.5839-1.5977 0.9254 0.2072 2.114 0.4775 3.3301 0.6052-0.7794-0.1768 0.3164-0.7251 0.4093-0.8586-0.4703 0.0698-1.9584-0.4889-1.3975 0.209-1.8113-0.3842 0.1592-1.4456-1.4025-1.5631 2.1789 0.1174 0.5253-1.237 1.4344-1.8205-5.0585-0.1491 1.8892 1.2701-2.2797 1.2297-0.8368-0.456-0.8501-1.0954-0.9412-1.8035-0.0453-0.3524-0.11-0.7195-0.3048-1.0681-0.0974-0.1741-0.2272-0.3434-0.403-0.5024-0.0882-0.0796-0.1873-0.1565-0.3001-0.2302l-0.1789-0.108-0.0974-0.0519-0.0254-0.0128-0.1726-1.3251-0.0034-5e-4 -0.0066-0.0011-0.0132-0.0021-0.0543-0.0078c0.8327-0.7428 1.9059-0.3041 3.718-0.7182l0.1458 0.0776c0.0195 0.0137 0.0543 0.0384 0.0543 0.0384l0.0015 0.0011 0.2249 1.7486 0.0026 0.0053 0.0049 0.0105 0.0096 0.021 0.0168 0.0414c0.0416 0.1093 0.0558 0.2107 0.0519 0.3058-0.0075 0.1905-0.0877 0.3557-0.1658 0.5149-0.1566 0.3201-0.3048 0.6093 0.1393 1.074 0.4484-0.5021 0.5393-1.1947 0.3125-1.8261l-0.0461-0.1175-0.0126-0.0291-0.0064-0.0145-0.2296-1.7826-2e-3 -0.0017-0.0039-0.0032-0.0319-0.0258-0.1449-0.0985c-0.1053-0.0629-0.2281-0.1205-0.3676-0.171-0.2788-0.1011-0.6235-0.1741-1.0265-0.2075-0.3331-0.5275 4.8515-1.4187 3.4667-1.9024-1.5827 0.3464-1.9606 0.3912-2.5115 0.6993-0.6479-0.1918 0.0129-0.1281-0.2437-0.9721-1.1228-0.1714-0.9552 1.139-2.0861 0.4816 0.2066-0.3581 0.1952-1.0824 1.3178-1.1939l0.1944 0.1104c-2.1348-1.5866 3.1995-2.6674-0.5425-3.5033-0.6862 0.4244 0.4536 0.4535 0.153 1.064-1.0471 0.6957-3.1593 0.2283-3.9701-0.2099 1.0755-0.3042-0.106-0.6874-0.0439-1.3049 1.4608-1.1361 1.1407 0.9979 2.4019 0.8026l-0.4994-1.5763-0.0923 0.426s-0.6134-0.2133-1.2109-0.3634c-0.5603-0.0379-1.1206-0.0757-1.1206-0.0757 0.9972 0.3963-1.7724 1.347-2.1487 1.2042-0.1141-0.7649-0.2863-1.5569 1.4813-2.5617-1.7801 0.9855-2.3047 0.2038-3.0914-0.0495-0.1202 0.9695-1.3437 1.0624-1.9752 1.314 0 0 0.2357-0.4918 0.4711-0.9834 0.2107-0.4775 0.4216-0.9549 0.4216-0.9549 1.2337 0.3763 1.2297-1.2693 2.4615-1.9575 1.8655-1.0951 1.5951 0.20993 1.7944 0.90548 2.0674-3.3401-2.8428-0.1585-2.2355-1.9688 0.6918-0.60837 1.5729-1.2438 1.7932-0.76412 0.3137-0.5602-2.1056 0.47586-1.8905-0.72769-0.3005 0.58056-1.3643 2.0737-2.4425 2.1614l0.8924-2.1845c-0.5252-1.0533-1.9498 1.4472-3.2994 1.781l-0.6341 1.4247c-1.3865 1.3902-0.8049-0.54505-2.2437 1.0804 0.2881 0.2851 1.6255-0.8705 1.57-0.0983-1.3137 1.629-1.218 0.4668-2.1724 1.2015-0.1298-1.1647 0.0751-1.1143 0.5265-2.7985 1.954-2.6147 3.6043-2.4626 6.2338-5.7948-1.4102-0.25823-3.464-0.33199-3.4496-1.7122-1.4668 0.34022-2.7039 2.5651-3.5917 4.1891-0.5114 0.13473-0.518-0.17912-0.4894-0.68735l0.9247-0.70511c-1.5773 0.39544-2.6372 1.1042-3.6212 0.60132-0.8269 0.28878-1.3946 2.1071-1.9314 3.4977l-0.6963 0.12559-0.0858 0.39648c-0.9729 1.8179-1.1265 1.0511-1.4472 0.86911 0.3324-0.81532 0.6299-0.93373 0.8221-1.442-0.0335-0.79532-0.6286-0.77586-1.1906-0.03264 0.2975-0.82991 1.2286-2.5929 1.4287-1.8856-0.0595 0.19857-0.1536 0.51268-0.2146 0.71725l1.1373-0.83801c-1.2141 0.73514-0.8735-1.5026-0.1327-3.473-1.2581 0.73409-0.0687 2.2581-1.3624 2.6901-0.0756-4.3232-2.7984 0.51281-2.1832-5.3568-1.0076 1.0096-2.2116 2.8916-3.2701 2.9174-0.2453 1.7316-0.7804 0.59479-0.9387 2.7443 0.509 2.353 2.316-3.1638 2.4372 0.1641 0.5703-0.70511 0.7708-2.1771 1.1781-3.052 0.4254-0.05496 0.751 0.22103 0.5196 1.2767-1.1294 0.86438-1.283 4.0624-2.2503 3.9297-0.1924 1.476 0.6503 1.103 0.8756 1.5632-0.3033 0.7609-0.4455 1.6938-0.4417 2.3852-0.5911 1.3195-1.3034 2.4072-1.7657 3.5536 0.254-0.7738 0.2295-1.2647 0.3959-1.7148 0 0-0.3147 0.5691-0.6293 1.138-0.2899 0.5871-0.58 1.1742-0.58 1.1742-0.0016-1.0712 0.1325-2.345 0.427-3.2558-0.3859-0.5742-1.39 1.6808-1.0975-0.9207-0.622 0.3431 0.0274 1.5589-0.0388 2.2947l-0.0602 0.1263 0.577-0.1474c-0.378 3-0.5264-0.7905-0.9506 2.0688-0.6051 5.4819-0.471-1.8503-0.9702-0.9444l0.3006-1.9801c0.1804-0.9829 0.361-1.9659 0.361-1.9659l-0.4888 0.8619c0.3173-1.5388 0.454-4.1689 1.0659-5.7254-0.7444-0.20236-1.9727-1.3449-2.4962-0.61137-0.257-1.3404-0.4365-2.6122-0.3898-3.9498-0.7877 2.4905-1.5975-1.2277-2.6485-1.1362-0.7404 1.5923 1.2407 1.8622 0.8083 3.8882-0.3584-0.86307-0.6957-0.25249-0.8689 0.19139 0.2632-0.42938 1.2699 0.61633 1.8371 1.1739-0.4443-0.0205-0.176 1.913-0.1851 2.7243 0 0 0.66 0.32585 0.6528 0.34583 0.1811 2.3774-0.7048 0.27154-0.8201 1.517-0.1329-2.1544-0.2464-2.2077-0.3279-4.3646-0.5126 0.95237-1.3292 1.0747-2.1875-0.1389-0.535-0.7991 0.0142-1.0951 0.0753-1.7198-0.4979-1.4183-0.4767 0.96882-1.0589-0.77992-0.2247-1.324 0.4143-0.20522 0.5706-0.63943 0 0-0.5815-0.06985-1.163-0.13983-0.6362 0.00588-1.2722 0.01176-1.2722 0.01176-0.2921-0.82587 0.2517-1.2737 0.7389-1.055-1.0188-0.76882-1.5753-0.10131-1.2367 2.9228-1.0536-0.58866-2.5684-1.4059-2.8724-2.6686-0.1487 0.62939 0.4868 1.2648 0.8832 2.0639-1.3184 0.01788 0.1312 2.8978-0.3464 3.211l1.2685 1.1897c-1.7293-1.0184 1.3053 2.4211-0.0474 1.6734-0.8918-1.4738-2.0517-3.1085-3.2886-4.5496 0.8627 1.4872-0.5642 0.56111-0.9578 0.80224 1.302 1.2311 0.301 1.6799 1.9535 2.6912 0.2679 1.4594-1.6803 0.10104-0.5064 2.0469 0.6496 0.1615 0.9113 1.6537 2.0951 2.2915-0.0295 0.0467-0.0828 0.0747-0.1494 0.0914-0.1383-0.0784-0.3013-0.1927-0.4805-0.3042-0.4441-0.3039-1.0141-0.5641-1.1864-0.2189-0.6422-0.3397-1.3517-0.8115-1.9553-1.3408 0.3174-0.1167 1.2325 0.0835 0.0508-0.8389 0 0-0.1696 0.2664-0.3471 0.5562-0.0447-0.1188-0.0891-0.2498-0.133-0.3965-0.8509-0.6203-0.9394 0.242-1.1823 0.9897-0.624-0.0743-1.3269-0.1957-2.5797-0.8438 0.3733 0.3192 0.4897 0.5374 0.4633 0.6975-0.0577-0.093-0.0996-0.1837-0.1131-0.2728 0.0169 0.2301-0.0036 0.3893-0.0521 0.4972-0.1062 0.0718-0.2494 0.1275-0.3977 0.1792-0.5996-0.0873-1.6338-0.9048-2.1111-0.407l1.9598 1.4402c0.408 0.7131-1.0481-0.2218-0.9164 0.261 0.4146-0.0298 1.658 0.3006 2.2925 1.0769 0.2207 0.606 0.6938 1.247 0.4774 1.5055-0.8083-0.4949-0.992-0.9213-1.1126-1.2247 0 0-0.7073 0.5173-1.717-0.0043-0.5158-0.6672-0.2569-0.9992-1.1623-2.0122-1.4959 0.6743-0.7447-0.3615-2.8134-0.8439 2.5563 1.3568 0.3571 1.6212 0.5461 2.5676-1.0881-0.455-0.0541-0.6019-0.7185-1.1702-2.6542-0.5669-2.8277 0.1429-2.4734 0.9737 0.38647 0.8375 1.3089 1.7944 0.45777 2.4122-0.33412-0.1454-0.53577-0.4423-0.62811-0.5932 0.46389 0.9925-2.4082 0.8303-0.90705 1.7774-0.70382 0.6032-3.2807-0.6808-3.5272 0.5888 3.0604 0.2238-0.92865 1.3681 2.2967 1.9115l-2.039 0.6132c1.6826 0.9387 5.4731 0.4739 5.6409 1.7507-1.2973 1.104-5.3457-0.4903-7.108 0.1819l1.7573 0.4275-1.2876 0.6216-0.15134-0.1031c0.58972 0.4039 0.08422 1.1078-0.87618 1.1288-0.75034-0.0575-0.75585-0.5083-1.5023-0.5797 1.6303 0.563-4.3928 3.1144 0.64481 3.435-0.81674 0.4708-0.68033 1.301-2.2378 1.3862 2.1846 0.0859-0.37242 1.968 1.1464 2.2715-0.74861 0.0599-1.7837 0.8094-1.1016 1.1111 0.6567-0.72 1.5469-0.5204 2.8006-0.4249-1.4091 0.8006 0.25775 1.7781-2.1374 2.6495 1.62 0.3629 3.2884-0.4278 5.1215-0.7896-1.3417 0.8485-0.51071 2.1424-3.3863 2.8557 0.17643-0.5132 0.41098-1.557-1.4268-0.8082-0.74412 1.1076 0.90488 0.0951 1.4272 0.6198-0.52884 0.1196-1.5432 1.0164-2.3983 1.1762 0.44853 0.2832 0.70135 0.8342 0.51144 1.573 0.81601-1.3357 2.1793-0.2127 3.017-1.1507l-2.3773-0.0384c-0.59045-0.9439 1.4226-0.7533 1.9588-1.3631 1.315 1.4365 3.9912 0.0388 5.9452 0.805-0.34458 0.4478-0.80311 1.2461-0.7676 1.4303-0.41735-0.3939-2.8148 0.8281-3.0862 1.3442 2.5443-0.1716-0.31907 2.1701-0.22948 3.1901 0.13148-0.9508 1.8776-1.4609 2.584-1.5853 2.3459 0.5651-0.46853 1.0597-1.0104 2.359 1.0983 1.0959 1.1813 2.4389 1.6902 3.7512 0.25224 0.652 0.55174 1.2665 1.0075 1.7562 0.2276 0.2445 0.49405 0.4576 0.81033 0.6259 0.1583 0.0842 0.3288 0.157 0.5134 0.2169 0.0882 0.0247 0.1835 0.0512 0.2868 0.0799l0.1515 0.0323 0.0193 0.0036 0.0097 0.0019 0.0023 4e-4 1.3182 0.9549 0.0026-0.0011 0.0215-0.0087 0.0438-0.0185s0.0181-0.0325 0.0493-0.0893l0.0261-0.0471 0.0073-0.0131 0.0037-0.0068 0.0019-0.0035-1.2998-0.9478 0.0088-0.0355 0.0411-0.1641c0.0632-0.2386 0.1475-0.5567 0.232-0.875 0.1872-0.6261 0.3746-1.2522 0.3746-1.2522l-1.9631 1.2778c0.5436-1.8682 3.8938-3.3156 5.2666-4.0845-0.1154 0.1556-0.1162 0.3103-0.0719 0.4636l0.0918 0.2283 0.0544 0.1129 0.0266 0.056 0.0128 0.0281 3e-3 0.0069 0.0016 0.0035 0.9501 0.6905 2e-4 0.0011 3e-4 0.0085c0.0071 0.1817-0.0541 0.391-0.5521 0.8108l1.0908-0.4377c0.5559-0.8002-0.0148-0.6793 0.8751-1.3422-0.294 0.642-0.1275 1.3407-1.2752 2.1584 0.2033 0.2176 1.0085-0.1606 1.8003-1.2168 0.4846 0.1626-1.8685 2.174-2.6264 2.7539 0.2269 0.3179-1.0589 1.7906-1.5568 2.2118l0.6159 0.0804c-0.4918 0.4129-1.0728 1.1131-1.5671 1.5305-0.2452 0.8305 1.5236-0.9164 0.6283 0.6186 0.1812-0.225 1.3686-1.2965 1.4109-1.2728 1.5269 2.6396 1.1953 2.7701 3.612 4.1911l0.2783-1.3895c1.552-0.6223 1.5857-0.0117 1.6838 0.8286 0.1174 0.8554 0.2034 1.8641 1.5196 1.7738 1.5989-0.3198 2.5973-0.6593 3.2117-2.7383 0.9466-0.5537 0.6474 0.7008 0.7013 1.5633 0.9646-0.9748 2.6529-2.8277 3.1455-1.3931-0.7364 0.5316-1.3854 0.9858-2.0156 1.1554-0.4943 2.1403 1.81 0.8675 2.5236 2.0153 0.9395-0.8774 3.4677-3.0866 4.6514-4.9402-0.3106-1.7655 0.2196-4.2813 1.092-5.9945-0.2224 1.3369 0.951 1.3826 1.5137 2.3306-0.344 1.2632 1.3994 3.1517 0.0539 3.6786-0.4043-0.6717-0.5221-2.4912-1.0523-1.8326 0.242 1.3512 1.0789 2.9172 2.1023 4.1215-0.0495 0.6729-0.563 1.5379-1.1033 1.53 0.2917-0.5881 0.1209-0.9993 0.085-1.5362-1.8769 1.5117 0.3583 3.0979 0.1227 4.726 0.521-0.4079 1.5812-0.1719 1.214-1.1711 1.2773 2.8519 2.9154-2.1809 4.2953 0.2313-0.0127-0.3298-0.8013-1.319-0.1794-2.2108 1.0436-0.4634 1.2489 1.0608 1.8613 1.6476 0.174-0.9535 1.6428-1.9917 1.6028-1.5032 0.4759-0.9408-1.5448-2.9645-0.9939-4.5493-0.0241-2.2737 1.2753-0.658 1.7763-1.4244 1.3534 1.2467-0.4602 1.2495-0.604 2.0468 0 0 0.5242-0.3989 1.0486-0.7976 0.5142-0.4003 0.993-0.8168 0.993-0.8168 1.1133 0.8241 0.5142 2.1457-0.3449 2.0812 1.5197 1.0842 2.3034-0.6482 1.7809-2.3991 0.7385 0.1518 0.8504-0.3354 1.726 0.1192-0.0645 1.132 1.401 4 0.6508 4.8713-1.6598 0.4088-0.4605-2.4415-1.9464-2.3945l0.6441 1.7977c-0.9862-0.7948-0.8848 0.6865-1.5046 0.9932-0.5255-0.349-0.1542-0.661-0.019-0.985-1.1137 0.4621-2.2814-0.2851-2.5778 2.004 2.1863 1.2965 3.8098-1.6265 5.2864 0.0847 0 0 0.495-0.9019 0.9901-1.8038 0.4304-0.8967 0.861-1.7936 0.861-1.7936-0.4512-0.773-2.0499-1.6537-1.913-3.1131 1.3711 1.8685 2.7278 2.4174 3.9837 2.1815-1.675-1.8974 0.3767-2.7197-1.2484-4.1018 0.2679 1.2749-1.1037-0.3369-1.2623-0.477 0.7709-0.5866-1.1463-1.9654-0.7776-2.3235 1.768-0.3741 0.8376 1.3538 2.8616 1.2124 0.3756 1.0618 0.9855 3.5877 0.5435 5.0056 0.6577 0.8512 0.884-0.556 1.9263 0.0491-1.2007-0.7563-0.8901-2.0711-1.6555-2.2533 0.805-1.6013 0.4488-4.5729 1.2995-5.9311 2.449 2.8208-0.4271 3.8037 2.8657 6.8265 0.4404-1.0064-0.7852-2.3515-0.0044-2.5909 2.0419 1.2373 2.0088-1.1371 2.7989-2.0467l-1.2421-0.3854c-0.3479-0.9327 0.7812-1.036 1.3346-1.2843l0.2858 0.4167-0.1787-0.8243c0.1331 0.0021 0.2419 0.0641 0.3504 0.1525-0.5146-1.1264 1.4167-1.4888 1.4999-2.7576-1.5633-1.0339-0.6993 0.7936-1.2436 1.0564-0.4483-0.1384-1.7457 0.0769-2.4428-1.0306 0.905-0.9017-0.5021-2.8518 0.3334-3.8124l-0.732 0.032c-0.8715-0.9976-0.0036-1.0796 0.2737-1.6039 1.7952-0.2929 1.8202 1.9246 3.1706 1.894 1.1723 1.207-0.9598 0.9426 1.0016 2.277l2.7464 0.6468c-0.9623-1.3615 1.5923-0.8613 1.5273-1.5014l-1.3106-0.0619c-1.7518-1.0305-0.1525-0.7362 0.2363-0.8324l-2.8402-1.0349c-0.7833 0.3663 1.1726 2.0156-0.6442 1.6081-0.0715-1.5051-2.3528-2.3736-1.7348-3.5983 1.0811 0.4461 0.2581 0.4185 0.9683 0.9318 0.9754-0.0929-0.9599-1.5453 0.2665-1.8347 0.4714 0.664 1.1596 1.8415 2.921 1.9534l-1.856-1.3024c0.5066-0.1895 1.2453 0.285 1.3875 0.1741 0.6558-0.3217-2.2236-0.786-1.3011-1.3036 0.4697 0.0537 1.0757-0.0176 1.4967 0.274 0.5014-0.8597-0.487-0.6974-1.2019-1.864-0.2861 0.7439-3.5263-0.4375-3.6316-1.2058 0.7164-0.8607-0.9379-1.9471 2.0772-1.9221l-1.3038-0.7647c2.032 0.7482 0.873-0.4654 1.285-0.7044z" fill="#F9A21B"/>
</svg>
