<?xml version="1.0" encoding="UTF-8"?>
<svg fill="none" viewBox="0 0 45 38" xmlns="http://www.w3.org/2000/svg">
<path d="m21.358 12.633c-0.019-0.0037-0.0235-0.0047-5e-3 -0.0012 0.0017 4e-4 0.0031 8e-4 5e-3 0.0012zm-0.6885-0.1257c0.0354 0.0067 0.0387 0.0076-0.0163-0.0017l0.0163 0.0017zm0.0142-0.0896c-0.0048-0.0252-0.0101-0.0515-0.0182-0.0818 0.0126 0.0312 0.0241 0.0598 0.0358 0.0887-0.0059-0.0023-0.0116-0.0046-0.0176-0.0069zm0.0446 0.0737c-0.0108-0.0032-0.0222-0.0066-0.0347-0.0103-8e-4 -0.0065-0.0018-0.0133-0.0028-0.0203 0.0095 0.0025 0.019 0.0049 0.028 0.0071 0.0033 0.0083 0.0062 0.0155 0.0095 0.0235zm0.0252-0.0433c-0.0192-8e-3 -0.0362-0.015-0.0512-0.0212 1e-4 2e-4 2e-4 4e-4 2e-4 5e-4 -0.0043-0.0018-0.0098-0.0039-0.0138-0.0058 0.0047 0.0018 0.0072 0.0028 0.0116 0.0045-0.0038-0.0016-0.0064-0.0026-0.01-0.0041 0.0036 0.0013 8e-3 0.0031 0.0118 0.0045 0 1e-4 1e-4 2e-4 2e-4 4e-4 0.0224 0.0086 0.0422 0.0162 0.0575 0.0222 0.0181 0.0073 0.0372 0.015 0.0585 0.024-0.0236-0.0089-0.045-0.0171-0.0621-0.0239-2e-4 -1e-4 -4e-4 -2e-4 -7e-4 -3e-4 -0.0496-0.0196-0.064-0.0262-2e-3 -8e-4zm0.9065 3.4261c-0.4086 0.0053-0.9531 0.0176-2.8218 0.24 0.8338-0.2631 1.4582-0.1938 2.1435-0.3183 0.2874-0.0764-2.2107 0.1105-0.4959-0.165 0.5945-0.0566 0.5661 0.0204 0.9233-0.0554 1.095-0.1448-1.1067 0.054 0.1163-0.0996-1.1485 0.1224-2.4926 0.0983-2.7174-0.0258-0.0481 0.022-0.0482 0.022-0.1842 0.0352-0.8772 0.0472-0.6955-0.0597-0.8333-0.1155 0 0 0.2223 0.0126 0.3234 0.0183-1.5766-0.5841-1.814-2.1675-0.5446-1.8844l0.4516 0.3592c-0.1903-0.1685 0.1216-0.0191 0.2491 0.0999l0.0643 0.0602c0.0925 0.0778 0.1596 0.1361 0.1953 0.1673 0.0078 0.0093 0.0146 0.017 0.0226 0.0266-0.0104 0.0691-0.0445 0.3689-0.2044 0.4954-0.1761 0.071 0.1985 0.1554 0.2059 0.1902l0.3201 0.1617c0.0414 0.0209 0.172 0.0869 0.279 0.1409 0.0462-0.0573 0.2113-0.2584 0.2417-0.5477-0.2778-0.6931-0.5748-1.5911-0.9115-2.4874 0.6676 0.0338 0.6679-0.0066 1.647 0.19-0.6842-0.1137-0.0312 0.0367 0.3415 0.1113 0.1074 0.1003 0.219 0.2342 0.3127 0.3649l-0.0242-0.0415c-0.0767-0.0998-0.0505-0.149-0.0626-0.2835 0.0153 0.0021 0.0291 4e-3 0.0411 0.0056 0.2265 0.5616 0.2687 0.6664 0.3754 0.9307 0.1158 0.192-0.0538-0.2256-0.2431-0.941 0.1233 0.0311 0.141 0.0346 0.1111 0.0241-0.0089-0.0028-0.0169-0.0055-0.024-0.0078l0.0056 0.0015c-0.0031-0.0011-0.0064-0.0022-0.01-0.0034-0.0144-0.0048-0.0311-0.0104-0.0495-0.0167-0.0038-0.0013-0.0077-0.0026-0.0116-0.0039-3e-4 -2e-4 -8e-4 -3e-4 -0.0011-5e-4 -7e-4 -2e-4 -0.0013-5e-4 -0.0018-7e-4 5e-4 3e-4 9e-4 5e-4 0.0016 7e-4 -0.0057-2e-3 -0.0113-0.0039-0.0171-6e-3 -0.0025-8e-4 -0.0047-0.0017-0.0072-0.0026-1e-4 -1e-4 -1e-4 -1e-4 -2e-4 -1e-4 -0.0148-0.0055-0.0292-0.0107-0.0429-0.0159 0.0107 0.0036 0.0184 0.0062 0.0284 0.0096 0.0035 0.0012 0.0084 0.0031 0.0146 0.0055-1e-4 -1e-4 -1e-4 -2e-4 -1e-4 -3e-4 -0.0024-9e-4 -0.0048-0.0018-0.0071-0.0028 0.0023 8e-4 0.0045 0.0015 0.0069 0.0023-0.062-0.235-0.1257-0.501-0.1821-0.7881-0.3975-0.9639-0.395-0.8773-0.7558-1.5064-0.4968-1.9915 0.5961 1.1137 0.488 0.105 0.3421 1.2706 0.2749 1.1964 0.5843 2.2342l0.0332 0.0088c-0.1066-0.642 0.0188-0.573-0.0477-1.3153 0.1115 0.4978 0.2022 0.9701 0.2701 1.3743l0.1524 0.0403c-0.0242-0.0049-0.0575-0.0119-0.1058-0.0219 0.0125 0.0031 0.0274 0.0064 0.042 0.0096-0.0269-0.0054-0.0558-0.012-0.0871-0.0198 0.1148 0.6834 0.1646 1.1689 0.1402 1.2427-0.3226-0.8448-0.0476-0.0048-0.0162 0.1209-0.0087-0.0212-0.0176-0.0422-0.0268-0.0629l0.0113 0.03c0.0058 0.0133 0.0115 0.0266 0.0169 0.0392 0.0011 5e-3 0.0014 0.0078 9e-4 8e-3l0.1032 0.274c-0.0013-0.0051-0.0026-0.0095-0.0039-0.0148-0.0195-0.058-0.0387-0.1129-0.058-0.1638 0.0404 0.1032 0.0685 0.1895 0.0927 0.2756 0.018 0.0572 0.0261 0.084 0.045 0.1697 0.0024 0.0092 0.0045 0.0175 0.0069 0.0269 0.0021 0.0069 0.0078 0.0344 0.0136 0.0622-0.0024-0.0088-0.0043-0.016-0.0061-0.023 0.0069 0.0329 0.015 0.0715 0.0249 0.1192-0.0155 0.0423 0.1284 0.3712 0.1893 0.6539 0.0365 0.1586 0.0045 0.0065-0.0109-0.0905-0.0065-0.0629-0.0108-0.1039-0.0147-0.1423 0.0042-0.0281 0.0291 0.0703 0.0546 0.2535 0.0055 0.0429 0.0133 0.1045 0.0242 0.1903l-0.185 0.2952zm-3.1479-1.7046c-0.0233-0.0238-0.0583-0.0603-0.1153-0.1198-0.2615-0.2665-0.433-0.5273 0.1153 0.1198zm1.8368-1.8638 0.0017 9e-4 -0.0033-0.0017-0.0143-0.0076 0.0158 0.0084c0.0024 0.0012 0.0089 0.0043 0.0229 0.0115l-0.0228-0.0115zm0.0446 0.0214c0.0031 0.0014 0.0064 0.0028 0.0097 0.0043-0.0019-9e-4 -0.0037-0.0015-0.0056-0.0024-0.0012-5e-4 -0.0029-0.0013-0.0041-0.0019zm0.0184 0.0596 5e-4 7e-4c-0.0262-0.0274-0.0431-0.0452-0.057-0.0597 0.0065 0.0058 0.0123 0.0112 0.0163 0.0149 0.0114 0.0118 0.0243 0.026 0.0402 0.0441zm-0.1033-0.104c0.0048 0.0027 0.0083 0.0047 0.0119 0.0068l-0.0023-1e-3 -0.0096-0.0058zm0.1057 0.1076 0.0075 0.0115c-0.0619-0.0184-0.1285-0.0383-0.1994-0.0603 0.0703 0.0178 0.1329 0.0338 0.1919 0.0488zm-4.504-4.6356c0.0218 0.13606 0.0354 0.24803 0.0421 0.34043-0.301-0.31877-0.531-0.62299-0.5242-0.80513-0.1564-0.54579 0.7071 0.33583 0.9507 0.35725 0.0555 0.25054 0.7925 1.1767 0.1653 0.69018l1.0258 1.0657c1.0456 1.4728 2.2064 2.3847 2.5645 2.7485l0.1477 0.1136c-0.0054-0.0039-0.0109-0.0077-0.0165-0.0116 7e-4 5e-4 0.0014 1e-3 0.0023 0.0016l-0.027-0.0181c0.0112 0.0078 0.0245 0.0175 0.0395 0.0284l-0.036-0.022c0.011 0.0073 0.0225 0.0148 0.034 0.022l1e-4 1e-4c0.0039 0.0022 0.0062 0.0035 0.0097 0.0054l1e-3 8e-4 -0.0107-0.0062c0.0054 0.0035 0.011 0.0071 0.0161 0.0102 0.0017 0.0012 0.0033 0.0024 5e-3 0.0037 9e-4 6e-4 0.0021 0.0015 0.0029 0.0021l-0.1346-0.0587-0.7465-0.31c-0.4199-0.1707-0.8345-0.3303-1.2298-0.4879-0.2712-0.6618-0.5678-1.2902-0.899-1.7967-0.0634 0.18716-0.1887 0.01019-0.343-0.29848 0.1256 0.01552 0.2406 0.01552 0.3364-0.01374-0.0657-0.05853-0.297-0.24989-0.5749-0.49655-0.2773-0.60836-0.5881-1.2718-0.8009-1.0649zm5.6761 6.8763c0.0175 0.0878 0.01 0.0492 0 0zm-9.7142-6.4527 0.1768 0.27439c-0.085-0.1262-0.2132-0.22143-0.1768-0.27439zm-0.2213-0.24399c0.0328 0.00372 0.0597 0.00599 0.0773 0.0055l0.0146 0.02417c-0.0293-0.00776-0.0601-0.01795-0.0919-0.02967zm28.546 10.406c1.471 0.2168-0.2466 0.914 2.0368 1.4697 0.3705-0.3979 1.0234-0.0484 1.5949 0.2596-0.0536-0.576-1.5851-0.568-2.4729-0.9888 0.5869 0.1279 0.3507-0.7763 1.5565-0.2546 0.1767-0.4232-1.309-0.7344-0.9808-0.9894 0.5731 0.1283 1.3091 0.2957 2.0622 0.3748-0.4827-0.1095 0.1959-0.449 0.2534-0.5317-0.2912 0.0432-1.2127-0.3028-0.8654 0.1294-1.1217-0.2379 0.0986-0.8952-0.8685-0.9679 1.3493 0.0726 0.3253-0.766 0.8883-1.1274-3.1325-0.0924 1.1699 0.7865-1.4118 0.7615-0.5181-0.2824-0.5264-0.6783-0.5828-1.1168-0.0281-0.2182-0.0681-0.4456-0.1888-0.6614-0.0603-0.1079-0.1406-0.2127-0.2495-0.3112-0.0546-0.0492-0.116-0.0969-0.1859-0.1425l-0.1107-0.0669-0.0604-0.0322-0.0157-0.0079-0.1069-0.8206-0.0021-3e-4 -0.0041-6e-4 -0.0082-0.0013-0.0335-0.0049c0.5156-0.46 1.1802-0.1883 2.3023-0.4447l0.0904 0.048c0.012 0.0085 0.0335 0.0238 0.0335 0.0238l1e-3 7e-4 0.1393 1.0828 0.0016 0.0033 3e-3 0.0065 0.0059 0.013 0.0105 0.0257c0.0257 0.0676 0.0345 0.1305 0.0321 0.1893-0.0047 0.118-0.0543 0.2203-0.1027 0.3189-0.097 0.1982-0.1887 0.3773 0.0863 0.6651 0.2776-0.311 0.3339-0.7398 0.1935-1.1309l-0.0285-0.0727-0.0078-0.0181-4e-3 -9e-3 -0.1422-1.1038-0.0012-0.0011-0.0025-2e-3 -0.0197-0.0159-0.0897-0.061c-0.0653-0.039-0.1413-0.0747-0.2277-0.106-0.1726-0.0625-0.3861-0.1077-0.6356-0.1284-0.2063-0.3267 3.0043-0.8786 2.1468-1.1781-0.9802 0.2145-1.2142 0.2422-1.5553 0.433-0.4012-0.1187 8e-3 -0.0793-0.1509-0.602-0.6953-0.1061-0.5915 0.7054-1.2919 0.2983 0.128-0.2218 0.1209-0.6703 0.8161-0.7393l0.1204 0.0683c-1.322-0.98246 1.9813-1.6518-0.336-2.1694-0.4249 0.26283 0.2809 0.28086 0.0947 0.65889-0.6484 0.43082-1.9564 0.1414-2.4584-0.13 0.666-0.18837-0.0657-0.42565-0.0272-0.80805 0.9046-0.70351 0.7064 0.61798 1.4874 0.49704l-0.3093-0.97612-0.0572 0.26379s-0.3798-0.1321-0.7498-0.22507c-0.347-0.02345-0.694-0.04689-0.694-0.04689 0.6176 0.24545-1.0975 0.83416-1.3306 0.74572-0.0706-0.47368-0.1773-0.96408 0.9173-1.5864-1.1023 0.6103-1.4272 0.1262-1.9144-0.03064-0.0744 0.60036-0.8321 0.65792-1.2231 0.81371 0 0 0.146-0.30454 0.2918-0.60901 0.1304-0.29565 0.261-0.5913 0.261-0.5913 0.764 0.233 0.7616-0.78605 1.5243-1.2122 1.1552-0.67813 0.9878 0.13 1.1112 0.56074 1.2803-2.0684-1.7604-0.09814-1.3843-1.2192 0.4284-0.37674 0.974-0.77021 1.1104-0.47319 0.1943-0.34691-1.3039 0.29468-1.1707-0.45063-0.1861 0.35952-0.8448 1.2842-1.5125 1.3385l0.5526-1.3528c-0.3252-0.65226-1.2074 0.89617-2.0432 1.1029l-0.3927 0.88226c-0.8585 0.86084-0.4984-0.33753-1.3894 0.66908 0.1784 0.17656 1.0066-0.53908 0.9723-0.06088-0.8135 1.0088-0.7543 0.2891-1.3454 0.74402-0.0803-0.72122 0.0465-0.69002 0.3261-1.733 1.21-1.6192 2.232-1.525 3.8604-3.5885-0.8733-0.15991-2.1451-0.20558-2.1362-1.0603-0.9084 0.21068-1.6745 1.5884-2.2242 2.5942-0.3167 0.08343-0.3208-0.11092-0.3031-0.42565l0.5727-0.43665c-0.9769 0.24488-1.6332 0.68379-2.2425 0.37238-0.5121 0.17883-0.8636 1.3048-1.1961 2.166l-0.4311 0.07777-0.0532 0.24552c-0.6024 1.1258-0.6976 0.65089-0.8962 0.53819 0.2059-0.50488 0.3901-0.5782 0.5091-0.89293-0.0207-0.49251-0.3892-0.48047-0.7373-0.02021 0.1842-0.51394 0.7608-1.6057 0.8847-1.1676-0.0368 0.12297-0.095 0.31748-0.1328 0.44416l0.7042-0.51894c-0.7518 0.45524-0.5409-0.93053-0.0821-2.1507-0.7792 0.45459-0.0426 1.3984-0.8437 1.6659-0.0469-2.6772-1.733 0.31756-1.352-3.3172-0.624 0.62518-1.3695 1.7906-2.025 1.8066-0.1519 1.0723-0.4833 0.36833-0.5813 1.6994 0.3152 1.4572 1.4342-1.9592 1.5092 0.10162 0.3532-0.43664 0.4774-1.3482 0.7296-1.89 0.2634-0.03403 0.465 0.13687 0.3218 0.79059-0.6995 0.53527-0.7945 2.5156-1.3936 2.4335-0.1191 0.91404 0.4027 0.68306 0.5423 0.96804-0.1879 0.47117-0.2759 1.0489-0.2736 1.477-0.366 0.8171-0.8071 1.4907-1.0934 2.2006 0.1573-0.47917 0.1421-0.78314 0.2452-1.0619 0 0-0.1949 0.35241-0.3897 0.70473-0.1796 0.36356-0.3592 0.72712-0.3592 0.72712-1e-3 -0.66333 0.082-1.4521 0.2645-2.0162-0.239-0.35555-0.8609 1.0409-0.6797-0.57011-0.3852 0.21246 0.017 0.96537-0.0241 1.421l-0.0372 0.07818 0.3573-0.09128c-0.2341 1.8579-0.326-0.48951-0.5887 1.2812-0.3747 3.3947-0.2916-1.1458-0.6008-0.58484l0.1862-1.2262c0.1117-0.60868 0.2235-1.2174 0.2235-1.2174l-0.3027 0.53374c0.1965-0.95292 0.2812-2.5816 0.6601-3.5455-0.461-0.12531-1.2216-0.83287-1.5458-0.3786-0.1591-0.83004-0.2703-1.6176-0.2414-2.446-0.4878 1.5423-0.9893-0.76026-1.6401-0.70359-0.4585 0.98607 0.7683 1.1532 0.5006 2.4078-0.222-0.53447-0.4309-0.15636-0.5381 0.11852 0.163-0.2659 0.7864 0.38167 1.1376 0.72695-0.2751-0.01269-0.1089 1.1846-0.1146 1.6871 0 0 0.4087 0.20179 0.4042 0.21416 0.1122 1.4722-0.4364 0.16815-0.5078 0.93942-0.0823-1.3341-0.1526-1.3671-0.2031-2.7028-0.3174 0.58977-0.8231 0.66552-1.3546-0.08601-0.3313-0.49485 0.0088-0.67813 0.0467-1.065-0.3084-0.8783-0.2953 0.59995-0.6558-0.48297-0.1392-0.81993 0.2566-0.12708 0.3533-0.39597 0 0-0.36-0.04326-0.7201-0.08659-0.394 0.00364-0.7879 0.00728-0.7879 0.00728-0.1808-0.51143 0.1559-0.78873 0.4576-0.65331-0.6309-0.4761-0.9755-0.06274-0.7658 1.81-0.6525-0.36453-1.5905-0.87062-1.7788-1.6526-0.0921 0.38976 0.3015 0.78323 0.5469 1.2781-0.8164 0.01108 0.0813 1.7945-0.2144 1.9885l0.7855 0.73674c-1.0709-0.63067 0.8083 1.4993-0.0294 1.0363-0.5523-0.91266-1.2705-1.925-2.0365-2.8174 0.5343 0.92099-0.3494 0.34747-0.5931 0.4968 0.8063 0.76236 0.1864 1.0403 1.2097 1.6665 0.1659 0.90376-1.0406 0.06257-0.3136 1.2676 0.4023 0.10001 0.5643 1.0241 1.2974 1.4191-0.0182 0.02886-0.0513 0.04624-0.0925 0.05659-0.0856-0.04859-0.1866-0.11933-0.2976-0.18837-0.2749-0.18821-0.6279-0.34933-0.7347-0.13558-0.3976-0.21036-0.837-0.50253-1.2108-0.83028 0.1966-0.07227 0.7632 0.05166 0.0315-0.51951 0 0-0.105 0.16493-0.215 0.3444-0.0276-0.07356-0.0551-0.15465-0.0823-0.24552-0.527-0.3841-0.5817 0.14989-0.7322 0.61288-0.3864-0.046-0.8217-0.12118-1.5975-0.5225 0.2312 0.19767 0.3033 0.33276 0.2869 0.43188-0.0357-0.05756-0.0616-0.11375-0.07-0.16889 0.0104 0.14245-0.0022 0.24108-0.0323 0.30786-0.0657 0.04446-0.1544 0.07898-0.2462 0.111-0.3713-0.05409-1.0118-0.56034-1.3074-0.25207l1.2136 0.89188c0.2527 0.44157-0.649-0.13736-0.5674 0.16161 0.2567-0.01844 1.0267 0.18618 1.4196 0.66689 0.1367 0.37528 0.4297 0.77223 0.2957 0.93233-0.5006-0.30651-0.6144-0.57055-0.689-0.75843 0 0-0.438 0.3203-1.0633-0.00267-0.31941-0.4132-0.15908-0.61879-0.71979-1.2461-0.92636 0.41757-0.46116-0.22386-1.7422-0.52258 1.583 0.84022 0.22111 1.0039 0.33817 1.59-0.67383-0.28175-0.03349-0.3727-0.44491-0.72461-1.6436-0.35111-1.7511 0.08844-1.5317 0.60294 0.23934 0.51862 0.81055 1.1112 0.2835 1.4937-0.20692-0.09-0.33179-0.2739-0.38898-0.3673 0.28727 0.6146-1.4913 0.5141-0.5617 1.1007-0.43584 0.3735-2.0316-0.4216-2.1842 0.3646 1.8952 0.1386-0.57508 0.8472 1.4222 1.1837l-1.2626 0.3798c1.042 0.5812 3.3892 0.2934 3.4932 1.0841-0.80337 0.6836-3.3104-0.3037-4.4017 0.1126l1.0882 0.2648-0.79735 0.3849-0.09372-0.0639c0.36519 0.2501 0.05216 0.6861-0.54258 0.6991-0.46466-0.0357-0.46807-0.3148-0.9303-0.3591 1.0096 0.3487-2.7203 1.9287 0.3993 2.1272-0.50577 0.2916-0.4213 0.8057-1.3858 0.8584 1.3529 0.0532-0.23062 1.2187 0.70991 1.4067-0.46358 0.0371-1.1046 0.5012-0.68218 0.688 0.40666-0.4458 0.95796-0.3222 1.7343-0.2631-0.87258 0.4958 0.15962 1.1011-1.3236 1.6407 1.0032 0.2248 2.0364-0.2649 3.1715-0.4889-0.83083 0.5254-0.31626 1.3267-2.097 1.7684 0.10925-0.3178 0.2545-0.9642-0.88354-0.5005-0.4608 0.6859 0.56036 0.0589 0.88381 0.3838-0.32749 0.0741-0.95562 0.6294-1.4852 0.7284 0.27775 0.1754 0.43432 0.5166 0.31672 0.9741 0.50532-0.8272 1.3495-0.1317 1.8683-0.7126l-1.4722-0.0238c-0.36564-0.5845 0.88093-0.4664 1.213-0.8441 0.81432 0.8896 2.4716 0.024 3.6816 0.4985-0.21339 0.2773-0.49733 0.7717-0.47534 0.8858-0.25845-0.2439-1.7431 0.5128-1.9112 0.8323 1.5756-0.1062-0.19759 1.3439-0.14211 1.9756 0.08143-0.5888 1.1627-0.9047 1.6002-0.9817 1.4527 0.3499-0.29014 0.6562-0.62571 1.4608 0.68012 0.6787 0.73155 1.5103 1.0466 2.323 0.15621 0.4037 0.34167 0.7842 0.62392 1.0875 0.14094 0.1514 0.30594 0.2833 0.50182 0.3876 0.09803 0.0521 0.2036 0.0972 0.31788 0.1343 0.05467 0.0153 0.11365 0.0317 0.17766 0.0495l0.09381 0.02 0.01194 0.0022 0.00601 0.0012 0.00144 2e-4 0.8163 0.5914 0.00161-7e-4 0.01329-0.0054 0.02711-0.0115s0.01122-0.0201 0.03052-0.0553l0.01616-0.0291 0.00458-0.0081 0.00224-0.0042 0.00117-0.0022-0.80489-0.5869 0.00547-0.022 0.02541-0.1017c0.03914-0.1477 0.09139-0.3447 0.14372-0.5418 0.1159-0.3877 0.23197-0.7754 0.23197-0.7754l-1.2157 0.7913c0.33665-1.1569 2.4113-2.0533 3.2614-2.5294-0.07146 0.0963-0.072 0.1921-0.04453 0.287l0.05683 0.1414 0.03366 0.07 0.01652 0.0347 0.0079 0.0173 0.00189 0.0043 9.8e-4 0.0022 0.58833 0.4276 1e-4 6e-4 2e-4 0.0053c0.0044 0.1125-0.0335 0.2421-0.34184 0.5021l0.67544-0.271c0.3443-0.4955-0.0092-0.4207 0.542-0.8312-0.1821 0.3976-0.079 0.8303-0.7898 1.3366 0.126 0.1348 0.6246-0.0994 1.1149-0.7535 0.3001 0.1007-1.1571 1.3463-1.6264 1.7054 0.14049 0.1968-0.65578 1.1088-0.96406 1.3696l0.38135 0.0498c-0.3045 0.2558-0.66431 0.6893-0.97043 0.9478-0.1518 0.5143 0.9435-0.5675 0.38907 0.3831 0.11221-0.1394 0.84753-0.8029 0.87375-0.7882 0.94561 1.6346 0.74021 1.7154 2.2367 2.5953l0.1724-0.8604c0.9611-0.3854 0.9819-0.0073 1.0427 0.5131 0.0727 0.5297 0.1259 1.1544 0.941 1.0985 0.9902-0.1981 1.6084-0.4083 1.9889-1.6957 0.5862-0.3429 0.4009 0.4339 0.4343 0.9681 0.5973-0.6037 1.6428-1.7511 1.9479-0.8627-0.4561 0.3292-0.858 0.6104-1.2482 0.7155-0.3061 1.3253 1.1209 0.5372 1.5627 1.248 0.5818-0.5434 2.1474-1.9115 2.8804-3.0593-0.1923-1.0933 0.136-2.6512 0.6763-3.7122-0.1377 0.8279 0.5889 0.8562 0.9374 1.4433-0.213 0.7822 0.8665 1.9517 0.0334 2.278-0.2504-0.416-0.3234-1.5427-0.6517-1.1349 0.1499 0.8368 0.6681 1.8065 1.3019 2.5523-0.0307 0.4167-0.3487 0.9524-0.6833 0.9474 0.1807-0.3641 0.0749-0.6188 0.0526-0.9513-1.1622 0.9362 0.222 1.9185 0.0761 2.9267 0.3226-0.2526 0.9791-0.1065 0.7517-0.7253 0.791 1.7661 1.8054-1.3505 2.66 0.1433-0.0079-0.2042-0.4963-0.8168-0.1112-1.369 0.6463-0.287 0.7734 0.6568 1.1527 1.0202 0.1077-0.5905 1.0173-1.2333 0.9925-0.9308 0.2947-0.5827-0.9566-1.8358-0.6155-2.8172-0.0149-1.408 0.7898-0.4075 1.1-0.8821 0.8381 0.772-0.2849 0.7737-0.374 1.2675 0 0 0.3246-0.247 0.6493-0.4939 0.3185-0.2479 0.615-0.5059 0.615-0.5059 0.6894 0.5104 0.3184 1.3288-0.2136 1.2889 0.9411 0.6714 1.4264-0.4014 1.1029-1.4857 0.4573 0.094 0.5266-0.2077 1.0688 0.0738-0.04 0.701 0.8675 2.4771 0.403 3.0166-1.0278 0.2532-0.2852-1.5119-1.2053-1.4828l0.3988 1.1132c-0.6107-0.4922-0.5479 0.4252-0.9317 0.6151-0.3254-0.2161-0.0955-0.4093-0.0118-0.61-0.6897 0.2862-1.4128-0.1766-1.5963 1.241 1.3539 0.8029 2.3592-1.0072 3.2736 0.0524 0 0 0.3066-0.5584 0.6132-1.117 0.2665-0.5552 0.5331-1.1106 0.5331-1.1106-0.2793-0.4787-1.2693-1.0241-1.1846-1.9279 0.8491 1.1571 1.6892 1.497 2.4669 1.351-1.0372-1.175 0.2333-1.6843-0.773-2.5401 0.1659 0.7894-0.6835-0.2087-0.7817-0.2954 0.4774-0.3633-0.7099-1.2171-0.4816-1.4389 1.0949-0.2316 0.5187 0.8384 1.7721 0.7508 0.2326 0.6575 0.6103 2.2217 0.3366 3.0998 0.4073 0.5271 0.5474-0.3444 1.1929 0.0304-0.7436-0.4684-0.5512-1.2826-1.0252-1.3954 0.4985-0.9916 0.2779-2.8318 0.8047-3.6729 1.5166 1.7468-0.2645 2.3555 1.7746 4.2274 0.2727-0.6232-0.4862-1.4562-0.0027-1.6045 1.2644 0.7663 1.244-0.7041 1.7332-1.2674l-0.7691-0.2386c-0.2155-0.5777 0.4837-0.6416 0.8264-0.7954l0.177 0.2581-0.1107-0.5105c0.0825 0.0013 0.1499 0.0397 0.217 0.0945-0.3187-0.6976 0.8774-0.922 0.9289-1.7077-0.9681-0.6402-0.4331 0.4914-0.7702 0.6542-0.2775-0.0857-1.081 0.0476-1.5127-0.6382 0.5604-0.5584-0.3109-1.766 0.2065-2.3609l-0.4533 0.0198c-0.5397-0.6178-0.0022-0.6685 0.1695-0.9932 1.1116-0.1814 1.1272 1.1918 1.9634 1.1729 0.726 0.7474-0.5944 0.5837 0.6202 1.41l1.7008 0.4006c-0.5959-0.8431 0.986-0.5334 0.9458-0.9298l-0.8116-0.0383c-1.0848-0.6381-0.0945-0.4559 0.1463-0.5155l-1.7588-0.6409c-0.485 0.2269 0.7262 1.2482-0.399 0.9959-0.0442-0.9321-1.457-1.4699-1.0743-2.2283 0.6696 0.2762 0.1599 0.2591 0.5997 0.577 0.604-0.0575-0.5944-0.9569 0.165-1.1362 0.292 0.4112 0.7181 1.1404 1.8089 1.2097l-1.1493-0.8065c0.3136-0.1174 0.7711 0.1765 0.8592 0.1078 0.4061-0.1992-1.377-0.4867-0.8057-0.8073 0.2908 0.0333 0.6661-0.0109 0.9268 0.1697 0.3105-0.5323-0.3016-0.4318-0.7443-1.1543-0.1771 0.4607-2.1837-0.2709-2.2489-0.7467 0.4437-0.533-0.5808-1.2058 1.2863-1.1902l-0.8074-0.4736c1.2584 0.4633 0.5406-0.2882 0.7958-0.4362z" fill="#FAA21E"/>
</svg>
