<?xml version="1.0" encoding="UTF-8"?>
<svg fill="none" viewBox="0 0 22 17" xmlns="http://www.w3.org/2000/svg">
<path d="m20.043 6.7099h-18.261c-0.98388 0-1.7816 0.80122-1.7816 1.7903 0 0.98821 0.79815 1.7894 1.7816 1.7894h18.261c0.9839 0 1.7816-0.80117 1.7816-1.7894 0-0.9891-0.7977-1.7903-1.7816-1.7903zm-18.261-3.131h18.261c0.9839 0 1.7816-0.80166 1.7816-1.7894 0-0.98911-0.7968-1.7894-1.7807-1.7894h-18.262c-0.98343 0-1.7816 0.80032-1.7816 1.7894 0 0.98776 0.79815 1.7894 1.7816 1.7894zm18.261 9.8414h-18.261c-0.98388 0-1.7816 0.8012-1.7816 1.7903 0 0.9882 0.79815 1.7894 1.7816 1.7894h18.261c0.9839 0 1.7816-0.8012 1.7816-1.7894 0-0.9891-0.7977-1.7903-1.7816-1.7903z" fill="#fff"/>
</svg>
