<?xml version="1.0" encoding="UTF-8"?>
<svg viewBox="0 0 151 25" xmlns="http://www.w3.org/2000/svg">
<path d="m51.532 0.36839c0.125 0.11277 0.1878 0.25566 0.1878 0.42777v12.738c0 0.1725-0.0663 0.3152-0.1989 0.4278-0.1326 0.1129-0.2948 0.1691-0.4861 0.1691-0.2065 0-0.3757-0.0562-0.5083-0.1691-0.1326-0.1126-0.1989-0.2553-0.1989-0.4278v-10.946l-5.1934 7.0852c-0.1476 0.17266-0.317 0.25216-0.5085 0.23866h-0.0441c-0.1767 0-0.3391-0.07949-0.4861-0.23866l-5.1934-7.1249v10.986c0 0.1725-0.0628 0.3152-0.1878 0.4278-0.1255 0.1129-0.2839 0.1691-0.4752 0.1691-0.1916 0-0.3463-0.0562-0.4642-0.1691-0.118-0.1126-0.1767-0.2553-0.1767-0.4278v-12.738c0-0.15917 0.0624-0.29837 0.1878-0.41779 0.125-0.11942 0.2835-0.17913 0.4752-0.17913 0.1029 0 0.2133 0.023293 0.3315 0.069693 0.1177 0.046585 0.2061 0.10944 0.265 0.18893l5.7902 7.8217 5.8343-7.8217c0.1619-0.19891 0.3609-0.28524 0.5967-0.25862 0.1768 0 0.3278 0.056569 0.4531 0.16915z" fill="#070000"/>
<path d="m58.261 8.9363h6.1439l-3.0941-6.8066-3.0498 6.8066zm9.6354 4.6371c0 0.1726-0.0661 0.3118-0.1987 0.4179-0.1324 0.1063-0.2872 0.1592-0.464 0.1592-0.1476 0-0.2763-0.0362-0.3869-0.1094-0.1106-0.0727-0.1952-0.1692-0.2541-0.2886l-1.6574-3.642h-7.1825l-1.6352 3.642c-0.1183 0.2655-0.317 0.398-0.5968 0.398-0.2065 0-0.361-0.0462-0.4641-0.1392-0.1032-0.0928-0.1622-0.2189-0.1767-0.3782v-0.0597c0-0.0797 0.0071-0.1394 0.0221-0.1792l5.8343-12.857c0.1176-0.26509 0.3387-0.39801 0.6628-0.39801 0.1472 0 0.2763 0.036604 0.3868 0.10944 0.1104 0.073021 0.195 0.16933 0.2541 0.28857l5.8123 12.797c0.0292 0.1063 0.044 0.186 0.044 0.2389z" fill="#070000"/>
<path d="m77.753 7.0854c0.5157-0.03993 0.9946-0.19226 1.4365-0.4579 0.442-0.2651 0.7957-0.62336 1.0609-1.0746 0.2652-0.45087 0.3978-0.9683 0.3978-1.5523 0-0.75627-0.2839-1.3833-0.8509-1.8808-0.5673-0.49765-1.3076-0.74629-2.2208-0.74629h-5.1273v5.7119h5.3038zm4.9284 6.4682c0 0.0667-0.0297 0.1527-0.0884 0.2588-0.0592 0.093-0.1403 0.166-0.2431 0.2189-0.1032 0.053-0.2137 0.0796-0.3317 0.0796-0.1472 0-0.2726-0.0266-0.3757-0.0796-0.4126-0.2121-0.7441-0.5572-0.9943-1.0349-0.2507-0.4777-0.3759-1.2404-0.3759-2.2888 0-0.92853-0.2871-1.5822-0.8617-1.9604-0.5748-0.37804-1.2598-0.56716-2.0552-0.56716h-4.9062v5.3538c0 0.1725-0.059 0.3152-0.1768 0.4278-0.118 0.1129-0.2728 0.1691-0.4641 0.1691-0.2065 0-0.3833-0.0562-0.5304-0.1691-0.1474-0.1126-0.2209-0.2553-0.2209-0.4278v-12.738c0-0.17211 0.0626-0.315 0.1878-0.42777 0.1248-0.11258 0.2835-0.16915 0.475-0.16915h5.9671c0.8398 0 1.5911 0.16268 2.2541 0.48767 0.6631 0.32517 1.1824 0.77291 1.558 1.3432 0.3757 0.57067 0.5635 1.2142 0.5635 1.9307 0 0.84907-0.2469 1.5956-0.7402 2.2389-0.4939 0.64368-1.1382 1.0846-1.9339 1.3234 0.6483 0.2259 1.1787 0.60709 1.5913 1.1445 0.4124 0.53739 0.6261 1.1911 0.6409 1.9603 0.0143 0.8228 0.0774 1.3999 0.1878 1.7314 0.1104 0.3318 0.2907 0.5642 0.5415 0.6967 0.2209 0.1327 0.3315 0.2986 0.3315 0.4975z" fill="#070000"/>
<path d="m87.477 13.952c-0.1326 0.1194-0.2949 0.1791-0.4863 0.1791-0.2065 0-0.3723-0.0563-0.4971-0.1691-0.1253-0.1128-0.1879-0.2618-0.1879-0.4479v-12.698c0-0.1856 0.0663-0.33478 0.199-0.44774 0.1324-0.11258 0.3017-0.16915 0.5082-0.16915 0.1913 0 0.3537 0.059894 0.4861 0.17913 0.1326 0.1196 0.1989 0.26565 0.1989 0.43775v12.698c-0.0148 0.1724-0.0883 0.3185-0.2209 0.4379z" fill="#070000"/>
<path d="m104.04 7.2745c0.125 0.11295 0.188 0.25567 0.188 0.42777v4.7966c0 0.2258-0.11 0.4049-0.331 0.5374-0.663 0.4115-1.4 0.7297-2.21 0.9552s-1.636 0.3383-2.4752 0.3383c-1.5029 0-2.8585-0.3117-4.0665-0.9354-1.2083-0.6235-2.1585-1.4791-2.8509-2.5672-0.6925-1.0879-1.0384-2.3087-1.0384-3.6621 0-1.3534 0.3459-2.574 1.0384-3.6619 0.6924-1.0877 1.6426-1.9436 2.8509-2.5674 1.208-0.62354 2.5636-0.93558 4.0665-0.93558 0.7806 0 1.5362 0.086515 2.2652 0.25899 0.729 0.17248 1.381 0.41797 1.956 0.7363 0.206 0.11942 0.309 0.28542 0.309 0.49764 0 0.17248-0.063 0.31834-0.188 0.43776-0.125 0.11923-0.269 0.17913-0.431 0.17913-0.147 0-0.28-0.03291-0.397-0.09964-1.105-0.54387-2.277-0.81598-3.5142-0.81598-1.2526 0-2.3759 0.2588-3.3702 0.77623-0.9946 0.51743-1.7717 1.2308-2.3317 2.1396-0.56 0.90897-0.8398 1.9274-0.8398 3.0548 0 1.128 0.2798 2.1464 0.8398 3.055 0.56 0.909 1.3371 1.622 2.3317 2.1395 0.9943 0.5176 2.1176 0.7762 3.3702 0.7762 0.6332 0 1.2702-0.0797 1.9112-0.2389 0.641-0.1591 1.212-0.3782 1.713-0.6568v-3.9405h-3.4916c-0.1918 0-0.3537-0.05638-0.4863-0.16915-0.1326-0.11258-0.1989-0.25529-0.1989-0.42814 0-0.1721 0.0663-0.31482 0.1989-0.42777 0.1326-0.11239 0.2945-0.16915 0.4863-0.16915h4.2206c0.192 0 0.35 0.05676 0.475 0.16915z" fill="#070000"/>
<path d="m119.69 4.0702c-0.509-0.90859-1.216-1.6151-2.122-2.1196-0.906-0.50394-1.941-0.75627-3.105-0.75627s-2.199 0.25233-3.105 0.75627c-0.906 0.50448-1.613 1.211-2.121 2.1196-0.509 0.90897-0.763 1.9405-0.763 3.0948 0 1.1543 0.254 2.186 0.763 3.0948 0.508 0.909 1.215 1.6155 2.121 2.1196 0.906 0.5045 1.941 0.7563 3.105 0.7563s2.199-0.2518 3.105-0.7563c0.906-0.5041 1.613-1.2106 2.122-2.1196 0.508-0.90879 0.762-1.9405 0.762-3.0948 0-1.1543-0.254-2.1858-0.762-3.0948zm1.226 6.7766c-0.633 1.0881-1.51 1.9405-2.63 2.5574-1.119 0.6171-2.394 0.9254-3.823 0.9254s-2.703-0.3083-3.823-0.9254c-1.12-0.6169-1.997-1.4693-2.63-2.5574-0.633-1.0879-0.95-2.315-0.95-3.6819 0-1.3798 0.317-2.6136 0.95-3.7017 0.633-1.0879 1.51-1.9372 2.63-2.5474 1.12-0.61023 2.394-0.9158 3.823-0.9158s2.704 0.30558 3.823 0.9158c1.12 0.61022 1.997 1.4595 2.63 2.5474 0.634 1.0881 0.951 2.3219 0.951 3.7017 0 1.3669-0.317 2.594-0.951 3.6819z" fill="#070000"/>
<path d="m134.47 13.116c0.125 0.1063 0.188 0.2455 0.188 0.418s-0.063 0.3152-0.188 0.4278c-0.125 0.1129-0.284 0.1691-0.475 0.1691h-7.89c-0.191 0-0.35-0.0562-0.475-0.1691-0.125-0.1126-0.188-0.2553-0.188-0.4278v-12.738c0-0.17211 0.067-0.315 0.199-0.42777 0.133-0.11258 0.302-0.16915 0.509-0.16915 0.191 0 0.353 0.056569 0.486 0.16915 0.132 0.11276 0.199 0.25566 0.199 0.42777v12.16h7.16c0.191 0 0.35 0.053 0.475 0.1591z" fill="#070000"/>
<path d="m147.68 11.354c0.869-1.0678 1.304-2.4644 1.304-4.1893 0-1.0748-0.185-2.0464-0.553-2.9158-0.368-0.86867-0.947-1.5652-1.735-2.0895-0.788-0.52408-1.779-0.78621-2.972-0.78621h-4.685v11.583h4.685c1.768 0 3.086-0.5341 3.956-1.6022zm-0.166-10.21c0.965 0.63038 1.687 1.4726 2.166 2.5274 0.478 1.0548 0.718 2.2191 0.718 3.493 0 1.3134-0.24 2.4945-0.718 3.5425-0.479 1.0483-1.201 1.8808-2.166 2.4978-0.965 0.6169-2.155 0.9254-3.569 0.9254h-5.635c-0.192 0-0.351-0.0563-0.476-0.1691s-0.188-0.2553-0.188-0.428v-12.737c0-0.17229 0.063-0.315 0.188-0.42796 0.125-0.11258 0.284-0.16915 0.476-0.16915h5.635c1.414 0 2.604 0.31537 3.569 0.94539z" fill="#070000"/>
<path d="m37.912 24.35c0.2945 0.2287 0.6065 0.3958 0.9294 0.4971 0.3231 0.1015 0.701 0.1531 1.1227 0.1531 0.3853 0 0.7435-0.0625 1.0647-0.1858 0.318-0.1218 0.5723-0.2947 0.7561-0.5133 0.1812-0.2158 0.273-0.4661 0.273-0.745 0-0.3206-0.076-0.5824-0.2262-0.7783-0.1509-0.1971-0.3691-0.3535-0.6481-0.4651-0.2864-0.1146-0.663-0.2159-1.12-0.3013-0.4715-0.0938-0.8326-0.2106-1.0736-0.347-0.2586-0.1463-0.3896-0.3601-0.3896-0.6358 0-0.2542 0.1308-0.4614 0.388-0.6156 0.2474-0.1475 0.5813-0.2223 0.9935-0.2223 0.2585 0 0.5317 0.0476 0.8123 0.1421 0.2816 0.0947 0.5068 0.2132 0.6688 0.3524 0.0355 0.0269 0.0854 0.0414 0.1498 0.0414 0.0916 0 0.1675-0.0281 0.233-0.0864 0.0649-0.0578 0.0963-0.1209 0.0963-0.1933 0-0.0958-0.0575-0.1851-0.1761-0.2738-0.1952-0.1632-0.4529-0.2945-0.768-0.3934-0.3167-0.0989-0.6587-0.1492-1.0161-0.1492-0.3972 0-0.7585 0.0599-1.074 0.1782-0.3116 0.1169-0.5579 0.2856-0.7322 0.5006-0.173 0.2139-0.2609 0.4663-0.2609 0.7502 0 0.415 0.1523 0.7297 0.4656 0.9628 0.3178 0.236 0.7808 0.4087 1.3761 0.5131 0.5325 0.1002 0.9191 0.2222 1.1822 0.3735 0.2749 0.1589 0.418 0.3863 0.4243 0.6764 0 0.2517-0.1427 0.4605-0.4247 0.6215-0.2699 0.1549-0.6041 0.2335-0.9921 0.2335-0.3292 0-0.6285-0.0466-0.8894-0.1392-0.2599-0.0921-0.5153-0.2369-0.7587-0.4302-0.1201-0.0945-0.3141-0.0908-0.4428 0.024-0.0675 0.0599-0.1006 0.1244-0.1006 0.1973 0 0.0955 0.0515 0.1798 0.1573 0.2578z" fill="#070000"/>
<path d="m49.329 23.386c-0.1838 0.3187-0.4436 0.5731-0.7733 0.7561-0.3295 0.1823-0.7078 0.2747-1.1247 0.2747s-0.7952-0.0924-1.1247-0.2747c-0.3291-0.1822-0.5889-0.4368-0.7733-0.7561-0.1833-0.3174-0.2763-0.6778-0.2763-1.071 0-0.3984 0.093-0.7615 0.2763-1.0791 0.1846-0.3194 0.4449-0.5725 0.7737-0.752 0.3291-0.1799 0.7074-0.2708 1.1243-0.2708 0.4173 0 0.7958 0.0924 1.1247 0.2747 0.3292 0.1828 0.5895 0.437 0.7733 0.7561 0.1837 0.3177 0.2767 0.678 0.2767 1.0711 0 0.393-0.093 0.7531-0.2767 1.071zm-0.3884-3.402c-0.4424-0.2351-0.9504-0.354-1.5096-0.354-0.559 0-1.0668 0.1189-1.5096 0.354-0.4424 0.2343-0.794 0.5589-1.0442 0.9643-0.2507 0.4056-0.3773 0.8653-0.3773 1.3667 0 0.5009 0.1266 0.9607 0.3773 1.3665 0.2502 0.4054 0.6018 0.73 1.0442 0.9644 0.443 0.2347 0.9506 0.3538 1.5096 0.3538 0.5592 0 1.0668-0.1191 1.5096-0.3538 0.4427-0.2346 0.794-0.5592 1.0442-0.9644 0.2506-0.4064 0.3777-0.8658 0.3777-1.3665 0-0.5008-0.1271-0.9606-0.3777-1.3667-0.2502-0.4051-0.6015-0.7297-1.0442-0.9643z" fill="#070000"/>
<path d="m53.779 19.795c-0.0713-0.0588-0.1542-0.0878-0.2527-0.0878-0.1102 0-0.1973 0.0286-0.2656 0.0871-0.0674 0.058-0.1 0.1262-0.1 0.2081v4.626c0 0.0824 0.0318 0.1505 0.0967 0.2087 0.065 0.0581 0.147 0.0863 0.251 0.0863h3.0118c0.1049 0 0.1878-0.0262 0.2531-0.0802 0.0634-0.053 0.0944-0.1183 0.0944-0.1996 0-0.0866-0.031-0.1544-0.0944-0.2071-0.0653-0.054-0.1482-0.0802-0.2531-0.0802h-2.6376v-4.3539c0-0.0813-0.034-0.1493-0.1036-0.2074z" fill="#070000"/>
<path d="m60.434 23.023 1.1557-2.3984 1.1661 2.3984h-2.3218zm3.7801 1.5214-2.2613-4.6672c-0.0257-0.066-0.0647-0.1115-0.1205-0.1434-0.0587-0.0339-0.1234-0.0499-0.1977-0.0499-0.0872-0.0085-0.1515 4e-3 -0.2102 0.038-0.0618 0.0361-0.1092 0.0877-0.1443 0.1568l-2.2715 4.7323c-0.0056 0.0384-0.0111 0.075-0.0111 0.0931 0 0.0773 0.0238 0.1355 0.0729 0.1781 0.0492 0.0423 0.1268 0.0637 0.2299 0.0637 0.0675 0 0.1274-0.0162 0.1829-0.0491 0.0533-0.032 0.0913-0.0775 0.1153-0.1398l0.5666-1.1818h2.8586l0.5733 1.1692c0.0341 0.0623 0.0809 0.1136 0.138 0.1498 0.1264 0.08 0.2921 0.0667 0.407-0.0285 0.0637-0.0523 0.0943-0.1177 0.0943-0.1996 0-0.0431-0.0074-0.0838-0.0222-0.1217z" fill="#070000"/>
<path d="m70.118 22.174c-0.1464 0.1003-0.303 0.1569-0.466 0.1676l-2.0371 4e-4h-0.0805v-2.0747h2.085c0.2717 0 0.5058 0.0939 0.696 0.2797 0.1889 0.1841 0.2843 0.4109 0.2843 0.6736 0 0.2037-0.0447 0.3906-0.1324 0.5559-0.0886 0.1653-0.2063 0.2991-0.3493 0.3975zm1.4798 2.508c0-0.0427-0.0138-0.0843-0.0425-0.1272-0.0296-0.0447-0.0684-0.081-0.1182-0.1115-0.1138-0.0512-0.1938-0.1427-0.2289-0.268-0.0316-0.1089-0.0585-0.3074-0.0827-0.606-0.0111-0.2178-0.0776-0.4087-0.1963-0.5705-0.1199-0.1621-0.2847-0.29-0.4898-0.3806l-0.1474-0.0651 0.1478-0.0651c0.264-0.116 0.4843-0.2943 0.6536-0.5294 0.169-0.2346 0.2544-0.4906 0.2544-0.7613 0-0.2813-0.077-0.5379-0.2289-0.7627-0.1519-0.2255-0.3582-0.405-0.6121-0.5337-0.2542-0.1283-0.5377-0.1934-0.8429-0.1934h-2.5037c-0.0983 0-0.1794 0.0285-0.2478 0.0871-0.0671 0.0579-0.1 0.1263-0.1 0.2082v4.6258c0 0.0796 0.0384 0.1464 0.1177 0.204 0.0839 0.0614 0.1825 0.0912 0.3011 0.0912 0.0905 0 0.162-0.0265 0.2178-0.0804 0.0573-0.0553 0.0854-0.1257 0.0854-0.2148v-1.7956h1.8799c0.3022 0 0.5524 0.0669 0.7439 0.1989 0.1983 0.1357 0.2989 0.3455 0.2989 0.6241 0 0.3636 0.054 0.6411 0.1601 0.8241 0.1049 0.1804 0.2408 0.3119 0.4038 0.3914 0.1326 0.0695 0.3561 0.0745 0.49-0.0111 0.0585-0.037 0.0868-0.0952 0.0868-0.1784z" fill="#070000"/>
<path d="m82.698 20.013c-0.4919-0.2387-1.0245-0.3594-1.5847-0.3594-0.5838 0-1.1184 0.1169-1.588 0.3474-0.4691 0.2298-0.8425 0.5507-1.1095 0.9537-0.2675 0.4024-0.4032 0.8603-0.4032 1.3608 0 0.5457 0.1412 1.0276 0.4202 1.4323 0.2786 0.4054 0.6577 0.7185 1.1257 0.9306 0.4703 0.2135 0.9935 0.3218 1.5548 0.3218 0.2705 0 0.5497-0.0329 0.8311-0.0974 0.2794-0.0642 0.5354-0.1523 0.761-0.2618 0.0538-0.0249 0.0958-0.059 0.1268-0.102 0.0302-0.0416 0.045-0.0853 0.045-0.1328 0-0.0702-0.029-0.1351-0.0879-0.1983-0.063-0.071-0.1445-0.1046-0.2504-0.1046-0.0702 0-0.1363 0.0129-0.1975 0.039-0.3615 0.1867-0.7767 0.2826-1.2281 0.2826-0.4381 0-0.8406-0.0839-1.1955-0.2496-0.357-0.1661-0.6409-0.4113-0.8437-0.7287-0.2022-0.3157-0.3046-0.6965-0.3046-1.1311 0-0.4043 0.0997-0.768 0.2955-1.0813 0.1965-0.3141 0.4753-0.5618 0.8289-0.7363 0.3521-0.1734 0.7624-0.2616 1.2194-0.2616 0.439 0 0.8533 0.0932 1.2316 0.2769 0.0645 0.0296 0.1332 0.045 0.203 0.045 0.0996 0 0.1747-0.0313 0.2312-0.0952 0.0603-0.0655 0.0893-0.133 0.0893-0.2078 0-0.1109-0.054-0.1879-0.1704-0.2422z" fill="#070000"/>
<path d="m90.042 23.386c-0.1839 0.3189-0.4436 0.5731-0.7731 0.7561-0.3296 0.1823-0.7079 0.2747-1.1246 0.2747-0.4168 0-0.7955-0.0924-1.1249-0.2747-0.3291-0.1826-0.5894-0.4372-0.7733-0.7561-0.1835-0.3174-0.2763-0.6778-0.2763-1.071 0-0.3984 0.0928-0.7615 0.2763-1.0791 0.1841-0.3191 0.4446-0.5723 0.7735-0.752 0.3292-0.1799 0.7075-0.2708 1.1247-0.2708 0.4169 0 0.7954 0.0924 1.1246 0.2747 0.3291 0.1824 0.5892 0.437 0.7731 0.7561 0.1837 0.3177 0.2767 0.678 0.2767 1.0711 0 0.393-0.093 0.7531-0.2767 1.071zm-0.3882-3.402c-0.4425-0.2351-0.9506-0.354-1.5095-0.354-0.5592 0-1.0671 0.1189-1.5096 0.354-0.4424 0.2343-0.794 0.5589-1.0443 0.9643-0.2504 0.4056-0.3775 0.8653-0.3775 1.3667 0 0.5009 0.1271 0.9607 0.3775 1.3665 0.2503 0.4054 0.6019 0.73 1.0443 0.9644 0.4427 0.2347 0.9504 0.3538 1.5096 0.3538 0.5589 0 1.0666-0.1191 1.5095-0.3538 0.4428-0.235 0.7942-0.5596 1.0443-0.9644 0.2506-0.4064 0.3775-0.8661 0.3775-1.3665 0-0.5008-0.1269-0.9606-0.3775-1.3667-0.2501-0.4049-0.6015-0.7295-1.0443-0.9643z" fill="#070000"/>
<path d="m98.936 24.839c0.0685 0.0566 0.1553 0.0839 0.2666 0.0839 0.1098 0 0.1946-0.0282 0.2595-0.0863 0.065-0.0577 0.0965-0.1261 0.0965-0.2089v-4.6337c0-0.0814-0.0323-0.1479-0.0988-0.2034-0.0696-0.0575-0.1519-0.0874-0.2523-0.0919-0.1133 0-0.2089 0.0459-0.2884 0.14l-2.2032 2.8323-2.1777-2.8347c-0.0327-0.0399-0.0784-0.0738-0.1347-0.0991-0.157-0.0712-0.3212-0.0444-0.4286 0.0519-0.0681 0.0605-0.101 0.1274-0.101 0.2049v4.6337c0 0.0886 0.0287 0.1586 0.0887 0.2141 0.0589 0.0545 0.1349 0.0811 0.2317 0.0811 0.1031 0 0.1819-0.0266 0.2412-0.0813 0.0596-0.0553 0.0887-0.1253 0.0887-0.2139v-3.8518l1.8842 2.5169c0.031 0.0333 0.0752 0.0658 0.1277 0.0917 0.0482 0.0237 0.0926 0.0338 0.1371 0.03 0.0682 0.0044 0.1127-0.0059 0.1606-0.0298 0.0527-0.0261 0.097-0.0586 0.1324-0.0972l1.8712-2.4376v3.7778c0 0.0871 0.0325 0.156 0.0986 0.2113z" fill="#070000"/>
<path d="m105.97 21.78c-0.086 0.1582-0.204 0.2873-0.351 0.383-0.149 0.0984-0.315 0.1479-0.492 0.1479h-1.756v-2.0442h1.756c0.266 0 0.498 0.0998 0.688 0.2969 0.188 0.1937 0.283 0.4324 0.283 0.7097 0 0.1793-0.043 0.3497-0.128 0.5067zm-0.012-1.8653c-0.253-0.1377-0.532-0.2076-0.831-0.2076h-2.068c-0.098 0-0.179 0.0285-0.247 0.0871-0.067 0.0579-0.1 0.1261-0.1 0.2082v4.6258c0 0.0885 0.029 0.1584 0.089 0.2138 0.059 0.0546 0.138 0.0814 0.24 0.0814 0.098 0 0.175-0.0279 0.237-0.0852 0.063-0.0581 0.093-0.127 0.093-0.21v-1.7651h1.756c0.298 0 0.578-0.071 0.831-0.2113 0.254-0.1407 0.459-0.3352 0.609-0.5782 0.15-0.2431 0.226-0.5123 0.226-0.8003 0-0.2873-0.076-0.5533-0.226-0.7912-0.15-0.2381-0.355-0.4293-0.609-0.5674z" fill="#070000"/>
<path d="m114.05 23.386c-0.183 0.3187-0.443 0.5729-0.773 0.7561-0.329 0.1823-0.708 0.2747-1.125 0.2747s-0.795-0.0924-1.124-0.2747c-0.329-0.1826-0.59-0.4372-0.774-0.7561-0.183-0.3179-0.276-0.6784-0.276-1.071 0-0.3979 0.093-0.7609 0.276-1.0791 0.184-0.3194 0.445-0.5723 0.774-0.752 0.329-0.1799 0.707-0.2708 1.124-0.2708s0.796 0.0924 1.125 0.2747c0.33 0.1828 0.59 0.4372 0.773 0.7561 0.184 0.3181 0.277 0.6786 0.277 1.0711 0 0.3926-0.093 0.7529-0.277 1.071zm-0.388-3.402c-0.443-0.2351-0.951-0.354-1.51-0.354-0.558 0-1.066 0.1189-1.509 0.354-0.442 0.2343-0.794 0.5589-1.044 0.9643-0.251 0.4056-0.378 0.8653-0.378 1.3667 0 0.5009 0.127 0.9607 0.378 1.3665 0.25 0.4054 0.602 0.73 1.044 0.9644 0.443 0.2347 0.951 0.3538 1.509 0.3538 0.559 0 1.067-0.1191 1.51-0.3538 0.443-0.2346 0.794-0.5592 1.044-0.9644 0.251-0.4064 0.378-0.8658 0.378-1.3665 0-0.5008-0.127-0.9606-0.378-1.3667-0.25-0.4051-0.601-0.7297-1.044-0.9643z" fill="#070000"/>
<path d="m117.64 24.35c0.295 0.2287 0.606 0.3958 0.929 0.4971 0.323 0.1015 0.701 0.1531 1.123 0.1531 0.385 0 0.743-0.0625 1.065-0.1858 0.318-0.1218 0.572-0.2947 0.756-0.5133 0.181-0.2158 0.273-0.4661 0.273-0.745 0-0.3206-0.076-0.5824-0.226-0.7783-0.151-0.1971-0.369-0.3535-0.649-0.4651-0.286-0.1146-0.663-0.2159-1.119-0.3013-0.472-0.0938-0.833-0.2106-1.074-0.347-0.259-0.1463-0.39-0.3601-0.39-0.6358 0-0.2542 0.131-0.4614 0.388-0.6156 0.248-0.1475 0.582-0.2223 0.994-0.2223 0.258 0 0.531 0.0476 0.812 0.1421 0.282 0.095 0.507 0.2135 0.669 0.3524 0.035 0.0269 0.085 0.0414 0.15 0.0414 0.091 0 0.167-0.0281 0.233-0.0864 0.065-0.0578 0.096-0.1209 0.096-0.1933 0-0.0958-0.057-0.1851-0.176-0.2738-0.195-0.1632-0.453-0.2945-0.768-0.3934-0.317-0.0989-0.659-0.1492-1.016-0.1492-0.397 0-0.758 0.0599-1.074 0.1782-0.312 0.1169-0.558 0.2856-0.732 0.5006-0.173 0.2139-0.261 0.4663-0.261 0.7502 0 0.415 0.152 0.7297 0.465 0.9628 0.318 0.236 0.781 0.4087 1.376 0.5131 0.533 0.1002 0.919 0.2222 1.183 0.3735 0.275 0.1589 0.418 0.3863 0.424 0.6764 0 0.2517-0.143 0.4605-0.425 0.6215-0.27 0.1549-0.604 0.2335-0.992 0.2335-0.329 0-0.628-0.0466-0.889-0.1392-0.26-0.0921-0.516-0.2369-0.759-0.4302-0.12-0.0945-0.314-0.0908-0.443 0.024-0.067 0.0599-0.1 0.1244-0.1 0.1973 0 0.0955 0.051 0.1798 0.157 0.2578z" fill="#070000"/>
<path d="m126.23 24.836c0.071 0.059 0.159 0.088 0.271 0.088 0.111 0 0.199-0.029 0.27-0.088 0.07-0.0579 0.104-0.1259 0.104-0.2072v-4.3692h1.666c0.106 0 0.19-0.0243 0.256-0.0745 0.062-0.0474 0.091-0.1119 0.091-0.1975 0-0.0865-0.03-0.1527-0.093-0.2024-0.065-0.0523-0.148-0.0775-0.254-0.0775h-4.072c-0.106 0-0.189 0.0252-0.254 0.0775-0.063 0.0499-0.093 0.1137-0.093 0.1945 0 0.0861 0.03 0.1525 0.093 0.2022 0.065 0.0521 0.148 0.0777 0.254 0.0777h1.658v4.3692c0 0.0815 0.033 0.1495 0.103 0.2072z" fill="#070000"/>
<path d="m135.29 19.788c-0.065-0.054-0.148-0.0804-0.253-0.0804h-3.101c-0.099 0-0.18 0.0285-0.247 0.0869-0.068 0.058-0.101 0.1261-0.101 0.2083v4.626c0 0.0821 0.033 0.1503 0.1 0.208 0.068 0.0586 0.149 0.087 0.248 0.087h3.101c0.106 0 0.189-0.0251 0.254-0.0774 0.063-0.0501 0.093-0.1137 0.093-0.1949 0-0.0774-0.031-0.1434-0.097-0.2009-0.065-0.0584-0.147-0.0865-0.25-0.0865h-2.727v-1.8375h2.326c0.106 0 0.19-0.0241 0.256-0.0745 0.061-0.0476 0.091-0.1119 0.091-0.1977 0-0.0819-0.031-0.1467-0.094-0.1996-0.065-0.054-0.149-0.0804-0.253-0.0804h-2.326v-1.707h2.727c0.105 0 0.189-0.0256 0.254-0.0777 0.063-0.0501 0.093-0.1135 0.093-0.1948 0-0.0869-0.03-0.1544-0.094-0.2069z" fill="#070000"/>
<path d="m141.84 21.776c-0.089 0.1655-0.206 0.2991-0.349 0.3975-0.147 0.1004-0.303 0.1569-0.466 0.1678l-2.037 4e-4h-0.081v-2.0749h2.085c0.272 0 0.506 0.0941 0.696 0.2799 0.189 0.1841 0.285 0.4108 0.285 0.6734 0 0.2039-0.045 0.3907-0.133 0.5559zm0.04-1.8756c-0.255-0.1283-0.538-0.1932-0.843-0.1932h-2.504c-0.098 0-0.179 0.0285-0.248 0.0869-0.067 0.0581-0.1 0.1263-0.1 0.2082v4.626c0 0.0794 0.039 0.1464 0.118 0.2039 0.084 0.0613 0.182 0.0911 0.301 0.0911 0.091 0 0.162-0.0263 0.218-0.0802 0.057-0.0555 0.085-0.1259 0.085-0.2148v-1.7956h1.88c0.302 0 0.553 0.0667 0.744 0.1987 0.199 0.1357 0.299 0.3455 0.299 0.6241 0 0.3636 0.054 0.6409 0.16 0.8241 0.105 0.1806 0.241 0.3119 0.404 0.3914 0.132 0.0695 0.356 0.0747 0.49-0.0109 0.058-0.0372 0.087-0.0954 0.087-0.1784 0-0.0429-0.014-0.0843-0.043-0.1274-0.029-0.0447-0.068-0.0808-0.118-0.1113-0.114-0.0514-0.194-0.1429-0.229-0.268-0.031-0.1089-0.058-0.3076-0.083-0.6062-0.011-0.2176-0.077-0.4087-0.196-0.5705-0.12-0.1621-0.285-0.29-0.49-0.3804l-0.147-0.0653 0.148-0.0649c0.264-0.1161 0.484-0.2943 0.653-0.5296 0.169-0.2344 0.255-0.4906 0.255-0.7613 0-0.2811-0.077-0.5379-0.229-0.7627-0.152-0.2255-0.358-0.4048-0.612-0.5337z" fill="#070000"/>
<path d="m145.52 24.35c0.295 0.2287 0.607 0.3958 0.93 0.4971 0.323 0.1015 0.701 0.1531 1.122 0.1531 0.385 0 0.744-0.0625 1.065-0.1858 0.318-0.1218 0.572-0.2947 0.756-0.5133 0.181-0.2158 0.273-0.4661 0.273-0.745 0-0.3206-0.076-0.5824-0.226-0.7783-0.151-0.1967-0.369-0.3535-0.648-0.4651-0.286-0.1146-0.663-0.2159-1.12-0.3013-0.472-0.0938-0.833-0.2106-1.074-0.347-0.258-0.1463-0.389-0.3601-0.389-0.6358 0-0.2542 0.13-0.4614 0.388-0.6156 0.247-0.1475 0.581-0.2223 0.993-0.2223 0.258 0 0.532 0.0476 0.813 0.1421 0.281 0.0947 0.506 0.2132 0.668 0.352 0.036 0.0273 0.086 0.0418 0.15 0.0418 0.092 0 0.168-0.0281 0.233-0.0864 0.065-0.0578 0.097-0.121 0.097-0.1933 0-0.0958-0.058-0.1851-0.177-0.2738-0.195-0.1632-0.452-0.2945-0.768-0.3934s-0.658-0.1492-1.016-0.1492c-0.397 0-0.759 0.0599-1.074 0.1782-0.311 0.1169-0.558 0.2856-0.732 0.5006-0.173 0.2135-0.261 0.4661-0.261 0.7502 0 0.415 0.153 0.7297 0.465 0.9628 0.319 0.236 0.782 0.4087 1.377 0.5131 0.532 0.1002 0.919 0.2222 1.182 0.3735 0.275 0.1589 0.418 0.3863 0.424 0.6764 0 0.2517-0.142 0.4605-0.424 0.6215-0.271 0.1549-0.605 0.2335-0.993 0.2335-0.329 0-0.628-0.0466-0.889-0.1392-0.259-0.0919-0.515-0.2365-0.759-0.4302-0.119-0.0945-0.314-0.0908-0.442 0.024-0.068 0.0601-0.101 0.1246-0.101 0.1973 0 0.0953 0.051 0.1796 0.157 0.2578z" fill="#070000"/>
<path d="m13.907 8.4301c-0.0123-0.00242-0.0152-0.0031-0.0033-7.8e-4 0.0012 2.6e-4 0.0021 5.2e-4 0.0033 7.8e-4zm-0.4483-0.08185c0.0231 0.00436 0.0252 0.00494-0.0106-0.00111l0.0106 0.00111zm0.0093-0.05838c-0.0031-0.01638-0.0066-0.03348-0.0119-0.05322 0.0082 0.02032 0.0157 0.0389 0.0233 0.05774-0.0038-0.00152-0.0075-3e-3 -0.0114-0.00452zm0.029 0.048c-7e-3 -0.00205-0.0144-0.00431-0.0226-0.00668-5e-4 -0.00426-0.0012-0.00869-0.0018-0.01321 0.0062 0.00158 0.0124 0.00316 0.0182 0.00463 0.0022 0.00537 0.0041 0.01005 0.0062 0.01526zm0.0164-0.02821c-0.0125-0.00516-0.0236-0.00974-0.0333-0.01379 0 1.6e-4 1e-4 2.6e-4 1e-4 3.7e-4 -0.0028-0.00122-0.0064-0.00258-9e-3 -0.00379 0.0031 0.00115 0.0047 0.00184 0.0076 0.00294-0.0025-0.00105-0.0042-0.00173-0.0065-0.00268 0.0023 8.4e-4 0.0052 2e-3 0.0076 0.00289 0 1.1e-4 1e-4 1.6e-4 2e-4 2.7e-4 0.0146 0.00563 0.0274 0.01058 0.0374 0.01447 0.0118 0.00474 0.0242 0.00979 0.0381 0.01564-0.0154-0.00579-0.0293-0.01116-0.0404-0.01558-2e-4 -6e-5 -3e-4 -1.1e-4 -5e-4 -1.6e-4 -0.0323-0.01279-0.0417-0.01711-0.0013-5.8e-4zm0.5903 2.2309c-0.2661 0.0035-0.6207 0.0115-1.8375 0.1563 0.543-0.1713 0.9496-0.1262 1.3958-0.2073 0.1871-0.0497-1.4395 0.072-0.3229-0.1074 0.3871-0.0369 0.3686 0.0133 0.6012-0.0361 0.713-0.0942-0.7207 0.0351 0.0757-0.0649-0.7478 0.0798-1.623 0.064-1.7694-0.0168-0.0313 0.0144-0.0314 0.0144-0.1199 0.023-0.5713 0.0307-0.4529-0.0389-0.5426-0.0752 0 0 0.1447 0.0082 0.2105 0.0119-1.0265-0.38033-1.1812-1.4114-0.3546-1.227l0.2941 0.23389c-0.1239-0.10971 0.0792-0.01242 0.1622 0.06501l0.0418 0.03922c0.0602 0.05064 0.104 0.08865 0.1272 0.10897 0.0051 6e-3 0.0095 0.01106 0.0147 0.01732-0.0067 0.04496-0.0289 0.24015-0.133 0.32254-0.1147 0.04627 0.1292 0.10123 0.134 0.12387l0.2085 0.10531c0.0269 0.0136 0.112 0.0566 0.1816 0.0917 0.0301-0.0373 0.1376-0.16822 0.1574-0.35662-0.1809-0.4513-0.3743-1.0361-0.5935-1.6196 0.4347 0.02201 0.4349-0.00431 1.0724 0.12371-0.4455-0.07407-0.0203 0.0239 0.2224 0.07249 0.0699 0.06528 0.1426 0.15245 0.2036 0.23757l-0.0158-0.027c-0.0499-0.06501-0.0329-0.09702-0.0407-0.18462 0.0099 0.00137 0.0189 0.00264 0.0267 0.00364 0.1475 0.3657 0.175 0.43393 0.2445 0.60607 0.0754 0.12497-0.035-0.14693-0.1583-0.61276 0.0803 0.02027 0.0918 0.02253 0.0723 0.01569-0.0057-0.00185-0.011-0.00358-0.0156-0.00506l0.0037 9.5e-4c-0.0021-6.8e-4 -0.0042-0.00142-0.0066-0.00221-0.0093-0.00311-0.0202-0.00679-0.0322-0.01085-0.0024-8.4e-4 -5e-3 -0.00173-0.0075-0.00257-3e-4 -1.1e-4 -6e-4 -2.1e-4 -8e-4 -3.2e-4 -4e-4 -1.6e-4 -8e-4 -3.2e-4 -0.0012-4.2e-4 4e-4 1.6e-4 7e-4 2.6e-4 0.0011 4.2e-4 -0.0037-0.00132-0.0074-0.00253-0.0111-0.0039-0.0017-5.2e-4 -0.0031-0.0011-0.0047-0.00168-1e-4 -5e-5 -1e-4 -5e-5 -2e-4 -5e-5 -0.0096-0.00358-0.019-7e-3 -0.0279-0.01037 7e-3 0.00231 0.012 0.00405 0.0185 0.00621 0.0023 8.4e-4 0.0055 0.00205 0.0095 0.00358-1e-4 -5e-5 -1e-4 -1.1e-4 -1e-4 -1.6e-4 -0.0015-5.8e-4 -0.0031-0.00121-0.0046-0.00184 0.0015 5.2e-4 0.0029 1e-3 0.0045 0.00153-0.0403-0.15304-0.0818-0.32623-0.1185-0.51316-0.2589-0.62766-0.2572-0.57128-0.4922-0.98094-0.3235-1.2967 0.3882 0.7252 0.3177 0.06838 0.2228 0.82733 0.1791 0.77906 0.3805 1.4548l0.0217 0.00574c-0.0694-0.41803 0.0122-0.37307-0.0311-0.85643 0.0726 0.32411 0.1317 0.6317 0.1759 0.89486l0.0992 0.02627c-0.0157-0.00321-0.0374-0.00774-0.0689-0.01427 0.0082 2e-3 0.0179 0.00416 0.0273 0.00627-0.0174-0.00353-0.0363-0.00785-0.0567-0.0129 0.0748 0.44498 0.1072 0.7611 0.0913 0.80916-0.21-0.55011-0.0309-0.0031-0.0105 0.07876-0.0057-0.01385-0.0115-0.02754-0.0175-0.04101l0.0074 0.01958c0.0038 0.00863 0.0075 0.01727 0.011 0.02548 7e-4 0.00326 9e-4 0.00511 6e-4 0.00521l0.0672 0.17841c-9e-4 -0.00332-0.0017-0.00616-0.0026-0.00959-0.0127-0.03779-0.0252-0.07354-0.0377-0.1067 0.0263 0.06722 0.0446 0.12339 0.0604 0.17951 0.0116 0.03722 0.017 0.05464 0.0292 0.1105 0.0016 0.00594 3e-3 0.01136 0.0045 0.01747 0.0014 0.00448 0.0051 0.02243 0.0089 0.04054-0.0015-0.00574-0.0028-0.01043-4e-3 -0.01501 0.0045 0.02143 0.0098 0.04654 0.0162 0.0776-0.0101 0.02758 0.0836 0.24172 0.1233 0.42582 0.0238 0.1032 0.0029 0.0042-0.0071-0.059-0.0042-0.0409-7e-3 -0.0676-0.0096-0.0926 0.0028-0.0183 0.0189 0.0458 0.0356 0.1651 0.0036 0.0279 0.0087 0.068 0.0157 0.1239l-0.1204 0.1922zm-2.0498-1.11c-0.0152-0.01547-0.038-0.03922-0.0751-0.07801-0.1703-0.17351-0.2819-0.34334 0.0751 0.07801zm1.1961-1.2136 0.0011 5.8e-4 -0.0022-0.0011-0.0093-0.00501 0.0103 0.00548c0.0015 7.9e-4 0.0058 0.00284 0.0149 0.00753l-0.0148-0.00748zm0.029 0.0139c2e-3 8.9e-4 0.0042 0.00184 0.0063 0.00279-0.0012-5.8e-4 -0.0024-9.5e-4 -0.0036-0.00153-8e-4 -3.7e-4 -0.0019-8.9e-4 -0.0027-0.00126zm0.012 0.0388 3e-4 4.7e-4c-0.0171-0.01784-0.028-0.02943-0.0371-0.0389 0.0042 0.00379 8e-3 0.00732 0.0106 0.00974 0.0075 0.00768 0.0158 0.01689 0.0262 0.02869zm-0.0673-0.0677c0.0031 0.00174 0.0054 0.00305 0.0078 0.00442l-0.0016-6.3e-4 -0.0062-0.00379zm0.0688 0.07006 0.0049 0.00748c-0.0403-0.01195-0.0837-0.02495-0.1298-0.03927 0.0457 0.01163 0.0865 0.022 0.1249 0.03179zm-2.9328-3.0184c0.0142 0.0886 0.0231 0.16151 0.0275 0.22168-0.196-0.20757-0.3458-0.40566-0.3414-0.52426-0.10179-0.35539 0.4605 0.21867 0.6191 0.23262 0.0361 0.16314 0.516 0.76621 0.1076 0.44941l0.668 0.69393c0.6808 0.95903 1.4367 1.5528 1.6698 1.7897l0.0962 0.07401c-0.0035-0.00258-0.0071-0.00505-0.0107-0.00758 5e-4 3.2e-4 9e-4 6.3e-4 0.0015 0.00105l-0.0176-0.01179c0.0073 0.00511 0.016 0.01137 0.0257 0.01848l-0.0235-0.01432c0.0072 0.00479 0.0147 0.00963 0.0222 0.01437l1e-4 5e-5c0.0025 0.00143 4e-3 0.00227 0.0063 0.00353l7e-4 4.7e-4 -7e-3 -4e-3c0.0035 0.00227 0.0071 0.00458 0.0105 0.00664 0.0011 7.8e-4 0.0021 0.00152 0.0032 0.00237 6e-4 4.2e-4 0.0014 1e-3 0.0019 0.00142l-0.0877-0.03822-0.486-0.20188c-0.2735-0.11119-0.5434-0.2151-0.8008-0.3177-0.1766-0.43093-0.3697-0.84012-0.5854-1.1699-0.0413 0.12186-0.1229 0.00663-0.2233-0.19436 0.0818 0.01011 0.1567 0.01011 0.219-0.00895-0.0428-0.03811-0.1933-0.16271-0.3743-0.32332-0.1806-0.39614-0.383-0.82812-0.5216-0.69341zm3.6961 4.4775c0.0065 0.03206 0.0113 0.05717 0 0zm-6.3255-4.2017 0.11516 0.17867c-0.05536-0.08217-0.13884-0.14418-0.11516-0.17867zm-0.14409-0.15887c0.02139 0.00242 0.03887 0.0039 0.05033 0.00358l0.00953 0.01574c-0.01906-0.00505-0.03911-0.01169-0.05986-0.01932zm18.587 6.776c0.9578 0.1412-0.1606 0.5952 1.3263 0.957 0.2412-0.2591 0.6664-0.0315 1.0385 0.169-0.0349-0.3751-1.0321-0.3698-1.6103-0.6438 0.3822 0.0833 0.2284-0.5055 1.0136-0.1658 0.115-0.2756-0.8523-0.4782-0.6387-0.6443 0.3732 0.0836 0.8525 0.1926 1.3428 0.2441-0.3143-0.0713 0.1276-0.2924 0.165-0.3462-0.1896 0.0281-0.7896-0.1972-0.5635 0.0842-0.7304-0.1549 0.0642-0.5829-0.5655-0.6302 0.8786 0.0473 0.2118-0.4988 0.5784-0.7341-2.0397-0.0601 0.7618 0.5121-0.9193 0.4959-0.3374-0.1839-0.3427-0.4418-0.3794-0.7273-0.0183-0.1421-0.0444-0.29011-0.123-0.43066-0.0393-0.07023-0.0916-0.1385-0.1625-0.20262-0.0355-0.03206-0.0755-0.06307-0.121-0.09281l-0.0721-0.04353-0.0393-0.02095-0.0102-0.00517-0.0696-0.53431-0.0014-2.1e-4 -0.0027-4.3e-4 -0.0053-8.4e-4 -0.0219-0.00316c0.3358-0.29953 0.7685-0.1226 1.4992-0.28958l0.0588 0.03127c0.0079 0.00553 0.0219 0.01548 0.0219 0.01548l6e-4 4.7e-4 0.0907 0.70509 0.0011 0.00211 0.0019 0.00426 0.0039 0.00848 0.0068 0.01668c0.0168 0.04406 0.0225 0.08497 0.0209 0.12329-3e-3 0.0768-0.0354 0.14345-0.0669 0.20762-0.0631 0.12908-0.1228 0.24568 0.0562 0.43312 0.1808-0.20249 0.2175-0.48176 0.126-0.73639l-0.0186-0.04738-5e-3 -0.01174-0.0026-0.00584-0.0926-0.71878-8e-4 -6.8e-4 -0.0016-0.00132-0.0129-0.01037-0.0584-0.03974c-0.0425-0.02538-0.092-0.04859-0.1482-0.06896-0.1124-0.04075-0.2514-0.07018-0.4139-0.08365-0.1343-0.21273 1.9562-0.57207 1.3979-0.76711-0.6382 0.13966-0.7906 0.15772-1.0128 0.28196-0.2612-0.07734 0.0052-0.05165-0.0982-0.39198-0.4527-0.06912-0.3852 0.4593-0.8412 0.1942 0.0833-0.1444 0.0787-0.43646 0.5314-0.48141l0.0784 0.04453c-0.8608-0.63976 1.2901-1.0756-0.2188-1.4126-0.2767 0.17114 0.1829 0.18288 0.0617 0.42903-0.4222 0.28053-1.2739 0.09207-1.6009-0.08465 0.4337-0.12265-0.0427-0.27716-0.0177-0.52616 0.5891-0.45809 0.46 0.4024 0.9686 0.32365l-0.2014-0.6356-0.0372 0.17177s-0.2474-0.08602-0.4883-0.14656c-0.2259-0.01527-0.4519-0.03053-0.4519-0.03053 0.4021 0.15982-0.7146 0.54316-0.8664 0.48557-0.046-0.30843-0.1154-0.62776 0.5973-1.033-0.7178 0.3974-0.9293 0.08218-1.2465-0.01995-0.0485 0.39092-0.5419 0.42841-0.7965 0.52985 0 0 0.0951-0.19831 0.19-0.39656 0.0849-0.19251 0.17-0.38502 0.17-0.38502 0.4974 0.15171 0.4958-0.51184 0.9925-0.78932 0.7522-0.44156 0.6432 0.08465 0.7236 0.36513 0.8336-1.3468-1.1463-0.06391-0.9014-0.7939 0.2789-0.24531 0.6342-0.50152 0.723-0.30812 0.1265-0.22588-0.849 0.19189-0.7623-0.29342-0.1211 0.2341-0.5501 0.83617-0.9849 0.87154l0.3599-0.88086c-0.2118-0.42472-0.7862 0.58354-1.3305 0.71814l-0.2556 0.57449c-0.5591 0.56053-0.3246-0.21978-0.9047 0.43567 0.1161 0.11497 0.6554-0.35102 0.633-0.03964-0.5297 0.65687-0.4911 0.18824-0.876 0.48446-0.0523-0.46962 0.0303-0.4493 0.2123-1.1284 0.7879-1.0543 1.4534-0.99299 2.5137-2.3366-0.5686-0.10412-1.3968-0.13386-1.391-0.6904-0.5914 0.13719-1.0903 1.0343-1.4483 1.6892-0.2062 0.05433-0.2088-0.07222-0.1973-0.27716l0.3729-0.28432c-0.6361 0.15946-1.0634 0.44525-1.4602 0.24247-0.3334 0.11645-0.5624 0.84965-0.7788 1.4104l-0.2808 0.05064-0.0346 0.15988c-0.3923 0.73304-0.4542 0.42382-0.5835 0.35044 0.134-0.32875 0.254-0.3765 0.3315-0.58144-0.0135-0.32069-0.2535-0.31285-0.4801-0.01316 0.1199-0.33464 0.4954-1.0455 0.576-0.76031-0.0239 0.08007-0.0619 0.20673-0.0865 0.28922l0.4586-0.33791c-0.4895 0.29643-0.3522-0.60591-0.0535-1.4004-0.5073 0.296-0.0277 0.91055-0.5493 1.0847-0.0305-1.7432-1.1284 0.20678-0.8804-2.16-0.4063 0.40708-0.8917 1.166-1.3186 1.1764-0.0989 0.69825-0.3146 0.23984-0.3785 1.1066 0.2053 0.94883 0.9339-1.2757 0.9828 0.06618 0.2299-0.28432 0.3108-0.87786 0.475-1.2307 0.1715-0.02217 0.3028 0.08912 0.2095 0.51479-0.4554 0.34854-0.5173 1.6381-0.9074 1.5846-0.0775 0.59517 0.2623 0.44477 0.3531 0.63034-0.1223 0.3068-0.1796 0.68298-0.1781 0.96177-0.2383 0.53206-0.5256 0.97067-0.712 1.4329 0.1024-0.31201 0.0925-0.50994 0.1596-0.69145 0 0-0.1269 0.22946-0.2537 0.45888-0.1169 0.23673-0.2339 0.47346-0.2339 0.47346-6e-4 -0.43193 0.0534-0.94556 0.1722-1.3128-0.1556-0.23152-0.5605 0.67777-0.4425-0.37123-0.2509 0.13834 0.011 0.6286-0.0157 0.92529l-0.0243 0.0509 0.2327-0.05943c-0.1524 1.2097-0.2123-0.31875-0.3833 0.83422-0.244 2.2104-0.1899-0.7461-0.3912-0.38081l0.1212-0.79843c0.0727-0.39634 0.1456-0.79274 0.1456-0.79274l-0.1972 0.34755c0.128-0.6205 0.1831-1.681 0.4299-2.3086-0.3002-0.08159-0.7955-0.54232-1.0066-0.24652-0.1036-0.54048-0.176-1.0533-0.1572-1.5927-0.3176 1.0043-0.6441-0.49505-1.0679-0.45814-0.2986 0.64208 0.5003 0.75089 0.3259 1.5678-0.1445-0.34802-0.2805-0.10181-0.3504 0.07717 0.1062-0.17314 0.5121 0.24852 0.7408 0.47336-0.1791-0.00827-0.0709 0.77137-0.0746 1.0985 0 0 0.2661 0.13139 0.2632 0.13945 0.073 0.95861-0.2842 0.10949-0.3307 0.6117-0.0536-0.8687-0.0993-0.89018-0.1322-1.7599-0.2067 0.38403-0.536 0.43336-0.8821-0.05601-0.2157-0.32222 0.0058-0.44156 0.0304-0.69345-0.2008-0.57191-0.1922 0.39065-0.427-0.31449-0.0906-0.5339 0.1671-0.08275 0.2301-0.25784 0 0-0.2345-0.02816-0.4689-0.05638-0.2566 0.00237-0.513 0.00474-0.513 0.00474-0.1178-0.33302 0.1014-0.51358 0.2979-0.4254-0.4108-0.31001-0.6352-0.04085-0.4987 1.1786-0.4248-0.23736-1.0356-0.5669-1.1582-1.0761-0.05997 0.25379 0.1963 0.51 0.3561 0.83222-0.53158 0.00721 0.0529 1.1685-0.1396 1.2948l0.5114 0.47973c-0.69727-0.41066 0.5264 0.97625-0.0191 0.67477-0.3596-0.59428-0.82728-1.2535-1.326-1.8345 0.34787 0.5997-0.22751 0.22625-0.38621 0.32349 0.52498 0.49641 0.12135 0.6774 0.78768 1.0852 0.10802 0.58849-0.67755 0.04075-0.20418 0.82538 0.26193 0.06512 0.36744 0.66682 0.84483 0.92403-0.0119 0.01879-0.0334 0.03011-0.0603 0.03685-0.0557-0.03164-0.1215-0.0777-0.1937-0.12266-0.17908-0.12255-0.40892-0.22747-0.47843-0.08828-0.25895-0.13698-0.54503-0.32723-0.78843-0.54064 0.12801-0.04706 0.49698 0.03364 0.02051-0.33827 0 0-0.06839 0.10738-0.14 0.22425-0.018-0.0479-0.03589-0.1007-0.0536-0.15987-0.34313-0.25011-0.37879 0.0976-0.47676 0.39908-0.25159-0.02996-0.53503-0.07891-1.0402-0.34023 0.15052 0.12871 0.19746 0.21668 0.18682 0.28121-0.02326-0.03748-0.04016-0.07406-0.04559-0.10996 0.00678 0.09275-0.00146 0.15698-0.02105 0.20046-0.04279 0.02895-0.10054 0.05143-0.16034 0.07227-0.24177-0.03521-0.65878-0.36486-0.85128-0.16413l0.79025 0.58074c0.16455 0.28754-0.42262-0.08943-0.36949 0.10524 0.16718-0.012 0.66855 0.12123 0.92441 0.43424 0.08896 0.24437 0.27976 0.50284 0.19249 0.60707-0.32595-0.19956-0.40001-0.37149-0.44864-0.49383 0 0-0.2852 0.20857-0.69234-0.00174-0.20798-0.26906-0.10358-0.40292-0.46869-0.81138-0.6032 0.2719-0.30028-0.14576-1.1344-0.34027 1.0308 0.54711 0.14397 0.65371 0.22019 1.0353-0.43876-0.18346-0.0218-0.24268-0.2897-0.47183-1.0702-0.22863-1.1402 0.05759-0.99735 0.3926 0.15584 0.3377 0.52779 0.72357 0.1846 0.97267-0.13474-0.05864-0.21605-0.17835-0.25329-0.2392 0.18706 0.40024-0.97105 0.3348-0.36575 0.71672-0.2838 0.24321-1.3229-0.27453-1.4223 0.23742 1.234 0.09023-0.37447 0.55164 0.9261 0.77079l-0.82217 0.24726c0.67848 0.37849 2.2069 0.19109 2.2746 0.70593-0.52311 0.44514-2.1556-0.19773-2.8662 0.07333l0.70859 0.1724-0.5192 0.25063-0.06103-0.04159c0.2378 0.16292 0.03397 0.44672-0.3533 0.45522-0.30256-0.0232-0.30478-0.205-0.60576-0.2338 0.65738 0.227-1.7713 1.2558 0.26001 1.3851-0.32933 0.1898-0.27433 0.5246-0.90237 0.559 0.88091 0.0346-0.15017 0.7935 0.46226 0.9159-0.30186 0.0242-0.71923 0.3264-0.4442 0.448 0.2648-0.2903 0.62377-0.2098 1.1293-0.1713-0.56818 0.3228 0.10393 0.717-0.86186 1.0684 0.65323 0.1463 1.326-0.1725 2.0652-0.3184-0.541 0.3421-0.20594 0.8638-1.3654 1.1515 0.07114-0.207 0.16572-0.6278-0.57531-0.3259-0.30005 0.4466 0.36487 0.0383 0.57549 0.2499-0.21324 0.0482-0.62225 0.4098-0.96708 0.4743 0.18086 0.1142 0.2828 0.3364 0.20623 0.6343 0.32904-0.5386 0.87875-0.0858 1.2166-0.464l-0.9586-0.0155c-0.23809-0.3806 0.57362-0.3038 0.78984-0.5497 0.53025 0.5793 1.6094 0.0157 2.3973 0.3246-0.13894 0.1806-0.32384 0.5025-0.30952 0.5768-0.16829-0.1588-1.135 0.3339-1.2444 0.542 1.0259-0.0692-0.12866 0.8751-0.09253 1.2864 0.05302-0.3834 0.7571-0.5891 1.042-0.6393 0.94592 0.2279-0.18892 0.4273-0.40743 0.9512 0.44286 0.4419 0.47635 0.9835 0.68153 1.5126 0.10171 0.2629 0.22248 0.5107 0.40626 0.7082 0.09177 0.0986 0.19921 0.1845 0.32676 0.2523 0.06383 0.034 0.13258 0.0634 0.20699 0.0875 0.0356 0.01 0.074 0.0207 0.11568 0.0323l0.06109 0.013 0.00777 0.0014 0.00392 8e-4 9.3e-4 1e-4 0.53153 0.3851 0.00106-5e-4 0.00865-0.0034 0.01765-0.0075s0.00731-0.0131 0.01987-0.036l0.01053-0.019 0.00298-0.0053 0.00146-0.0027 7.6e-4 -0.0015-0.52411-0.3821 0.00357-0.0144 0.01654-0.0661c0.02549-0.0963 0.05951-0.2245 0.09359-0.3528 0.07546-0.2525 0.15104-0.505 0.15104-0.505l-0.79159 0.5153c0.2192-0.7533 1.5701-1.337 2.1237-1.647-0.04653 0.0627-0.04688 0.1251-0.02899 0.1869l0.037 0.0921 0.02192 0.0455 0.01076 0.0226 0.00514 0.0113 0.00123 0.0028 6.4e-4 0.0014 0.38312 0.2784 5e-5 5e-4 1.2e-4 0.0034c0.00286 0.0733-0.0218 0.1577-0.2226 0.3269l0.43982-0.1765c0.22417-0.3226-0.00596-0.2739 0.35289-0.5412-0.11855 0.2589-0.05144 0.5407-0.51423 0.8704 0.08202 0.0877 0.40667-0.0648 0.72595-0.4907 0.19542 0.0656-0.75342 0.8766-1.059 1.1105 0.09148 0.1282-0.42702 0.722-0.62775 0.8918l0.24832 0.0325c-0.19828 0.1665-0.43257 0.4488-0.6319 0.6171-0.09885 0.3349 0.61436-0.3695 0.25334 0.2495 0.07307-0.0908 0.55188-0.5228 0.56894-0.5133 0.61571 1.0644 0.48196 1.117 1.4565 1.69l0.11224-0.5603c0.62581-0.2509 0.63938-0.0047 0.67895 0.3341 0.04735 0.3449 0.08201 0.7517 0.61272 0.7153 0.64476-0.129 1.0474-0.2659 1.2951-1.1042 0.3817-0.2233 0.2611 0.2826 0.2828 0.6304 0.389-0.3931 1.0697-1.1402 1.2684-0.5618-0.297 0.2144-0.5587 0.3975-0.8128 0.4659-0.1993 0.863 0.7299 0.3498 1.0176 0.8127 0.3788-0.3538 1.3983-1.2447 1.8756-1.9921-0.1252-0.7119 0.0885-1.7263 0.4403-2.4171-0.0897 0.539 0.3835 0.5574 0.6104 0.9397-0.1387 0.5094 0.5643 1.2709 0.0217 1.4833-0.163-0.2708-0.2105-1.0045-0.4243-0.7389 0.0976 0.5448 0.435 1.1763 0.8477 1.6619-0.02 0.2713-0.227 0.6201-0.4449 0.6169 0.1176-0.2371 0.0488-0.4029 0.0343-0.6194-0.7568 0.6096 0.1445 1.2492 0.0495 1.9057 0.2101-0.1645 0.6376-0.0694 0.4895-0.4723 0.515 1.15 1.1756-0.8794 1.732 0.0933-0.0051-0.133-0.3231-0.5318-0.0724-0.8914 0.4209-0.1869 0.5036 0.4277 0.7506 0.6643 0.0702-0.3845 0.6624-0.8031 0.6463-0.6061 0.1919-0.3794-0.6229-1.1954-0.4008-1.8344-0.0097-0.9169 0.5142-0.2654 0.7163-0.5744 0.5457 0.5027-0.1856 0.5038-0.2436 0.8253l0.4228-0.3216c0.2074-0.1614 0.4005-0.3294 0.4005-0.3294 0.4489 0.3324 0.2073 0.8653-0.1391 0.8393 0.6128 0.4371 0.9288-0.2614 0.7181-0.9675 0.2978 0.0613 0.3429-0.1352 0.696 0.0481-0.026 0.4565 0.5649 1.613 0.2624 1.9643-0.6693 0.1648-0.1857-0.9845-0.7848-0.9656l0.2597 0.7249c-0.3977-0.3205-0.3568 0.2769-0.6067 0.4005-0.2119-0.1407-0.0622-0.2665-0.0077-0.3972-0.4491 0.1864-0.9199-0.1149-1.0394 0.8081 0.8815 0.5228 1.5362-0.6558 2.1316 0.0342l0.3992-0.7274c0.1736-0.3615 0.3472-0.7232 0.3472-0.7232-0.1819-0.3117-0.8266-0.6668-0.7714-1.2553 0.5529 0.7534 1.1 0.9748 1.6064 0.8797-0.6754-0.7652 0.1519-1.0967-0.5034-1.654 0.108 0.514-0.4451-0.1359-0.509-0.1924 0.3109-0.2365-0.4622-0.7925-0.3136-0.9369 0.713-0.1508 0.3378 0.5459 1.1539 0.4889 0.1515 0.4281 0.3974 1.4467 0.2192 2.0184 0.2652 0.3432 0.3564-0.2242 0.7767 0.0198-0.4842-0.305-0.3589-0.8351-0.6675-0.9086 0.3246-0.6457 0.181-1.8439 0.524-2.3916 0.9875 1.1374-0.1722 1.5338 1.1555 2.7527 0.1776-0.4059-0.3166-0.9482-0.0018-1.0448 0.8234 0.499 0.8101-0.4585 1.1286-0.8252l-0.5008-0.1554c-0.1403-0.3762 0.315-0.4178 0.5381-0.5179l0.1153 0.168-0.0721-0.3324c0.0537 9e-4 0.0976 0.0259 0.1413 0.0615-0.2075-0.4542 0.5713-0.6003 0.6048-1.112-0.6303-0.4168-0.2819 0.32-0.5014 0.426-0.1808-0.0558-0.704 0.031-0.9851-0.4155 0.365-0.3636-0.2024-1.15 0.1345-1.5373l-0.2952 0.0129c-0.3514-0.4023-0.0014-0.4354 0.1104-0.6468 0.7239-0.118 0.734 0.7761 1.2785 0.7638 0.4727 0.4866-0.3871 0.38 0.4038 0.9181l1.1075 0.2608c-0.3881-0.549 0.642-0.3473 0.6158-0.6054l-0.5284-0.025c-0.7064-0.4155-0.0615-0.2968 0.0952-0.3356l-1.1452-0.4173c-0.3158 0.1477 0.4728 0.8128-0.2598 0.6485-0.0288-0.607-0.9487-0.9572-0.6995-1.451 0.4359 0.1799 0.1041 0.1687 0.3905 0.3757 0.3932-0.0374-0.3871-0.6231 0.1074-0.7398 0.1901 0.2677 0.4676 0.7426 1.1779 0.7877l-0.7484-0.5252c0.2042-0.0764 0.5021 0.115 0.5594 0.0702 0.2645-0.1297-0.8966-0.3169-0.5246-0.5256 0.1894 0.0216 0.4337-0.0071 0.6035 0.1105 0.2022-0.3467-0.1964-0.2812-0.4847-0.7517-0.1153 0.3-1.4219-0.1764-1.4643-0.4862 0.2889-0.347-0.3782-0.7851 0.8376-0.775l-0.5257-0.3084c0.8193 0.3017 0.352-0.1877 0.5181-0.284z"/>
</svg>
