<?xml version="1.0" encoding="UTF-8"?>
<svg viewBox="0 0 232 39" xmlns="http://www.w3.org/2000/svg">
<path d="m79.507 0.56578c0.192 0.17318 0.2885 0.39264 0.2885 0.65695v19.562c0 0.2649-0.1019 0.4841-0.3055 0.657-0.2037 0.1734-0.4527 0.2597-0.7465 0.2597-0.3172 0-0.5769-0.0863-0.7806-0.2597-0.2036-0.1729-0.3054-0.3921-0.3054-0.657v-16.811l-7.9758 10.881c-0.2267 0.2652-0.4868 0.3872-0.7809 0.3665h-0.0678c-0.2714 0-0.5208-0.1221-0.7465-0.3665l-7.9757-10.942v16.872c0 0.2649-0.0965 0.4841-0.2885 0.657-0.1926 0.1734-0.436 0.2597-0.7298 0.2597-0.2941 0-0.5318-0.0863-0.7128-0.2597-0.1812-0.1729-0.2714-0.3921-0.2714-0.657v-19.562c0-0.24444 0.0958-0.45822 0.2885-0.64161 0.1919-0.1834 0.4353-0.2751 0.7297-0.2751 0.158 0 0.3276 0.035772 0.5092 0.10703 0.1806 0.071543 0.3165 0.16807 0.407 0.29015l8.8922 12.012 8.9599-12.012c0.2488-0.30548 0.5542-0.43806 0.9165-0.39718 0.2714 0 0.5034 0.086874 0.6957 0.25977z" fill="#fff"/>
<path d="m89.841 13.724h9.4353l-4.7517-10.453-4.6836 10.453zm14.798 7.1213c0 0.2652-0.102 0.479-0.305 0.6419-0.204 0.1633-0.441 0.2445-0.713 0.2445-0.226 0-0.424-0.0557-0.594-0.1681-0.17-0.1116-0.3-0.2598-0.39-0.4432l-2.546-5.5931h-11.03l-2.5112 5.5931c-0.1816 0.4077-0.4868 0.6113-0.9165 0.6113-0.3171 0-0.5545-0.071-0.7127-0.2138-0.1586-0.1425-0.2491-0.3361-0.2715-0.5809v-0.0917c0-0.1223 0.0111-0.214 0.0341-0.2751l8.96-19.745c0.1806-0.40711 0.5201-0.61124 1.0179-0.61124 0.226 0 0.4243 0.056214 0.5939 0.16807 0.1696 0.11214 0.2995 0.26005 0.3903 0.44317l8.9259 19.653c0.045 0.1633 0.068 0.2856 0.068 0.3668z" fill="#fff"/>
<path d="m119.78 10.881c0.792-0.0613 1.528-0.2952 2.206-0.7032 0.679-0.40712 1.222-0.95732 1.63-1.6503 0.407-0.69243 0.611-1.4871 0.611-2.3839 0-1.1614-0.436-2.1244-1.307-2.8884-0.871-0.76426-2.008-1.1461-3.411-1.1461h-7.874v8.772h8.145zm7.569 9.9334c0 0.1025-0.046 0.2345-0.136 0.3975-0.091 0.1428-0.215 0.2549-0.373 0.3361-0.159 0.0815-0.328 0.1224-0.509 0.1224-0.226 0-0.419-0.0409-0.577-0.1224-0.634-0.3256-1.143-0.8557-1.527-1.5893-0.385-0.7336-0.578-1.9049-0.578-3.5149 0-1.4261-0.441-2.4299-1.323-3.0108-0.883-0.5806-1.935-0.871-3.156-0.871h-7.535v8.222c0 0.2649-0.091 0.4841-0.271 0.657-0.182 0.1734-0.419 0.2597-0.713 0.2597-0.317 0-0.589-0.0863-0.815-0.2597-0.226-0.1729-0.339-0.3921-0.339-0.657v-19.562c0-0.26431 0.096-0.48376 0.288-0.65694 0.192-0.1729 0.436-0.25977 0.73-0.25977h9.164c1.29 0 2.443 0.24983 3.462 0.74893 1.018 0.49938 1.815 1.187 2.392 2.0628 0.577 0.8764 0.866 1.8647 0.866 2.9651 0 1.304-0.38 2.4503-1.137 3.4383-0.759 0.98855-1.748 1.6656-2.97 2.0324 0.995 0.3469 1.81 0.9323 2.444 1.7576 0.633 0.8253 0.961 1.8292 0.984 3.0105 0.022 1.2636 0.119 2.15 0.288 2.659 0.17 0.5096 0.447 0.8665 0.832 1.07 0.339 0.2039 0.509 0.4585 0.509 0.764z" fill="#fff"/>
<path d="m134.71 21.426c-0.204 0.1834-0.453 0.2751-0.747 0.2751-0.317 0-0.572-0.0866-0.763-0.2598-0.193-0.1732-0.289-0.402-0.289-0.6879v-19.5c0-0.28504 0.102-0.51414 0.306-0.68761 0.203-0.1729 0.463-0.25977 0.78-0.25977 0.294 0 0.543 0.091982 0.747 0.2751 0.203 0.18368 0.305 0.40797 0.305 0.67228v19.5c-0.022 0.2649-0.135 0.4892-0.339 0.6726z" fill="#fff"/>
<path d="m160.15 11.172c0.192 0.1735 0.289 0.3927 0.289 0.657v7.3663c0 0.3467-0.17 0.6218-0.509 0.8253-1.019 0.632-2.15 1.1206-3.394 1.467-1.245 0.3463-2.512 0.5195-3.801 0.5195-2.308 0-4.39-0.4787-6.245-1.4365-1.856-0.9576-3.315-2.2715-4.379-3.9426-1.063-1.6707-1.594-3.5456-1.594-5.624 0-2.0785 0.531-3.9531 1.594-5.6238 1.064-1.6705 2.523-2.9849 4.379-3.9428 1.855-0.9576 3.937-1.4368 6.245-1.4368 1.199 0 2.358 0.13287 3.478 0.39774 1.12 0.26488 2.121 0.6419 3.004 1.1308 0.317 0.1834 0.475 0.43834 0.475 0.76426 0 0.26488-0.097 0.48887-0.288 0.67227-0.193 0.18312-0.414 0.2751-0.662 0.2751-0.227 0-0.43-0.05053-0.611-0.15302-1.697-0.83523-3.496-1.2531-5.396-1.2531-1.924 0-3.649 0.39746-5.176 1.1921s-2.721 1.8902-3.581 3.2859c-0.86 1.3959-1.29 2.96-1.29 4.6915 0 1.7323 0.43 3.2963 1.29 4.6917 0.86 1.3959 2.054 2.4909 3.581 3.2856 1.527 0.7949 3.252 1.1921 5.176 1.1921 0.972 0 1.951-0.1224 2.935-0.3668 0.984-0.2445 1.861-0.5809 2.631-1.0087v-6.0516h-5.363c-0.294 0-0.543-0.0866-0.747-0.2598-0.203-0.1729-0.305-0.3921-0.305-0.6575 0-0.2643 0.102-0.4835 0.305-0.657 0.204-0.1726 0.453-0.2597 0.747-0.2597h6.483c0.293 0 0.537 0.0871 0.729 0.2597z" fill="#fff"/>
<path d="m184.18 6.2507c-0.781-1.3954-1.867-2.4804-3.258-3.2552-1.392-0.77391-2.981-1.1614-4.769-1.1614-1.787 0-3.376 0.38753-4.768 1.1614-1.391 0.77477-2.478 1.8598-3.258 3.2552-0.781 1.3959-1.171 2.9801-1.171 4.7528 0 1.7726 0.39 3.3571 1.171 4.7527 0.78 1.396 1.867 2.481 3.258 3.2552 1.392 0.7748 2.981 1.1615 4.768 1.1615 1.788 0 3.377-0.3867 4.769-1.1615 1.391-0.7742 2.477-1.8592 3.258-3.2552 0.781-1.3956 1.171-2.9801 1.171-4.7527 0-1.7727-0.39-3.3569-1.171-4.7528zm1.884 10.407c-0.973 1.671-2.32 2.9801-4.039 3.9275-1.72 0.9476-3.677 1.4212-5.872 1.4212s-4.152-0.4736-5.871-1.4212c-1.72-0.9474-3.066-2.2565-4.039-3.9275-0.973-1.6708-1.459-3.5553-1.459-5.6544 0-2.1191 0.486-4.0138 1.459-5.6849 0.973-1.6708 2.319-2.975 4.039-3.9122 1.719-0.93716 3.676-1.4064 5.871-1.4064s4.152 0.46929 5.872 1.4064c1.719 0.93715 3.066 2.2414 4.039 3.9122 0.972 1.671 1.459 3.5658 1.459 5.6849 0 2.0991-0.487 3.9836-1.459 5.6544z" fill="#fff"/>
<path d="m206.88 20.142c0.192 0.1633 0.289 0.3771 0.289 0.6419 0 0.2649-0.097 0.4841-0.289 0.657-0.192 0.1734-0.436 0.2597-0.729 0.2597h-12.117c-0.294 0-0.538-0.0863-0.729-0.2597-0.193-0.1729-0.289-0.3921-0.289-0.657v-19.562c0-0.26431 0.102-0.48376 0.305-0.65694 0.204-0.1729 0.464-0.25977 0.781-0.25977 0.294 0 0.543 0.086874 0.747 0.25977 0.203 0.17318 0.305 0.39264 0.305 0.65694v18.675h10.997c0.293 0 0.537 0.0815 0.729 0.2444z" fill="#fff"/>
<path d="m227.16 17.437c1.335-1.6398 2.003-3.7847 2.003-6.4338 0-1.6506-0.284-3.1428-0.849-4.478-0.566-1.334-1.454-2.4038-2.664-3.2089-1.211-0.80486-2.732-1.2074-4.565-1.2074h-7.196v17.789h7.196c2.715 0 4.74-0.8202 6.075-2.4605zm-0.255-15.68c1.482 0.9681 2.591 2.2616 3.326 3.8815 0.735 1.6199 1.103 3.408 1.103 5.3643 0 2.0171-0.368 3.831-1.103 5.4404-0.735 1.61-1.844 2.8884-3.326 3.8361-1.482 0.9473-3.309 1.4212-5.481 1.4212h-8.654c-0.295 0-0.538-0.0866-0.73-0.2598s-0.289-0.3921-0.289-0.6572v-19.561c0-0.2646 0.097-0.48377 0.289-0.65724 0.192-0.1729 0.435-0.25977 0.73-0.25977h8.654c2.172 0 3.999 0.48433 5.481 1.4519z" fill="#fff"/>
<path d="m58.59 37.395c0.4524 0.3512 0.9316 0.6078 1.4275 0.7634 0.4962 0.1559 1.0765 0.2351 1.724 0.2351 0.5918 0 1.1419-0.096 1.6352-0.2853 0.4884-0.1871 0.879-0.4526 1.1611-0.7884 0.2784-0.3313 0.4193-0.7157 0.4193-1.1442 0-0.4922-0.1167-0.8942-0.3474-1.1952-0.2317-0.3026-0.5668-0.5428-0.9953-0.7143-0.4397-0.176-1.0182-0.3316-1.72-0.4627-0.7241-0.144-1.2786-0.3234-1.6487-0.5329-0.3972-0.2246-0.5983-0.553-0.5983-0.9763 0-0.3904 0.2008-0.7087 0.5958-0.9454 0.3798-0.2266 0.8928-0.3416 1.5258-0.3416 0.3969 0 0.8165 0.0733 1.2474 0.2184 0.4325 0.1453 0.7784 0.3273 1.0271 0.5411 0.0545 0.0414 0.1311 0.0636 0.2301 0.0636 0.1406 0 0.2573-0.0432 0.3578-0.1326 0.0996-0.0889 0.1479-0.1857 0.1479-0.297 0-0.147-0.0883-0.2842-0.2705-0.4204-0.2998-0.2507-0.6954-0.4523-1.1793-0.6042-0.4865-0.1519-1.0117-0.2291-1.5605-0.2291-0.61 0-1.1649 0.092-1.6494 0.2737-0.4786 0.1794-0.8568 0.4386-1.1245 0.7688-0.2657 0.3285-0.4007 0.716-0.4007 1.1521 0 0.6373 0.2339 1.1205 0.715 1.4785 0.488 0.3626 1.1992 0.6277 2.1134 0.7881 0.8178 0.1539 1.4114 0.3413 1.8155 0.5735 0.4222 0.2442 0.6419 0.5934 0.6517 1.0388 0 0.3867-0.2191 0.7072-0.6523 0.9545-0.4145 0.2379-0.9278 0.3585-1.5236 0.3585-0.5056 0-0.9653-0.0715-1.3659-0.2137-0.3992-0.1414-0.7913-0.3637-1.1652-0.6607-0.1844-0.145-0.4823-0.1394-0.68 0.0369-0.1037 0.092-0.1545 0.1911-0.1545 0.303 0 0.1467 0.0792 0.2762 0.2415 0.396z" fill="#fff"/>
<path d="m76.124 35.916c-0.2822 0.4895-0.6813 0.8801-1.1875 1.1612-0.506 0.2799-1.087 0.4218-1.7273 0.4218s-1.2213-0.1419-1.7272-0.4218c-0.5054-0.28-0.9045-0.6709-1.1876-1.1612-0.2815-0.4874-0.4243-1.0411-0.4243-1.6449 0-0.6118 0.1428-1.1694 0.4243-1.6571 0.2834-0.4906 0.6832-0.8793 1.1882-1.1549 0.5053-0.2763 1.0863-0.416 1.7266-0.416 0.6409 0 1.2222 0.142 1.7273 0.4219 0.5056 0.2808 0.9053 0.6712 1.1875 1.1612 0.2821 0.488 0.4249 1.0413 0.4249 1.6449s-0.1428 1.1566-0.4249 1.6449zm-0.5965-5.2246c-0.6793-0.3611-1.4596-0.5437-2.3183-0.5437-0.8584 0-1.6383 0.1826-2.3183 0.5437-0.6794 0.3597-1.2194 0.8582-1.6037 1.4808-0.3849 0.6229-0.5794 1.3289-0.5794 2.0989 0 0.7694 0.1945 1.4754 0.5794 2.0986 0.3843 0.6226 0.9243 1.1211 1.6037 1.4811 0.6803 0.3605 1.4599 0.5434 2.3183 0.5434 0.8587 0 1.6384-0.1829 2.3183-0.5434 0.68-0.3603 1.2194-0.8588 1.6037-1.4811 0.3849-0.624 0.5801-1.3295 0.5801-2.0986s-0.1952-1.4752-0.5801-2.0989c-0.3843-0.622-0.9237-1.1205-1.6037-1.4808z" fill="#fff"/>
<path d="m82.958 30.4c-0.1094-0.0903-0.2368-0.1348-0.3881-0.1348-0.1693 0-0.303 0.044-0.4079 0.1337-0.1034 0.0891-0.1536 0.1939-0.1536 0.3196v7.1044c0 0.1266 0.0489 0.2311 0.1485 0.3205 0.1 0.0891 0.2257 0.1326 0.3856 0.1326h4.6253c0.1611 0 0.2884-0.0403 0.3887-0.1232 0.0974-0.0815 0.145-0.1817 0.145-0.3066 0-0.1329-0.0476-0.2371-0.145-0.318-0.1003-0.0829-0.2276-0.1232-0.3887-0.1232h-4.0506v-6.6865c0-0.1249-0.0524-0.2293-0.1592-0.3185z" fill="#fff"/>
<path d="m93.178 35.358 1.7748-3.6833 1.7909 3.6833h-3.5657zm5.8053 2.3365-3.4728-7.1676c-0.0394-0.1014-0.0993-0.1712-0.1851-0.2203-0.0901-0.052-0.1894-0.0767-0.3035-0.0767-0.134-0.0131-0.2327 0.0062-0.3229 0.0585-0.0948 0.0553-0.1677 0.1346-0.2216 0.2407l-3.4885 7.2676c-0.0085 0.0591-0.017 0.1153-0.017 0.1431 0 0.1187 0.0365 0.2081 0.1119 0.2734 0.0756 0.065 0.1948 0.0979 0.3531 0.0979 0.1037 0 0.1957-0.025 0.2808-0.0755 0.082-0.0491 0.1403-0.1189 0.1772-0.2146l0.8701-1.815h4.3901l0.8805 1.7957c0.0524 0.0957 0.1242 0.1743 0.2119 0.2299 0.1942 0.123 0.4486 0.1025 0.6251-0.0437 0.0977-0.0803 0.1447-0.1808 0.1447-0.3066 0-0.0661-0.0113-0.1286-0.034-0.1868z" fill="#fff"/>
<path d="m108.05 34.053c-0.224 0.1541-0.465 0.241-0.715 0.2575l-3.129 5e-4h-0.123v-3.1862h3.202c0.417 0 0.776 0.1442 1.069 0.4296 0.29 0.2827 0.436 0.6311 0.436 1.0345 0 0.3129-0.068 0.5999-0.203 0.8537-0.136 0.2538-0.317 0.4593-0.537 0.6104zm2.273 3.8517c0-0.0656-0.021-0.1295-0.065-0.1954-0.046-0.0687-0.105-0.1243-0.182-0.1712-0.174-0.0786-0.297-0.2191-0.351-0.4116-0.049-0.1672-0.09-0.4721-0.127-0.9306-0.017-0.3345-0.119-0.6277-0.302-0.8762-0.184-0.2489-0.437-0.4454-0.752-0.5845l-0.226-0.0999 0.227-0.1c0.405-0.1783 0.743-0.4519 1.004-0.8131 0.259-0.3602 0.39-0.7534 0.39-1.1691 0-0.4321-0.118-0.8261-0.351-1.1713-0.234-0.3464-0.55-0.6221-0.94-0.8197-0.391-0.197-0.826-0.2969-1.295-0.2969h-3.845c-0.151 0-0.275 0.0437-0.38 0.1337-0.104 0.0888-0.154 0.1939-0.154 0.3197v7.104c0 0.1224 0.059 0.2249 0.181 0.3134 0.129 0.0943 0.28 0.14 0.462 0.14 0.139 0 0.249-0.0406 0.335-0.1235 0.088-0.0849 0.131-0.1931 0.131-0.3299v-2.7575h2.887c0.464 0 0.848 0.1028 1.142 0.3055 0.305 0.2083 0.459 0.5306 0.459 0.9584 0 0.5584 0.083 0.9846 0.246 1.2656 0.161 0.2771 0.37 0.479 0.62 0.601 0.204 0.1068 0.547 0.1145 0.753-0.017 0.09-0.0568 0.133-0.1462 0.133-0.2739z" fill="#fff"/>
<path d="m127.37 30.735c-0.755-0.3665-1.573-0.5519-2.433-0.5519-0.897 0-1.718 0.1794-2.439 0.5335-0.72 0.3528-1.294 0.8457-1.704 1.4646-0.411 0.618-0.619 1.3213-0.619 2.0898 0 0.8381 0.217 1.5782 0.645 2.1996 0.428 0.6226 1.01 1.1036 1.729 1.4292 0.722 0.3279 1.526 0.4943 2.388 0.4943 0.415 0 0.844-0.0506 1.276-0.1496 0.429-0.0986 0.822-0.234 1.169-0.402 0.082-0.0384 0.147-0.0906 0.195-0.1568 0.046-0.0638 0.069-0.1308 0.069-0.2038 0-0.1079-0.045-0.2075-0.135-0.3046-0.097-0.109-0.222-0.1607-0.385-0.1607-0.108 0-0.209 0.0199-0.303 0.0599-0.555 0.2867-1.193 0.4341-1.886 0.4341-0.673 0-1.291-0.1289-1.836-0.3833-0.549-0.2552-0.985-0.6317-1.296-1.1191-0.311-0.4849-0.468-1.0698-0.468-1.7372 0-0.6209 0.153-1.1793 0.454-1.6605 0.302-0.4824 0.73-0.8628 1.273-1.1308 0.541-0.2663 1.171-0.4017 1.873-0.4017 0.674 0 1.31 0.143 1.891 0.4252 0.099 0.0455 0.205 0.069 0.312 0.069 0.153 0 0.268-0.048 0.355-0.1462 0.093-0.1005 0.137-0.2041 0.137-0.3191 0-0.1703-0.083-0.2884-0.262-0.3719z" fill="#fff"/>
<path d="m138.65 35.916c-0.282 0.4897-0.681 0.8801-1.187 1.1612-0.506 0.2799-1.087 0.4218-1.727 0.4218s-1.222-0.1419-1.728-0.4218c-0.505-0.2805-0.905-0.6715-1.187-1.1612-0.282-0.4874-0.425-1.0411-0.425-1.6449 0-0.6118 0.143-1.1694 0.425-1.6571 0.283-0.4901 0.683-0.879 1.188-1.1549 0.505-0.2763 1.086-0.416 1.727-0.416 0.64 0 1.222 0.142 1.727 0.4219 0.506 0.2802 0.905 0.6712 1.187 1.1612 0.283 0.488 0.425 1.0413 0.425 1.6449s-0.142 1.1566-0.425 1.6449zm-0.596-5.2246c-0.679-0.3611-1.46-0.5437-2.318-0.5437-0.859 0-1.639 0.1826-2.318 0.5437-0.68 0.3597-1.22 0.8582-1.604 1.4808-0.385 0.6229-0.58 1.3289-0.58 2.0989 0 0.7694 0.195 1.4754 0.58 2.0986 0.384 0.6226 0.924 1.1211 1.604 1.4811 0.68 0.3605 1.459 0.5434 2.318 0.5434 0.858 0 1.638-0.1829 2.318-0.5434 0.68-0.3608 1.22-0.8594 1.604-1.4811 0.385-0.624 0.58-1.3301 0.58-2.0986 0-0.7691-0.195-1.4752-0.58-2.0989-0.384-0.6217-0.924-1.1203-1.604-1.4808z" fill="#fff"/>
<path d="m152.31 38.147c0.105 0.0869 0.239 0.1289 0.409 0.1289 0.169 0 0.299-0.0434 0.399-0.1326 0.1-0.0886 0.148-0.1936 0.148-0.3208v-7.1162c0-0.125-0.049-0.2272-0.152-0.3123-0.106-0.0883-0.233-0.1343-0.387-0.1411-0.174 0-0.321 0.0704-0.443 0.2149l-3.383 4.3496-3.345-4.3533c-0.05-0.0613-0.12-0.1133-0.207-0.1522-0.241-0.1093-0.493-0.0681-0.658 0.0798-0.105 0.0928-0.155 0.1956-0.155 0.3146v7.1162c0 0.136 0.044 0.2436 0.136 0.3288 0.091 0.0837 0.207 0.1246 0.356 0.1246 0.158 0 0.279-0.0409 0.37-0.1249 0.092-0.0849 0.137-0.1925 0.137-0.3285v-5.9153l2.893 3.8653c0.048 0.0511 0.116 0.101 0.196 0.1408 0.074 0.0363 0.143 0.0519 0.211 0.046 0.105 0.0068 0.173-0.0091 0.247-0.0457 0.081-0.0401 0.149-0.09 0.203-0.1494l2.874-3.7435v5.8018c0 0.1337 0.049 0.2396 0.151 0.3245z" fill="#fff"/>
<path d="m163.11 33.449c-0.131 0.243-0.313 0.4412-0.538 0.5882-0.23 0.1511-0.485 0.2271-0.757 0.2271h-2.696v-3.1393h2.696c0.409 0 0.766 0.1533 1.058 0.4559 0.288 0.2975 0.434 0.6641 0.434 1.0899 0 0.2754-0.066 0.5371-0.197 0.7782zm-0.018-2.8646c-0.388-0.2115-0.818-0.3188-1.277-0.3188h-3.175c-0.151 0-0.275 0.0437-0.38 0.1337-0.103 0.0889-0.153 0.1936-0.153 0.3197v7.104c0 0.136 0.044 0.2433 0.136 0.3285 0.091 0.0838 0.212 0.1249 0.37 0.1249 0.149 0 0.268-0.0428 0.363-0.1309 0.096-0.0891 0.143-0.195 0.143-0.3225v-2.7106h2.696c0.459 0 0.888-0.1091 1.277-0.3245 0.39-0.2161 0.704-0.5148 0.935-0.8881 0.23-0.3733 0.347-0.7867 0.347-1.229 0-0.4412-0.117-0.8497-0.347-1.2151-0.23-0.3657-0.544-0.6592-0.935-0.8713z" fill="#fff"/>
<path d="m175.51 35.916c-0.281 0.4895-0.681 0.8798-1.187 1.1612-0.506 0.2799-1.087 0.4218-1.727 0.4218-0.641 0-1.222-0.1419-1.727-0.4218-0.506-0.2805-0.906-0.6715-1.188-1.1612-0.282-0.4883-0.425-1.0419-0.425-1.6449 0-0.611 0.143-1.1685 0.425-1.6571 0.283-0.4906 0.683-0.879 1.188-1.1549 0.505-0.2763 1.086-0.416 1.727-0.416 0.64 0 1.221 0.142 1.727 0.4219 0.506 0.2808 0.905 0.6714 1.187 1.1612 0.282 0.4886 0.426 1.0422 0.426 1.6449 0 0.603-0.144 1.1563-0.426 1.6449zm-0.596-5.2246c-0.68-0.3611-1.46-0.5437-2.318-0.5437-0.859 0-1.639 0.1826-2.318 0.5437-0.68 0.3597-1.22 0.8582-1.604 1.4808-0.385 0.6229-0.58 1.3289-0.58 2.0989 0 0.7694 0.195 1.4754 0.58 2.0986 0.384 0.6226 0.924 1.1211 1.604 1.4811 0.68 0.3605 1.459 0.5434 2.318 0.5434 0.858 0 1.638-0.1829 2.318-0.5434 0.68-0.3603 1.22-0.8588 1.604-1.4811 0.385-0.624 0.58-1.3295 0.58-2.0986s-0.195-1.4752-0.58-2.0989c-0.384-0.622-0.924-1.1205-1.604-1.4808z" fill="#fff"/>
<path d="m181.02 37.395c0.453 0.3512 0.932 0.6078 1.428 0.7634 0.496 0.1559 1.076 0.2351 1.724 0.2351 0.592 0 1.142-0.096 1.635-0.2853 0.488-0.1871 0.879-0.4526 1.161-0.7884 0.279-0.3313 0.419-0.7157 0.419-1.1442 0-0.4922-0.116-0.8942-0.347-1.1952-0.232-0.3026-0.566-0.5428-0.995-0.7143-0.44-0.176-1.018-0.3316-1.72-0.4627-0.724-0.144-1.279-0.3234-1.649-0.5329-0.397-0.2246-0.598-0.553-0.598-0.9763 0-0.3904 0.201-0.7087 0.595-0.9454 0.38-0.2266 0.893-0.3416 1.527-0.3416 0.397 0 0.816 0.0733 1.247 0.2184 0.432 0.1459 0.778 0.3279 1.027 0.5411 0.054 0.0414 0.131 0.0636 0.23 0.0636 0.141 0 0.258-0.0432 0.358-0.1326 0.099-0.0889 0.148-0.1857 0.148-0.297 0-0.147-0.088-0.2842-0.271-0.4204-0.3-0.2507-0.695-0.4523-1.179-0.6042-0.487-0.1519-1.012-0.2291-1.56-0.2291-0.611 0-1.165 0.092-1.65 0.2737-0.478 0.1794-0.857 0.4386-1.124 0.7688-0.266 0.3285-0.401 0.716-0.401 1.1521 0 0.6373 0.234 1.1205 0.715 1.4785 0.488 0.3626 1.199 0.6277 2.113 0.7881 0.818 0.1539 1.412 0.3413 1.816 0.5735 0.422 0.2442 0.642 0.5934 0.651 1.0388 0 0.3867-0.219 0.7072-0.652 0.9545-0.414 0.2379-0.927 0.3585-1.523 0.3585-0.506 0-0.966-0.0715-1.366-0.2137-0.4-0.1414-0.792-0.3637-1.165-0.6607-0.185-0.145-0.483-0.1394-0.681 0.0369-0.103 0.092-0.154 0.1911-0.154 0.303 0 0.1467 0.079 0.2762 0.241 0.396z" fill="#fff"/>
<path d="m194.23 38.141c0.109 0.0906 0.245 0.1351 0.416 0.1351 0.17 0 0.306-0.0445 0.415-0.1351 0.107-0.0889 0.16-0.1934 0.16-0.3183v-6.71h2.558c0.163 0 0.292-0.0371 0.393-0.1144 0.095-0.0726 0.141-0.1717 0.141-0.3032 0-0.1328-0.047-0.2345-0.143-0.3108-0.101-0.0804-0.229-0.119-0.391-0.119h-6.253c-0.163 0-0.29 0.0386-0.391 0.119-0.096 0.0766-0.143 0.1746-0.143 0.2986 0 0.1323 0.047 0.2342 0.143 0.3106 0.1 0.0801 0.228 0.1192 0.391 0.1192h2.545v6.71c0 0.1252 0.052 0.2297 0.159 0.3183z" fill="#fff"/>
<path d="m208.14 30.389c-0.099-0.0829-0.227-0.1235-0.387-0.1235h-4.763c-0.151 0-0.276 0.0437-0.38 0.1334-0.104 0.0891-0.154 0.1936-0.154 0.3199v7.1044c0 0.126 0.05 0.2308 0.153 0.3194 0.105 0.09 0.23 0.1337 0.381 0.1337h4.763c0.161 0 0.289-0.0386 0.389-0.119 0.097-0.0769 0.144-0.1746 0.144-0.2992 0-0.119-0.049-0.2203-0.149-0.3086-0.1-0.0897-0.226-0.1329-0.384-0.1329h-4.188v-2.8219h3.571c0.163 0 0.292-0.037 0.393-0.1145 0.094-0.0729 0.141-0.1717 0.141-0.3034 0-0.1258-0.047-0.2255-0.145-0.3067-0.1-0.0829-0.228-0.1235-0.389-0.1235h-3.571v-2.6215h4.188c0.161 0 0.289-0.0392 0.39-0.1192 0.096-0.077 0.143-0.1743 0.143-0.2993 0-0.1334-0.047-0.237-0.146-0.3176z" fill="#fff"/>
<path d="m218.2 33.442c-0.137 0.2541-0.317 0.4594-0.537 0.6104-0.225 0.1542-0.465 0.2411-0.715 0.2578l-3.129 6e-4h-0.124v-3.1865h3.202c0.417 0 0.777 0.1445 1.069 0.4298 0.29 0.2828 0.437 0.6308 0.437 1.0343 0 0.3131-0.069 0.5998-0.203 0.8536zm0.061-2.8804c-0.391-0.197-0.826-0.2967-1.295-0.2967h-3.845c-0.151 0-0.275 0.0437-0.381 0.1334-0.103 0.0892-0.153 0.194-0.153 0.3197v7.1043c0 0.1221 0.059 0.2249 0.18 0.3132 0.13 0.0942 0.281 0.14 0.463 0.14 0.139 0 0.248-0.0404 0.334-0.1233 0.088-0.0851 0.131-0.1933 0.131-0.3299v-2.7575h2.887c0.465 0 0.849 0.1025 1.143 0.3052 0.305 0.2084 0.459 0.5306 0.459 0.9585 0 0.5584 0.083 0.9842 0.246 1.2656 0.161 0.2774 0.37 0.4789 0.62 0.601 0.203 0.1068 0.547 0.1147 0.753-0.0167 0.089-0.0571 0.133-0.1465 0.133-0.274 0-0.0659-0.022-0.1295-0.066-0.1956-0.045-0.0687-0.104-0.1241-0.181-0.1709-0.175-0.0789-0.298-0.2195-0.352-0.4117-0.048-0.1672-0.089-0.4724-0.127-0.9309-0.017-0.3341-0.119-0.6277-0.301-0.8761-0.184-0.249-0.437-0.4454-0.752-0.5843l-0.227-0.1002 0.227-0.0996c0.406-0.1783 0.744-0.452 1.005-0.8134 0.259-0.36 0.39-0.7535 0.39-1.1691 0-0.4318-0.118-0.8262-0.352-1.1714-0.233-0.3463-0.549-0.6217-0.939-0.8196z" fill="#fff"/>
<path d="m223.84 37.395c0.453 0.3512 0.932 0.6078 1.427 0.7634 0.497 0.1559 1.077 0.2351 1.725 0.2351 0.591 0 1.141-0.096 1.634-0.2853 0.489-0.1871 0.879-0.4526 1.161-0.7884 0.278-0.3313 0.42-0.7157 0.42-1.1442 0-0.4922-0.117-0.8942-0.348-1.1952-0.231-0.302-0.566-0.5428-0.995-0.7143-0.439-0.176-1.018-0.3316-1.72-0.4627-0.724-0.144-1.279-0.3234-1.648-0.5329-0.397-0.2246-0.598-0.553-0.598-0.9763 0-0.3904 0.2-0.7087 0.595-0.9454 0.379-0.2266 0.893-0.3416 1.526-0.3416 0.397 0 0.817 0.0733 1.248 0.2184 0.432 0.1453 0.777 0.3273 1.027 0.5405 0.054 0.042 0.131 0.0642 0.229 0.0642 0.141 0 0.258-0.0432 0.358-0.1326 0.1-0.0889 0.149-0.186 0.149-0.297 0-0.147-0.089-0.2842-0.271-0.4204-0.3-0.2507-0.695-0.4523-1.18-0.6042-0.486-0.1519-1.011-0.2291-1.56-0.2291-0.61 0-1.165 0.092-1.65 0.2737-0.478 0.1794-0.856 0.4386-1.124 0.7688-0.266 0.3279-0.4 0.7157-0.4 1.1521 0 0.6373 0.234 1.1205 0.714 1.4785 0.489 0.3626 1.2 0.6277 2.114 0.7881 0.818 0.1539 1.411 0.3413 1.815 0.5735 0.423 0.2442 0.642 0.5934 0.652 1.0388 0 0.3867-0.219 0.7072-0.652 0.9545-0.415 0.2379-0.928 0.3585-1.524 0.3585-0.506 0-0.965-0.0715-1.366-0.2137-0.398-0.1411-0.791-0.3631-1.165-0.6607-0.184-0.145-0.482-0.1394-0.68 0.0369-0.104 0.0923-0.155 0.1914-0.155 0.303 0 0.1464 0.079 0.2759 0.242 0.396z" fill="#fff"/>
<path d="m21.724 12.946c-0.019-0.0037-0.0235-0.0047-5e-3 -0.0012 0.0017 4e-4 0.0031 8e-4 5e-3 0.0012zm-0.6885-0.1257c0.0354 0.0067 0.0387 0.0076-0.0163-0.0017l0.0163 0.0017zm0.0142-0.0896c-0.0048-0.0252-0.0101-0.0515-0.0182-0.0818 0.0126 0.0312 0.0241 0.0598 0.0358 0.0887-0.0059-0.0023-0.0116-0.0046-0.0176-0.0069zm0.0446 0.0737c-0.0108-0.0032-0.0222-0.0066-0.0347-0.0103-8e-4 -0.0065-0.0018-0.0133-0.0028-0.0203 0.0095 0.0025 0.019 0.0049 0.028 0.0071 0.0033 0.0083 0.0062 0.0155 0.0095 0.0235zm0.0252-0.0433c-0.0192-8e-3 -0.0362-0.015-0.0512-0.0212 1e-4 2e-4 2e-4 4e-4 2e-4 5e-4 -0.0043-0.0018-0.0098-0.0039-0.0138-0.0058 0.0047 0.0018 0.0072 0.0028 0.0116 0.0045-0.0038-0.0016-0.0064-0.0026-0.01-0.0041 0.0036 0.0013 8e-3 0.0031 0.0118 0.0045 0 1e-4 1e-4 2e-4 2e-4 4e-4 0.0224 0.0086 0.0422 0.0162 0.0575 0.0222 0.0181 0.0073 0.0372 0.015 0.0585 0.024-0.0236-0.0089-0.045-0.0171-0.0621-0.0239-2e-4 -1e-4 -4e-4 -2e-4 -7e-4 -3e-4 -0.0496-0.0196-0.064-0.0262-2e-3 -8e-4zm0.9065 3.4261c-0.4086 0.0053-0.9531 0.0176-2.8218 0.24 0.8338-0.2631 1.4582-0.1938 2.1435-0.3183 0.2874-0.0764-2.2107 0.1105-0.4959-0.165 0.5945-0.0567 0.5661 0.0204 0.9233-0.0554 1.095-0.1448-1.1067 0.054 0.1163-0.0996-1.1485 0.1224-2.4926 0.0983-2.7174-0.0258-0.0481 0.022-0.0482 0.022-0.1842 0.0352-0.8772 0.0472-0.6955-0.0597-0.8333-0.1155 0 0 0.2223 0.0126 0.3234 0.0183-1.5766-0.5841-1.814-2.1675-0.5446-1.8844l0.4516 0.3592c-0.1903-0.1685 0.1216-0.0191 0.2491 0.0999l0.0643 0.0602c0.0925 0.0778 0.1596 0.1361 0.1953 0.1673 0.0078 0.0093 0.0146 0.017 0.0226 0.0266-0.0104 0.0691-0.0445 0.3689-0.2044 0.4954-0.1761 0.071 0.1985 0.1554 0.2059 0.1902l0.3201 0.1617c0.0414 0.0209 0.172 0.0869 0.279 0.1409 0.0462-0.0573 0.2113-0.2584 0.2417-0.5477-0.2778-0.6931-0.5748-1.5911-0.9115-2.4874 0.6676 0.0338 0.6679-0.0066 1.647 0.19-0.6842-0.1137-0.0312 0.0367 0.3415 0.1113 0.1073 0.1003 0.219 0.2342 0.3127 0.3649l-0.0242-0.0415c-0.0767-0.0998-0.0505-0.149-0.0626-0.2835 0.0153 0.0021 0.0291 4e-3 0.0411 0.0056 0.2265 0.5616 0.2687 0.6664 0.3754 0.9307 0.1158 0.192-0.0538-0.2256-0.2431-0.941 0.1233 0.0311 0.141 0.0346 0.1111 0.0241-0.0089-0.0028-0.0169-0.0055-0.024-0.0078l0.0056 0.0015c-0.0031-0.0011-0.0064-0.0022-0.01-0.0034-0.0144-0.0048-0.0311-0.0104-0.0495-0.0167-0.0038-0.0013-0.0077-0.0026-0.0116-0.0039-3e-4 -2e-4 -8e-4 -3e-4 -0.0011-5e-4 -7e-4 -3e-4 -0.0013-5e-4 -0.0018-7e-4 5e-4 3e-4 9e-4 4e-4 0.0016 7e-4 -0.0057-2e-3 -0.0113-0.0039-0.0171-6e-3 -0.0025-8e-4 -0.0047-0.0017-0.0072-0.0026-1e-4 -1e-4 -1e-4 -1e-4 -2e-4 -1e-4 -0.0148-0.0055-0.0292-0.0107-0.0429-0.0159 0.0107 0.0036 0.0184 0.0062 0.0284 0.0096 0.0035 0.0012 0.0084 0.0031 0.0146 0.0055-1e-4 -1e-4 -1e-4 -2e-4 -1e-4 -3e-4 -0.0024-9e-4 -0.0048-0.0019-0.0071-0.0028 0.0023 8e-4 0.0045 0.0015 0.0069 0.0023-0.062-0.235-0.1257-0.501-0.1821-0.7881-0.3975-0.9639-0.395-0.8773-0.7558-1.5064-0.4968-1.9915 0.5961 1.1137 0.488 0.105 0.3421 1.2706 0.2749 1.1964 0.5843 2.2342l0.0332 0.0088c-0.1066-0.642 0.0188-0.573-0.0477-1.3153 0.1115 0.4978 0.2022 0.9701 0.2701 1.3743l0.1524 0.0403c-0.0242-0.0049-0.0575-0.0119-0.1058-0.0219 0.0125 0.0031 0.0274 0.0064 0.042 0.0096-0.0269-0.0054-0.0558-0.012-0.0871-0.0198 0.1148 0.6834 0.1646 1.1689 0.1402 1.2427-0.3226-0.8448-0.0476-0.0048-0.0162 0.1209-0.0088-0.0212-0.0176-0.0422-0.0268-0.0629l0.0113 0.03c0.0058 0.0133 0.0115 0.0266 0.0169 0.0392 0.0011 5e-3 0.0014 0.0078 9e-4 8e-3l0.1032 0.274c-0.0013-0.0051-0.0026-0.0095-0.0039-0.0148-0.0195-0.058-0.0387-0.1129-0.058-0.1638 0.0404 0.1032 0.0685 0.1895 0.0927 0.2756 0.018 0.0572 0.0261 0.084 0.045 0.1697 0.0024 0.0092 0.0045 0.0175 0.0069 0.0269 0.0021 0.0069 0.0078 0.0344 0.0136 0.0622-0.0024-0.0088-0.0043-0.016-0.0061-0.023 0.0069 0.0329 0.015 0.0715 0.0249 0.1192-0.0155 0.0423 0.1284 0.3712 0.1893 0.6539 0.0365 0.1585 0.0045 0.0065-0.0109-0.0905-0.0065-0.0629-0.0108-0.1039-0.0147-0.1423 0.0042-0.0281 0.0291 0.0703 0.0546 0.2535 0.0055 0.0429 0.0133 0.1045 0.0242 0.1903l-0.185 0.2952zm-3.1479-1.7046c-0.0233-0.0238-0.0583-0.0603-0.1153-0.1198-0.2615-0.2665-0.433-0.5273 0.1153 0.1198zm1.8368-1.8638 0.0017 9e-4 -0.0033-0.0017-0.0143-0.0076 0.0158 0.0084c0.0024 0.0012 0.0089 0.0043 0.0229 0.0115l-0.0228-0.0115zm0.0446 0.0214c0.0031 0.0014 0.0064 0.0028 0.0097 0.0043-0.0019-9e-4 -0.0037-0.0015-0.0056-0.0024-0.0012-5e-4 -0.0029-0.0013-0.0041-0.0019zm0.0184 0.0596 5e-4 7e-4c-0.0262-0.0274-0.0431-0.0452-0.057-0.0597 0.0065 0.0058 0.0123 0.0112 0.0163 0.0149 0.0114 0.0118 0.0243 0.026 0.0402 0.0441zm-0.1033-0.104c0.0048 0.0027 0.0083 0.0047 0.0119 0.0068l-0.0023-1e-3 -0.0096-0.0058zm0.1057 0.1076 0.0075 0.0115c-0.0619-0.0184-0.1285-0.0383-0.1994-0.0603 0.0703 0.0178 0.1329 0.0338 0.1919 0.0488zm-4.504-4.6356c0.0218 0.13607 0.0354 0.24804 0.0421 0.34044-0.301-0.31877-0.531-0.62299-0.5242-0.80513-0.1564-0.54579 0.7071 0.33583 0.9507 0.35725 0.0555 0.25054 0.7925 1.1767 0.1653 0.69017l1.0258 1.0657c1.0456 1.4728 2.2064 2.3847 2.5645 2.7485l0.1477 0.1136c-0.0054-0.0039-0.0109-0.0077-0.0165-0.0116 7e-4 5e-4 0.0014 1e-3 0.0023 0.0016l-0.027-0.0181c0.0112 0.0078 0.0245 0.0175 0.0395 0.0284l-0.0361-0.022c0.0111 0.0073 0.0226 0.0148 0.0341 0.022l1e-4 1e-4c0.0039 0.0022 0.0062 0.0035 0.0097 0.0054l1e-3 8e-4 -0.0107-0.0062c0.0054 0.0035 0.011 0.0071 0.0161 0.0102 0.0017 0.0012 0.0033 0.0024 5e-3 0.0037 9e-4 6e-4 0.0021 0.0015 0.0029 0.0021l-0.1346-0.0587-0.7465-0.31c-0.4199-0.1707-0.8345-0.3303-1.2298-0.4879-0.2712-0.6618-0.5678-1.2902-0.899-1.7967-0.0634 0.1872-0.1887 0.01018-0.343-0.29848 0.1256 0.01552 0.2406 0.01552 0.3364-0.01374-0.0657-0.05854-0.297-0.2499-0.5749-0.49655-0.2773-0.60836-0.5881-1.2718-0.8009-1.0649zm5.6761 6.8763c0.01 0.0492 0.0175 0.0878 0 0zm-9.7142-6.4527 0.1768 0.27439c-0.085-0.1262-0.2132-0.22144-0.1768-0.27439zm-0.2213-0.24399c0.0328 0.00372 0.0597 0.00598 0.0773 0.0055l0.0146 0.02417c-0.0293-0.00776-0.0601-0.01795-0.0919-0.02967zm28.546 10.406c1.471 0.2168-0.2466 0.914 2.0368 1.4697 0.3705-0.3979 1.0234-0.0484 1.5949 0.2596-0.0536-0.576-1.5851-0.568-2.4729-0.9888 0.5869 0.1279 0.3507-0.7763 1.5565-0.2546 0.1767-0.4232-1.309-0.7344-0.9808-0.9894 0.5731 0.1283 1.3091 0.2957 2.0622 0.3748-0.4827-0.1095 0.1959-0.449 0.2534-0.5317-0.2912 0.0432-1.2127-0.3028-0.8654 0.1294-1.1217-0.2379 0.0986-0.8952-0.8685-0.9679 1.3493 0.0726 0.3253-0.766 0.8883-1.1274-3.1325-0.0924 1.1699 0.7865-1.4118 0.7615-0.5181-0.2824-0.5264-0.6783-0.5828-1.1168-0.0281-0.2182-0.0681-0.4456-0.1888-0.6614-0.0603-0.1079-0.1406-0.2127-0.2495-0.3112-0.0546-0.0492-0.116-0.0969-0.1859-0.1425l-0.1107-0.0669-0.0604-0.0322-0.0157-0.0079-0.1069-0.8206-0.0021-3e-4 -0.0041-6e-4 -0.0082-0.0013-0.0335-0.0049c0.5156-0.46 1.1802-0.1883 2.3023-0.4447l0.0904 0.048c0.012 0.0085 0.0335 0.0238 0.0335 0.0238l1e-3 7e-4 0.1392 1.0828 0.0017 0.0033 3e-3 0.0065 0.0059 0.013 0.0105 0.0257c0.0257 0.0676 0.0345 0.1305 0.0321 0.1893-0.0047 0.118-0.0543 0.2203-0.1027 0.3189-0.097 0.1982-0.1887 0.3773 0.0863 0.6651 0.2776-0.311 0.3339-0.7398 0.1935-1.1309l-0.0285-0.0728-0.0078-0.018-4e-3 -9e-3 -0.1422-1.1038-0.0012-0.0011-0.0025-2e-3 -0.0197-0.0159-0.0897-0.061c-0.0653-0.039-0.1413-0.0747-0.2277-0.106-0.1726-0.0625-0.3861-0.1077-0.6356-0.1284-0.2063-0.3267 3.0043-0.8786 2.1468-1.1781-0.9802 0.2145-1.2142 0.2422-1.5553 0.433-0.4012-0.1187 8e-3 -0.0793-0.1509-0.602-0.6953-0.1061-0.5915 0.7054-1.2919 0.2983 0.128-0.2218 0.1209-0.6703 0.8161-0.7393l0.1204 0.0683c-1.322-0.9825 1.9813-1.6518-0.336-2.1694-0.4249 0.26283 0.2809 0.28086 0.0947 0.65889-0.6484 0.43084-1.9564 0.1414-2.4584-0.13 0.666-0.18837-0.0657-0.42565-0.0273-0.80805 0.9047-0.70351 0.7065 0.61798 1.4875 0.49704l-0.3093-0.97612-0.0572 0.26379s-0.3798-0.1321-0.7498-0.22507c-0.347-0.02345-0.694-0.04689-0.694-0.04689 0.6176 0.24544-1.0975 0.83416-1.3306 0.74571-0.0706-0.47367-0.1773-0.96407 0.9173-1.5863-1.1023 0.6103-1.4272 0.1262-1.9144-0.03064-0.0744 0.60036-0.8321 0.65792-1.2231 0.81371 0 0 0.146-0.30455 0.2918-0.60901 0.1304-0.29565 0.261-0.5913 0.261-0.5913 0.764 0.233 0.7615-0.78606 1.5243-1.2122 1.1552-0.67813 0.9878 0.13 1.1112 0.56074 1.2803-2.0684-1.7604-0.09814-1.3843-1.2192 0.4284-0.37674 0.974-0.77022 1.1104-0.47319 0.1943-0.34691-1.3039 0.29468-1.1707-0.45063-0.1861 0.35952-0.8448 1.2842-1.5125 1.3385l0.5526-1.3528c-0.3252-0.65225-1.2074 0.89617-2.0432 1.1029l-0.3927 0.88226c-0.8585 0.86084-0.4984-0.33753-1.3894 0.66908 0.1784 0.17656 1.0066-0.53908 0.9723-0.06088-0.8135 1.0088-0.7543 0.2891-1.3454 0.74402-0.0803-0.72122 0.0465-0.69002 0.3261-1.733 1.21-1.6192 2.232-1.525 3.8604-3.5885-0.8733-0.15991-2.1451-0.20558-2.1362-1.0603-0.9084 0.21068-1.6745 1.5884-2.2242 2.5942-0.3167 0.08343-0.3208-0.11092-0.3031-0.42565l0.5727-0.43665c-0.9769 0.24488-1.6332 0.68379-2.2425 0.37237-0.5121 0.17883-0.8636 1.3048-1.1961 2.166l-0.4311 0.07778-0.0532 0.24552c-0.6024 1.1258-0.6976 0.65089-0.8962 0.53819 0.2059-0.50488 0.3901-0.57821 0.5091-0.89293-0.0207-0.49251-0.3892-0.48047-0.7373-0.02021 0.1842-0.51394 0.7608-1.6057 0.8847-1.1676-0.0368 0.12296-0.095 0.31748-0.1328 0.44417l0.7042-0.51895c-0.7518 0.45524-0.5409-0.93053-0.0821-2.1507-0.7792 0.45459-0.0426 1.3984-0.8437 1.6659-0.0469-2.6772-1.733 0.31756-1.352-3.3172-0.624 0.62518-1.3695 1.7906-2.025 1.8066-0.1519 1.0723-0.4833 0.36833-0.5813 1.6994 0.3152 1.4572 1.4342-1.9592 1.5092 0.10163 0.3532-0.43665 0.4774-1.3482 0.7296-1.89 0.2634-0.03403 0.465 0.13687 0.3218 0.79059-0.6995 0.53527-0.7945 2.5156-1.3936 2.4335-0.1191 0.91404 0.4027 0.68306 0.5422 0.96804-0.1878 0.47116-0.2758 1.0489-0.2735 1.477-0.366 0.8171-0.8071 1.4907-1.0934 2.2006 0.1573-0.47917 0.1421-0.78314 0.2452-1.0619 0 0-0.1949 0.35241-0.3897 0.70473-0.1796 0.36356-0.3592 0.72708-0.3592 0.72708-1e-3 -0.66329 0.082-1.4521 0.2645-2.0162-0.239-0.35555-0.8609 1.0409-0.6797-0.57012-0.3852 0.21247 0.017 0.96537-0.0241 1.421l-0.0372 0.07817 0.3573-0.09127c-0.2341 1.8579-0.326-0.48952-0.5887 1.2812-0.3747 3.3947-0.2916-1.1458-0.6008-0.58484l0.1862-1.2262c0.1117-0.60868 0.2235-1.2174 0.2235-1.2174l-0.3027 0.53374c0.1965-0.95292 0.2812-2.5816 0.6601-3.5455-0.461-0.1253-1.2216-0.83286-1.5458-0.37859-0.1591-0.83004-0.2703-1.6176-0.2414-2.446-0.4878 1.5423-0.9893-0.76026-1.6401-0.70359-0.4585 0.98606 0.7683 1.1532 0.5006 2.4078-0.222-0.53447-0.4309-0.15636-0.5381 0.11851 0.163-0.2659 0.7864 0.38168 1.1376 0.72696-0.2751-0.01269-0.1089 1.1846-0.1146 1.6871 0 0 0.4087 0.20179 0.4042 0.21416 0.1122 1.4722-0.4364 0.16815-0.5078 0.93941-0.0823-1.3341-0.1526-1.3671-0.2031-2.7028-0.3174 0.58977-0.8231 0.66552-1.3546-0.08601-0.3313-0.49485 0.0088-0.67814 0.0467-1.065-0.3084-0.8783-0.2953 0.59995-0.6558-0.48297-0.1392-0.81993 0.2566-0.12708 0.3533-0.39597 0 0-0.36-0.04326-0.7201-0.08659-0.394 0.00364-0.7879 0.00728-0.7879 0.00728-0.1808-0.51143 0.1559-0.78873 0.4576-0.65331-0.6309-0.4761-0.9755-0.06274-0.7658 1.81-0.6525-0.36453-1.5905-0.87063-1.7788-1.6526-0.0921 0.38976 0.3015 0.78323 0.5469 1.2781-0.8164 0.01108 0.0813 1.7945-0.2144 1.9885l0.7855 0.73674c-1.0709-0.63067 0.8083 1.4993-0.0294 1.0363-0.5523-0.91266-1.2705-1.925-2.0365-2.8174 0.5343 0.92099-0.3494 0.34747-0.5931 0.49679 0.8063 0.76237 0.1864 1.0403 1.2097 1.6666 0.1659 0.90376-1.0406 0.06257-0.3136 1.2676 0.4023 0.10001 0.5643 1.0241 1.2974 1.4191-0.0182 0.02886-0.0513 0.04624-0.0925 0.05659-0.0856-0.04859-0.1866-0.11933-0.2976-0.18837-0.2749-0.18821-0.6279-0.34933-0.7347-0.13558-0.3976-0.21036-0.837-0.50253-1.2108-0.83028 0.1966-0.07227 0.7632 0.05166 0.0315-0.51951 0 0-0.105 0.16493-0.215 0.3444-0.0276-0.07357-0.0551-0.15466-0.0823-0.24553-0.527-0.38409-0.5817 0.14989-0.7322 0.61289-0.3864-0.046-0.8217-0.12118-1.5975-0.5225 0.2312 0.19767 0.3033 0.33276 0.2869 0.43188-0.0357-0.05757-0.0616-0.11375-0.07-0.16889 0.0104 0.14245-0.0022 0.24108-0.0323 0.30786-0.0657 0.04446-0.1544 0.07898-0.2462 0.111-0.3713-0.05409-1.0118-0.56034-1.3074-0.25208l1.2136 0.89189c0.2527 0.44157-0.649-0.13736-0.5674 0.16161 0.2567-0.01844 1.0267 0.18618 1.4196 0.66689 0.1367 0.37528 0.4297 0.77223 0.2956 0.93233-0.5005-0.3065-0.6143-0.57055-0.6889-0.75844 0 0-0.438 0.32031-1.0633-0.00266-0.3194-0.4132-0.1591-0.61879-0.71979-1.2461-0.92636 0.41757-0.46116-0.22386-1.7422-0.52258 1.583 0.84022 0.22111 1.0039 0.33817 1.59-0.67383-0.28175-0.03349-0.3727-0.44491-0.72462-1.6436-0.3511-1.7511 0.08845-1.5317 0.60295 0.23934 0.51862 0.81055 1.1112 0.2835 1.4937-0.20692-0.09-0.33179-0.2739-0.38898-0.3673 0.28727 0.6146-1.4913 0.5141-0.5617 1.1007-0.43584 0.3735-2.0316-0.4216-2.1842 0.3646 1.8952 0.1386-0.57508 0.8472 1.4222 1.1837l-1.2626 0.3797c1.042 0.5813 3.3892 0.2935 3.4932 1.0842-0.80337 0.6836-3.3104-0.3037-4.4017 0.1126l1.0882 0.2648-0.79735 0.3849-0.09372-0.0639c0.36519 0.2501 0.05216 0.6861-0.54258 0.6991-0.46466-0.0357-0.46807-0.3148-0.9303-0.3591 1.0096 0.3487-2.7203 1.9287 0.3993 2.1272-0.50577 0.2916-0.4213 0.8057-1.3858 0.8584 1.3529 0.0532-0.23062 1.2187 0.70992 1.4067-0.46358 0.0371-1.1046 0.5012-0.68218 0.688 0.40667-0.4458 0.95796-0.3222 1.7343-0.2631-0.87258 0.4958 0.15962 1.1011-1.3236 1.6407 1.0032 0.2248 2.0364-0.2649 3.1715-0.4889-0.83083 0.5254-0.31626 1.3267-2.097 1.7684 0.10925-0.3178 0.2545-0.9642-0.88354-0.5005-0.4608 0.6859 0.56036 0.0589 0.88381 0.3838-0.32749 0.0741-0.95563 0.6294-1.4852 0.7284 0.27775 0.1754 0.43432 0.5166 0.31671 0.9741 0.50532-0.8272 1.3495-0.1317 1.8683-0.7126l-1.4722-0.0238c-0.36564-0.5845 0.88093-0.4664 1.213-0.8441 0.81432 0.8896 2.4716 0.024 3.6816 0.4985-0.21339 0.2773-0.49733 0.7717-0.47534 0.8858-0.25845-0.244-1.7431 0.5128-1.9112 0.8323 1.5756-0.1062-0.19759 1.3439-0.14211 1.9756 0.08143-0.5888 1.1627-0.9047 1.6002-0.9817 1.4527 0.3499-0.29014 0.6562-0.62571 1.4608 0.68011 0.6786 0.73155 1.5103 1.0466 2.323 0.1562 0.4037 0.34167 0.7842 0.62391 1.0875 0.14095 0.1514 0.30595 0.2833 0.50183 0.3876 0.09803 0.0521 0.2036 0.0972 0.31788 0.1343 0.05467 0.0153 0.11365 0.0317 0.17766 0.0495l0.09381 0.02 0.01194 0.0022 0.00601 0.0012 0.00144 2e-4 0.81629 0.5914 0.00162-7e-4 0.01329-0.0054 0.02711-0.0115s0.01122-0.0201 0.03052-0.0553l0.01616-0.0291 0.00458-0.0081 0.00224-0.0042 0.00117-0.0022-0.80489-0.5869 0.00547-0.022 0.02541-0.1017c0.03914-0.1477 0.09138-0.3447 0.14372-0.5418 0.1159-0.3877 0.23197-0.7754 0.23197-0.7754l-1.2157 0.7913c0.33665-1.1569 2.4113-2.0533 3.2614-2.5294-0.07146 0.0963-0.072 0.1921-0.04453 0.287l0.05683 0.1414 0.03366 0.07 0.01652 0.0347 0.0079 0.0173 0.00189 0.0043 9.8e-4 0.0022 0.58833 0.4276 1e-4 6e-4 2e-4 0.0053c0.0044 0.1125-0.0335 0.2421-0.3418 0.5021l0.6754-0.271c0.3443-0.4955-0.0092-0.4207 0.5419-0.8312-0.182 0.3976-0.0789 0.8303-0.7897 1.3366 0.126 0.1348 0.6246-0.0994 1.1149-0.7535 0.3001 0.1007-1.1571 1.3463-1.6264 1.7054 0.1405 0.1968-0.65577 1.1088-0.96405 1.3696l0.38135 0.0498c-0.30451 0.2558-0.66431 0.6893-0.97043 0.9478-0.15181 0.5143 0.9435-0.5675 0.38907 0.3831 0.11221-0.1394 0.84753-0.8029 0.87375-0.7882 0.94561 1.6346 0.74021 1.7154 2.2367 2.5953l0.1724-0.8604c0.9611-0.3854 0.9819-0.0073 1.0427 0.5131 0.0727 0.5297 0.1259 1.1544 0.941 1.0985 0.9902-0.1981 1.6084-0.4083 1.9889-1.6958 0.5862-0.3428 0.4009 0.434 0.4343 0.9682 0.5973-0.6037 1.6428-1.7511 1.9479-0.8627-0.4561 0.3292-0.858 0.6104-1.2482 0.7155-0.3061 1.3253 1.1209 0.5372 1.5627 1.248 0.5818-0.5434 2.1474-1.9115 2.8804-3.0593-0.1923-1.0934 0.136-2.6512 0.6763-3.7122-0.1377 0.8279 0.5889 0.8562 0.9374 1.4433-0.213 0.7822 0.8665 1.9517 0.0334 2.278-0.2504-0.416-0.3234-1.5427-0.6517-1.1349 0.1499 0.8368 0.6681 1.8065 1.3019 2.5523-0.0307 0.4167-0.3487 0.9524-0.6833 0.9474 0.1807-0.3641 0.0749-0.6188 0.0526-0.9513-1.1622 0.9362 0.222 1.9185 0.0761 2.9267 0.3226-0.2526 0.9791-0.1065 0.7517-0.7253 0.791 1.7661 1.8054-1.3505 2.66 0.1433-0.0079-0.2042-0.4963-0.8168-0.1112-1.369 0.6463-0.287 0.7734 0.6568 1.1527 1.0202 0.1077-0.5905 1.0173-1.2333 0.9925-0.9308 0.2947-0.5827-0.9566-1.8358-0.6155-2.8172-0.0149-1.408 0.7898-0.4075 1.1-0.8821 0.8381 0.772-0.2849 0.7737-0.374 1.2675 0 0 0.3246-0.247 0.6493-0.4939 0.3185-0.2479 0.615-0.5059 0.615-0.5059 0.6894 0.5104 0.3184 1.3288-0.2136 1.2889 0.9411 0.6714 1.4264-0.4014 1.1029-1.4857 0.4573 0.094 0.5266-0.2077 1.0688 0.0738-0.04 0.701 0.8675 2.4771 0.403 3.0166-1.0278 0.2532-0.2852-1.5119-1.2053-1.4828l0.3988 1.1132c-0.6107-0.4922-0.5479 0.4252-0.9317 0.6151-0.3254-0.2161-0.0955-0.4093-0.0118-0.61-0.6897 0.2862-1.4128-0.1766-1.5963 1.241 1.3539 0.8029 2.3592-1.0072 3.2736 0.0524 0 0 0.3066-0.5584 0.6132-1.117 0.2665-0.5552 0.5331-1.1106 0.5331-1.1106-0.2793-0.4787-1.2693-1.0241-1.1846-1.9279 0.8491 1.1571 1.6892 1.497 2.4669 1.351-1.0372-1.1751 0.2333-1.6843-0.773-2.5401 0.1659 0.7894-0.6835-0.2087-0.7817-0.2954 0.4774-0.3633-0.7099-1.2171-0.4816-1.4389 1.0949-0.2316 0.5187 0.8384 1.7721 0.7508 0.2326 0.6575 0.6103 2.2217 0.3366 3.0998 0.4073 0.5271 0.5474-0.3444 1.1929 0.0304-0.7436-0.4684-0.5512-1.2826-1.0252-1.3954 0.4985-0.9916 0.2779-2.8318 0.8047-3.6729 1.5166 1.7468-0.2645 2.3555 1.7746 4.2274 0.2727-0.6232-0.4862-1.4562-0.0027-1.6045 1.2644 0.7663 1.244-0.7041 1.7332-1.2674l-0.7691-0.2386c-0.2155-0.5777 0.4837-0.6416 0.8264-0.7954l0.177 0.2581-0.1107-0.5105c0.0825 0.0013 0.1499 0.0397 0.217 0.0945-0.3187-0.6976 0.8774-0.922 0.9289-1.7077-0.9681-0.6402-0.4331 0.4914-0.7702 0.6542-0.2775-0.0857-1.081 0.0476-1.5127-0.6382 0.5604-0.5584-0.3109-1.766 0.2065-2.3609l-0.4533 0.0198c-0.5397-0.6178-0.0022-0.6685 0.1695-0.9932 1.1116-0.1814 1.1272 1.1918 1.9634 1.1729 0.726 0.7474-0.5944 0.5837 0.6202 1.41l1.7008 0.4006c-0.5959-0.8432 0.986-0.5334 0.9458-0.9298l-0.8116-0.0383c-1.0848-0.6381-0.0945-0.4559 0.1463-0.5155l-1.7588-0.6409c-0.4851 0.2269 0.7261 1.2482-0.399 0.9959-0.0442-0.9321-1.457-1.4699-1.0743-2.2283 0.6696 0.2762 0.1599 0.2591 0.5997 0.577 0.604-0.0575-0.5945-0.9569 0.165-1.1362 0.292 0.4112 0.7181 1.1404 1.8089 1.2097l-1.1493-0.8065c0.3136-0.1174 0.7711 0.1765 0.8592 0.1078 0.4061-0.1992-1.377-0.4867-0.8057-0.8073 0.2908 0.0333 0.6661-0.0109 0.9268 0.1697 0.3105-0.5323-0.3016-0.4318-0.7443-1.1543-0.1771 0.4607-2.1837-0.2709-2.2489-0.7467 0.4437-0.533-0.5808-1.2058 1.2863-1.1902l-0.8074-0.4736c1.2584 0.4633 0.5406-0.2882 0.7958-0.4362z" fill="#FAA21E"/>
</svg>
